<?xml version="1.0" encoding="UTF-8"?>
<svg version="1.1" xmlns="http://www.w3.org/2000/svg" width="1920" height="1080">
<path d="M0 0 C633.6 0 1267.2 0 1920 0 C1920 356.4 1920 712.8 1920 1080 C1286.4 1080 652.8 1080 0 1080 C0 723.6 0 367.2 0 0 Z " fill="#040608" transform="translate(0,0)"/>
<path d="M0 0 C6.08252549 3.04126275 11.75435559 8.07544356 14.4375 14.375 C15.09831376 18.63357756 15.17541253 22.70239292 15 27 C16.7015625 26.7525 16.7015625 26.7525 18.4375 26.5 C19.95712135 26.32262259 21.4780656 26.15629293 23 26 C23.99386719 25.89751953 23.99386719 25.89751953 25.0078125 25.79296875 C34.91155162 25.28460191 45.10661042 28.03299259 53.0625 33.9375 C62.8411135 42.77026547 65.870384 55.69449338 66.63427734 68.39453125 C67.31331472 83.31616276 65.48634609 96.72355211 56 109 C55.40445313 109.5878125 54.80890625 110.175625 54.1953125 110.78125 C53.23238281 111.75578125 53.23238281 111.75578125 52.25 112.75 C51.63640625 113.32234375 51.0228125 113.8946875 50.390625 114.484375 C48.16336197 118.5134688 48.74033725 122.4956295 49 127 C49.03947754 127.8048584 49.07895508 128.6097168 49.11962891 129.43896484 C49.91152401 142.77600228 50.91287214 158.92385317 57.02539062 171.03100586 C58 173 58 173 58.8125 176.75 C59.92341749 181.48462452 62.30785942 185.01290572 65 189 C65.556875 189.969375 66.11375 190.93875 66.6875 191.9375 C67.83564719 194.13219683 67.83564719 194.13219683 70 195 C70.11730469 194.27425781 70.23460937 193.54851562 70.35546875 192.80078125 C71.01150739 189.94999516 71.98971315 187.78802524 73.3125 185.1875 C76.10513766 179.22397117 77.61472034 173.22466334 79.09375 166.84375 C79.83899423 163.68288652 80.68913035 160.60708724 81.625 157.5 C84.58626534 146.5611182 85.23001057 135.34245955 85.5 124.0625 C85.54278076 123.10375977 85.58556152 122.14501953 85.62963867 121.15722656 C85.69034097 114.74840059 84.38212982 111.04202664 80.4597168 105.95825195 C78.17321535 102.89084468 77.10776155 99.62660031 76 96 C75.7215625 95.16726563 75.443125 94.33453125 75.15625 93.4765625 C71.88004843 82.88957779 72.69554891 73.54481032 74.75 62.8125 C74.90670166 61.98113525 75.06340332 61.14977051 75.22485352 60.29321289 C77.94521719 47.15282658 83.51579188 39.12916498 94.4375 31.48046875 C102.85534149 26.61711215 113.51220692 26.73220343 122.80078125 29.1015625 C130.85597265 32.39231565 136.97918696 38.14861011 141.5625 45.375 C142.16191406 46.31085938 142.76132812 47.24671875 143.37890625 48.2109375 C150.74435871 60.88306534 150.76789319 76.55199679 147.375 90.5 C145.62735654 97.06324785 142.88347123 102.4590671 139 108 C138.49082031 108.81339844 137.98164062 109.62679687 137.45703125 110.46484375 C133.3636377 116.95744998 129.92935497 120.62015114 122.3125 122.5625 C112.85911641 126.27632927 109.87383652 136.30860255 106 145 C105.51015625 146.0209375 105.0203125 147.041875 104.515625 148.09375 C103.27465809 150.70461546 102.12696873 153.33789759 101 156 C100.72027344 156.65242676 100.44054687 157.30485352 100.15234375 157.97705078 C99.19727004 160.21038476 98.25319405 162.44807395 97.3125 164.6875 C97.01448486 165.38891113 96.71646973 166.09032227 96.40942383 166.81298828 C94.76933287 170.77401545 93.49657393 174.65307199 92.52075195 178.84155273 C91.25071428 184.10568918 89.63580983 189.28779258 88.12304688 194.48632812 C87.86458984 195.38158203 87.60613281 196.27683594 87.33984375 197.19921875 C87.10644287 198.00190186 86.87304199 198.80458496 86.63256836 199.6315918 C83.58472974 211.04304779 84.24054368 223.25736148 84 235 C83.98219482 235.84365112 83.96438965 236.68730225 83.94604492 237.55651855 C83.27055803 271.12883391 84.82546183 304.44564276 86.98602486 337.92746162 C88.10415809 355.25701573 89.05859871 372.59467732 89.98254395 389.93554688 C90.20168488 394.04604436 90.42543988 398.15627499 90.65057373 402.26644802 C90.8190405 405.35533704 90.98437264 408.4443879 91.14878845 411.53349495 C91.22506044 412.9574998 91.3024142 414.38144724 91.3809967 415.80532646 C91.86193862 424.54661068 92.09799969 433.24541914 92 442 C83.97212602 433.97212602 82.68170682 415.4220465 80.33203125 404.84375 C79.60226401 401.56044506 78.84028319 398.32104584 77.8671875 395.1015625 C76.99428815 391.97957114 76.61742611 389.09850461 76.3125 385.875 C75.17157099 376.64635645 72.84413166 367.73939644 70.61206055 358.72338867 C67.76996871 347.20630287 65.41351658 335.78358821 64 324 C63.34 324 62.68 324 62 324 C61.814375 325.918125 61.814375 325.918125 61.625 327.875 C61.26127664 331.17412459 60.75408329 334.37945952 60.0625 337.625 C59.20689614 341.67045585 58.64516277 345.6960107 58.15234375 349.80078125 C57.08774335 358.16602675 55.33330419 366.33748303 53.5 374.5625 C51.52455007 383.44790487 49.75675927 392.24452838 48.54980469 401.27416992 C47.43106784 408.85545014 45.86514117 416.35957084 44.375 423.875 C44.0465457 425.5455082 43.71841873 427.2160808 43.390625 428.88671875 C42.59750966 432.92522911 41.80001175 436.96285038 41 441 C40.67 441 40.34 441 40 441 C39.97411098 434.05217306 39.95691427 427.10435903 39.94506836 420.15649414 C39.94011703 417.80525244 39.93335423 415.45401368 39.92456055 413.1027832 C39.83828926 389.3984775 40.71580595 365.88658286 42.61413574 342.25939941 C44.07677613 323.98426559 45.4131086 305.70145324 46.55328369 287.40332031 C46.68236401 285.33419042 46.81328379 283.26517429 46.94622803 281.19628906 C48.64787352 256.07947721 48.64787352 256.07947721 45.25 231.25 C42.97094558 221.07778243 41.15281375 210.96341204 39.8125 200.625 C37.45495933 182.59814864 33.73964512 165.88475173 27.21166992 148.88452148 C25.66024241 144.83397957 24.27777886 140.77245723 23 136.625 C20.28094236 128.3205448 16.68290123 120.99930898 8.75 116.8125 C-3.84762771 108.5095181 -6.85019508 96.00636009 -9.875 81.9375 C-12.50528877 67.03253028 -9.20431382 54.44559198 -2.5234375 41.08203125 C-0.61463788 37.22038279 0.15511547 34.38680349 0.1875 30.125 C0.20167969 29.28195312 0.21585937 28.43890625 0.23046875 27.5703125 C-0.29872426 21.66846508 -2.77210658 19.02573508 -7.125 15.1875 C-12.71079325 9.79515413 -12.71079325 9.79515413 -12.8125 5.5 C-11.24605543 -1.24776123 -5.8516403 -0.79566193 0 0 Z " fill="#EC7A00" transform="translate(491,355)"/>
<path d="M0 0 C8.91 0 17.82 0 27 0 C27 1.32 27 2.64 27 4 C24.69 4 22.38 4 20 4 C22.79623881 11.67109761 25.85882156 19.01976965 29.66796875 26.24609375 C31.05218008 29.10787964 32.05751253 31.96706639 33 35 C33.66 35 34.32 35 35 35 C37.46171509 29.69318796 39.88375654 24.39289811 42 18.9375 C44.01497573 13.7927054 46.45576183 8.90078665 49 4 C46.36 4 43.72 4 41 4 C41 2.68 41 1.36 41 0 C47.6 0 54.2 0 61 0 C61 1.32 61 2.64 61 4 C59.77925781 3.95359375 58.55851562 3.9071875 57.30078125 3.859375 C55.05560723 4.04348997 55.05560723 4.04348997 53 5 C50.68917306 8.12864727 49.49548661 11.60891343 48.1875 15.25 C47.45462978 17.1521255 46.71903356 19.05320337 45.98046875 20.953125 C45.64144531 21.84588135 45.30242188 22.7386377 44.953125 23.65844727 C43.88219093 26.28942286 42.50921734 28.59800621 41 31 C40.16619754 33.00381559 39.37682804 35.02650931 38.625 37.0625 C36.95174365 41.50441776 35.24736299 45.92427834 33.4375 50.3125 C33.06496094 51.21613281 32.69242188 52.11976563 32.30859375 53.05078125 C30.66353932 56.75829198 28.81393715 60.37212571 27 64 C135.57 64 244.14 64 356 64 C356 66.64 356 69.28 356 72 C245.78 72 135.56 72 22 72 C21.34 73.65 20.68 75.3 20 77 C17.06177589 79.50613233 14.64867756 80.21545113 10.875 80.375 C7 80 7 80 5 78.8125 C4 77 4 77 4 72 C-159.35 72 -322.7 72 -491 72 C-491 69.36 -491 66.72 -491 64 C-237.065 63.505 -237.065 63.505 22 63 C28.82098966 52.29887917 28.82098966 52.29887917 27 45 C25.98440136 42.52609651 25.98440136 42.52609651 24.6875 40.1875 C22.62212946 36.22887314 20.74957408 32.2414606 18.96875 28.1484375 C18.02572561 26.05705276 16.99850229 24.03358772 15.9375 22 C14.13114985 18.45105324 12.86067014 14.84647454 11.66015625 11.0546875 C10.88848319 8.65291219 9.97537014 6.32588264 9 4 C6.03 4 3.06 4 0 4 C0 2.68 0 1.36 0 0 Z " fill="#F07D00" transform="translate(1154,563)"/>
<path d="M0 0 C6.29472317 -0.05127681 12.58939126 -0.08597196 18.88427734 -0.10986328 C21.01971448 -0.11983745 23.15513827 -0.13342161 25.29052734 -0.15087891 C56.85599965 -0.4022199 56.85599965 -0.4022199 66.625 4.8125 C67.56601562 5.29332031 68.50703125 5.77414062 69.4765625 6.26953125 C73.4357104 8.98455063 76.23750124 12.52665289 78 17 C79.02988731 24.11558502 77.46801446 30.15383501 73.62890625 36.13671875 C69.14714356 41.95118785 64.03487246 44.22669882 57 46 C56.34 46 55.68 46 55 46 C55 46.66 55 47.32 55 48 C55.86625 48.0825 56.7325 48.165 57.625 48.25 C62.92584078 49.42796462 65.97690597 51.50725709 69.05078125 55.9921875 C71.56834847 60.5775007 72.2556272 65.38377513 73.0625 70.5 C74.19240385 77.47678619 75.25498426 83.8824764 79.25 89.875 C81.98396783 91.63255075 84.81710021 91.69972643 88 92 C88 93.32 88 94.64 88 96 C84.77113991 96.11667875 81.54282555 96.18740546 78.3125 96.25 C77.40048828 96.28351563 76.48847656 96.31703125 75.54882812 96.3515625 C71.36765795 96.41237952 68.70611423 96.38365844 64.98046875 94.359375 C59.77775392 88.16126897 59.78761139 78.87099424 58.67578125 71.1171875 C57.34155624 60.99060082 57.34155624 60.99060082 53 52 C43.45288615 47.96141396 43.45288615 47.96141396 26 48 C26 62.19 26 76.38 26 91 C29.3 91 32.6 91 36 91 C36 92.65 36 94.3 36 96 C25.44 96 14.88 96 4 96 C4 94.35 4 92.7 4 91 C7.3 91 10.6 91 14 91 C14 62.62 14 34.24 14 5 C9.38 5 4.76 5 0 5 C0 3.35 0 1.7 0 0 Z " fill="#FAFAFA" transform="translate(390,376)"/>
<path d="M0 0 C8.91 0 17.82 0 27 0 C27 1.32 27 2.64 27 4 C24.69 4 22.38 4 20 4 C22.79623881 11.67109761 25.85882156 19.01976965 29.66796875 26.24609375 C31.05218008 29.10787964 32.05751253 31.96706639 33 35 C33.66 35 34.32 35 35 35 C37.46171509 29.69318796 39.88375654 24.39289811 42 18.9375 C44.01497573 13.7927054 46.45576183 8.90078665 49 4 C46.36 4 43.72 4 41 4 C41 2.68 41 1.36 41 0 C47.6 0 54.2 0 61 0 C61 1.32 61 2.64 61 4 C59.77925781 3.95359375 58.55851562 3.9071875 57.30078125 3.859375 C55.05560723 4.04348997 55.05560723 4.04348997 53 5 C50.68917306 8.12864727 49.49548661 11.60891343 48.1875 15.25 C47.45462978 17.1521255 46.71903356 19.05320337 45.98046875 20.953125 C45.64144531 21.84588135 45.30242187 22.7386377 44.953125 23.65844727 C43.88219093 26.28942286 42.50921734 28.59800621 41 31 C40.16619754 33.00381559 39.37682804 35.02650931 38.625 37.0625 C36.95174365 41.50441776 35.24736299 45.92427834 33.4375 50.3125 C33.06496094 51.21613281 32.69242188 52.11976563 32.30859375 53.05078125 C30.66353932 56.75829198 28.81393715 60.37212571 27 64 C135.57 64 244.14 64 356 64 C356 66.64 356 69.28 356 72 C245.78 72 135.56 72 22 72 C21.34 73.65 20.68 75.3 20 77 C17.06177589 79.50613233 14.64867756 80.21545113 10.875 80.375 C7 80 7 80 5 78.9375 C3.43742297 75.91000701 3.6967136 73.33615038 4 70 C6 68 6 68 9 67.75 C12 68 12 68 14 70 C14.125 72.625 14.125 72.625 14 75 C14.66 75 15.32 75 16 75 C16.22300781 74.36964844 16.44601562 73.73929688 16.67578125 73.08984375 C17.80220175 70.46152926 19.03099164 68.06046318 20.41796875 65.56640625 C20.86720703 64.75236328 21.31644531 63.93832031 21.77929688 63.09960938 C22.71921988 61.4061836 23.6698036 59.71863187 24.63085938 58.03710938 C27.32527175 53.15366259 27.32527175 53.15366259 27.9453125 47.703125 C27.02044139 45.05845224 26.01023867 42.65688519 24.6875 40.1875 C22.62212946 36.22887314 20.74957408 32.2414606 18.96875 28.1484375 C18.02572561 26.05705276 16.99850229 24.03358772 15.9375 22 C14.13114985 18.45105324 12.86067014 14.84647454 11.66015625 11.0546875 C10.88848319 8.65291219 9.97537014 6.32588264 9 4 C6.03 4 3.06 4 0 4 C0 2.68 0 1.36 0 0 Z " fill="#F07D00" transform="translate(1154,563)"/>
<path d="M0 0 C1.010625 0.66 2.02125 1.32 3.0625 2 C8.9029889 7.0419234 12.71849678 16.5672813 14 24 C14.76562208 37.86441721 12.39897756 48.18140416 5 60 C-0.23652995 65.28555949 -5.87108648 68.10134198 -13.3125 68.5625 C-19.69131331 68.35220945 -24.17667771 66.10279084 -29 62 C-31.51433973 59.20989398 -33.29373848 56.3378741 -35 53 C-35.61875 51.85144531 -35.61875 51.85144531 -36.25 50.6796875 C-40.53575362 41.18555275 -40.57257926 28.87898309 -38.26953125 18.8046875 C-37.3449282 16.39694568 -36.26468108 14.24459954 -35 12 C-34.67257812 11.2265625 -34.34515625 10.453125 -34.0078125 9.65625 C-30.85030019 2.74198947 -25.68854141 -0.65074528 -19 -4 C-11.93953531 -6.34911372 -5.81131971 -4.01159659 0 0 Z " fill="#050708" transform="translate(615,399)"/>
<path d="M0 0 C8.19256306 3.82532127 13.52041923 8.93765009 16.8828125 17.3125 C17.181875 17.94414062 17.4809375 18.57578125 17.7890625 19.2265625 C22.57414975 30.70191063 20.62803423 44.54492541 16.4453125 55.8984375 C14.33809423 60.50270941 11.83472892 63.25571646 7.8828125 66.3125 C7.2228125 67.075625 6.5628125 67.83875 5.8828125 68.625 C2.22266178 71.71325217 -1.89632103 72.20151214 -6.5546875 72.625 C-15.52932002 71.83775153 -20.12305783 68.36561817 -25.90625 61.5859375 C-32.68858601 51.54424566 -33.51101809 38.11751151 -32.1171875 26.3125 C-29.926571 15.82799857 -25.6945756 8.79912704 -17.08203125 2.57421875 C-11.53695214 -0.98653781 -6.4331464 -2.08899219 0 0 Z " fill="#050608" transform="translate(525.1171875,393.6875)"/>
<path d="M0 0 C6.50044111 -0.23658451 12.80896943 0.52754867 18.56640625 3.66796875 C24.51476472 10.27725594 27.22136223 18.28844679 27.08203125 27.0546875 C26.53427167 33.47475196 25.20645976 39.56476057 20.7578125 44.41015625 C13.78869682 50.0747663 7.69117514 51.64271691 -1.2109375 51.48828125 C-5.5367255 51.0221648 -8.60758725 49.56864444 -12.18359375 47.16796875 C-13.09109375 46.59046875 -13.99859375 46.01296875 -14.93359375 45.41796875 C-21.36848349 38.98307901 -21.54358071 32.99601913 -21.5637207 24.4230957 C-21.41539673 17.26011306 -20.2999118 11.56939315 -15.05859375 6.35546875 C-10.1074882 1.70490954 -6.58530049 0.50656158 0 0 Z " fill="#050709" transform="translate(1418.18359375,561.83203125)"/>
<path d="M0 0 C1.19044922 -0.020625 2.38089844 -0.04125 3.60742188 -0.0625 C4.77982422 -0.06765625 5.95222656 -0.0728125 7.16015625 -0.078125 C8.74969116 -0.09214355 8.74969116 -0.09214355 10.37133789 -0.10644531 C13.9375 0.25 13.9375 0.25 23.9375 3.25 C23.9375 11.17 23.9375 19.09 23.9375 27.25 C22.9475 27.25 21.9575 27.25 20.9375 27.25 C20.76734375 26.6209375 20.5971875 25.991875 20.421875 25.34375 C18.04855321 15.5974111 18.04855321 15.5974111 12.171875 7.8671875 C5.55657021 4.36352607 -1.77068244 4.29231889 -9.0625 5.25 C-12.6198406 6.36044057 -15.33385466 7.69635091 -18.0625 10.25 C-21.18970511 16.62949842 -20.77372992 24.20187175 -19.1875 31 C-14.71262879 37.84392067 -5.71920035 41.5661962 1.9453125 43.84765625 C12.28966602 46.943547 21.01439394 51.72337811 26.65625 61.109375 C29.33184472 67.66784499 29.02558695 75.44169569 27.09375 82.203125 C23.92539518 89.18206872 19.31374129 94.58738459 12.05859375 97.34375 C-1.24888509 100.8706401 -16.16011197 100.20688727 -29.41015625 96.61328125 C-31.0625 95.25 -31.0625 95.25 -31.671875 92.16015625 C-31.71828125 90.89042969 -31.7646875 89.62070312 -31.8125 88.3125 C-31.84142334 87.64532959 -31.87034668 86.97815918 -31.90014648 86.29077148 C-32.12358442 80.61381792 -32.16878082 74.93011963 -32.0625 69.25 C-30.7425 69.25 -29.4225 69.25 -28.0625 69.25 C-27.97613281 69.86746094 -27.88976562 70.48492187 -27.80078125 71.12109375 C-26.47416877 79.11728088 -24.18197435 86.27363309 -17.4375 91.25 C-10.70998167 95.23667753 -3.65271683 94.9632788 3.9375 94.25 C8.31276698 92.68029244 11.66274602 90.52475398 14.9375 87.25 C17.33330825 80.18867042 17.34019698 73.783354 15.12890625 66.63671875 C10.82311707 58.01102305 -2.42014964 55.21395647 -10.80078125 52.296875 C-18.44468092 49.49133795 -25.6818773 45.63100882 -29.625 38.1875 C-32.71291067 29.84871818 -32.36072413 19.59778296 -28.671875 11.51171875 C-21.25408006 1.08719625 -11.7335835 0.04969225 0 0 Z " fill="#F7F7F7" transform="translate(790.0625,374.75)"/>
<path d="M0 0 C25.41 0 50.82 0 77 0 C77.62215415 3.7329249 78.13838491 7.02917097 78.31640625 10.7421875 C78.35830078 11.58007812 78.40019531 12.41796875 78.44335938 13.28125 C78.48267578 14.1371875 78.52199219 14.993125 78.5625 15.875 C78.60568359 16.75414062 78.64886719 17.63328125 78.69335938 18.5390625 C78.79869339 20.69255797 78.89977649 22.84626064 79 25 C77.35 25 75.7 25 74 25 C73.75765625 24.10796875 73.5153125 23.2159375 73.265625 22.296875 C72.93046875 21.12640625 72.5953125 19.9559375 72.25 18.75 C71.92515625 17.58984375 71.6003125 16.4296875 71.265625 15.234375 C69.93611557 11.83673979 68.86853008 10.21421209 66 8 C59.18480308 5.49368664 51.02132446 5.58511037 44 5 C44 33.38 44 61.76 44 91 C47.3 91 50.6 91 54 91 C54 92.65 54 94.3 54 96 C43.44 96 32.88 96 22 96 C22 94.35 22 92.7 22 91 C25.63 91.33 29.26 91.66 33 92 C33 63.29 33 34.58 33 5 C20.75726744 4.94958374 20.75726744 4.94958374 9 9 C5.50848153 13.77342864 3.46686102 19.08642713 3 25 C1.68 25 0.36 25 -1 25 C-0.67 16.75 -0.34 8.5 0 0 Z " fill="#FBFBFB" transform="translate(647,376)"/>
<path d="M0 0 C4.17668752 0.29833482 6.870351 1.15597173 10.5 3.25 C12.3125 6.375 12.3125 6.375 13.5 9.25 C14.16 9.58 14.82 9.91 15.5 10.25 C15.5928125 9.4146875 15.5928125 9.4146875 15.6875 8.5625 C16.8608937 5.222841 18.84446814 3.53499253 21.5 1.25 C25.77326647 -0.18616997 30.05135157 0.1182456 34.5 0.25 C35.5725 0.229375 36.645 0.20875 37.75 0.1875 C41.56524417 1.66157161 42.57278775 3.56598865 44.46142578 7.11889648 C46.76315725 14.05817858 45.99929 21.58689873 45.8125 28.8125 C45.78738127 30.50582638 45.76457442 32.19918873 45.74414062 33.89257812 C45.68943743 38.01261695 45.60336695 42.13090655 45.5 46.25 C48.14 46.25 50.78 46.25 53.5 46.25 C53.5 47.24 53.5 48.23 53.5 49.25 C45.25 49.25 37 49.25 28.5 49.25 C28.5 48.26 28.5 47.27 28.5 46.25 C31.14 46.25 33.78 46.25 36.5 46.25 C36.45571352 41.37466914 36.38574282 36.50061699 36.29248047 31.62597656 C36.26434438 29.96950486 36.2430933 28.31290073 36.22900391 26.65625 C36.20747109 24.26754324 36.16077245 21.88041614 36.109375 19.4921875 C36.10814636 18.75757294 36.10691772 18.02295837 36.10565186 17.26608276 C35.96225234 12.17349569 34.85188102 9.09419318 31.5 5.25 C27.55773887 4.55056657 25.218234 4.28914546 21.71875 6.24609375 C18.78771422 8.55212925 16.80285264 10.78802897 15.5 14.25 C15.26536081 16.74587111 15.12842258 19.14211723 15.0859375 21.640625 C15.06657135 22.34523865 15.0472052 23.04985229 15.0272522 23.77581787 C14.96767265 26.01709039 14.92115877 28.25841489 14.875 30.5 C14.83680021 32.02345938 14.79774731 33.54689762 14.7578125 35.0703125 C14.66198982 38.79668106 14.57787893 42.52320835 14.5 46.25 C16.81 46.25 19.12 46.25 21.5 46.25 C21.5 47.24 21.5 48.23 21.5 49.25 C13.58 49.25 5.66 49.25 -2.5 49.25 C-2.5 48.26 -2.5 47.27 -2.5 46.25 C-0.19 46.25 2.12 46.25 4.5 46.25 C4.45584362 41.05325096 4.38600826 35.85771654 4.29248047 30.66162109 C4.26427603 28.89446689 4.24305882 27.12718666 4.22900391 25.35986328 C4.20756642 22.81737778 4.16091497 20.27640662 4.109375 17.734375 C4.10814636 16.94569031 4.10691772 16.15700562 4.10565186 15.34442139 C4.01122581 11.7985738 3.79006704 9.64967906 1.68066406 6.74316406 C-1.47712053 4.58093718 -3.75843865 4.84911843 -7.5 5.25 C-10.93946469 6.13443378 -11.579314 7.36663824 -13.625 10.375 C-17.94493897 17.83671277 -17.88496405 26.38874787 -18.125 34.75 C-18.16367187 35.85859375 -18.20234375 36.9671875 -18.2421875 38.109375 C-18.33575243 40.82275797 -18.42149483 43.53614661 -18.5 46.25 C-15.86 46.25 -13.22 46.25 -10.5 46.25 C-10.5 47.24 -10.5 48.23 -10.5 49.25 C-18.75 49.25 -27 49.25 -35.5 49.25 C-35.5 48.26 -35.5 47.27 -35.5 46.25 C-32.86 46.25 -30.22 46.25 -27.5 46.25 C-27.5 32.72 -27.5 19.19 -27.5 5.25 C-30.47 5.25 -33.44 5.25 -36.5 5.25 C-36.5 3.93 -36.5 2.61 -36.5 1.25 C-30.23 1.25 -23.96 1.25 -17.5 1.25 C-17.17 3.56 -16.84 5.87 -16.5 8.25 C-15.97212891 7.50943359 -15.97212891 7.50943359 -15.43359375 6.75390625 C-12.78441987 3.31620542 -11.353263 1.48270809 -7.0625 0.3125 C-4.70639245 0.27116478 -2.35048161 0.16789154 0 0 Z " fill="#F8F8F8" transform="translate(1038.5,561.75)"/>
<path d="M0 0 C5.94 0 11.88 0 18 0 C18.33 13.86 18.66 27.72 19 42 C20.98 39.69 22.96 37.38 25 35 C27.25 34.0625 27.25 34.0625 30 34 C30.75539063 33.95230469 31.51078125 33.90460937 32.2890625 33.85546875 C37.83533709 33.62926118 42.23754403 33.85677906 47 37 C52.72162844 44.58431782 51.44681593 54.5990198 51.25 63.5625 C51.22990197 65.15948278 51.21165705 66.75649002 51.1953125 68.35351562 C51.15158265 72.23628881 51.0827407 76.11787022 51 80 C53.64 80 56.28 80 59 80 C59 80.99 59 81.98 59 83 C50.75 83 42.5 83 34 83 C34 82.01 34 81.02 34 80 C36.31 80 38.62 80 41 80 C40.88177165 74.7854073 40.75752459 69.571006 40.62768555 64.35668945 C40.58436066 62.58264063 40.54268381 60.80855077 40.50268555 59.03442383 C40.4449238 56.48506295 40.38124638 53.9359082 40.31640625 51.38671875 C40.29969376 50.59287277 40.28298126 49.79902679 40.26576233 48.98112488 C40.17882282 45.75316923 40.02749634 43.08248901 39 40 C37.29887008 39.19530151 37.29887008 39.19530151 35 39 C33.906875 38.855625 32.81375 38.71125 31.6875 38.5625 C27.34845253 39.07730224 25.69575924 40.32037302 22.48046875 43.1015625 C19.0594789 47.48837271 18.72908728 52.53771232 18.5859375 57.9296875 C18.54726563 59.21875 18.50859375 60.5078125 18.46875 61.8359375 C18.43730242 63.18228707 18.40605489 64.52864132 18.375 65.875 C18.33676959 67.24481514 18.29771499 68.61460755 18.2578125 69.984375 C18.16377285 73.32278263 18.07811943 76.66118814 18 80 C20.31 80 22.62 80 25 80 C25 80.99 25 81.98 25 83 C16.75 83 8.5 83 0 83 C0 82.01 0 81.02 0 80 C2.64 80 5.28 80 8 80 C8 55.25 8 30.5 8 5 C5.36 5 2.72 5 0 5 C0 3.35 0 1.7 0 0 Z " fill="#F8F8F8" transform="translate(737,528)"/>
<path d="M0 0 C20.46 0 40.92 0 62 0 C63.125 7.875 63.125 7.875 63.09765625 11.40234375 C63.09443359 12.14677734 63.09121094 12.89121094 63.08789062 13.65820312 C63.07532227 14.78645508 63.07532227 14.78645508 63.0625 15.9375 C63.05798828 16.71673828 63.05347656 17.49597656 63.04882812 18.29882812 C63.03716908 20.19925268 63.01923877 22.09963706 63 24 C62.34 24 61.68 24 61 24 C60.82984375 23.34773437 60.6596875 22.69546875 60.484375 22.0234375 C59.02487168 16.75990958 57.66585987 12.18955413 54 8 C49.77849177 6.25267449 46.05331376 5.71580896 41.5078125 5.5859375 C40.4264502 5.55032715 39.34508789 5.5147168 38.23095703 5.47802734 C36.87599121 5.44402832 35.52102539 5.4100293 34.125 5.375 C29.79375 5.25125 25.4625 5.1275 21 5 C21 16.88 21 28.76 21 41 C31.88610771 40.68318555 31.88610771 40.68318555 41 37 C43.49928023 33.81909789 43.54583287 29.93611516 44 26 C44.99 26 45.98 26 47 26 C47 37.22 47 48.44 47 60 C46.01 60 45.02 60 44 60 C43.91363281 59.33613281 43.82726562 58.67226563 43.73828125 57.98828125 C43.59777344 57.10527344 43.45726562 56.22226562 43.3125 55.3125 C43.18488281 54.44238281 43.05726563 53.57226562 42.92578125 52.67578125 C41.94834877 49.21994999 41.94834877 49.21994999 37 45 C31.72 44.67 26.44 44.34 21 44 C21 55.88 21 67.76 21 80 C24.96 80 28.92 80 33 80 C33 80.99 33 81.98 33 83 C22.11 83 11.22 83 0 83 C0 82.01 0 81.02 0 80 C3.63 80 7.26 80 11 80 C11 55.25 11 30.5 11 5 C7.37 5 3.74 5 0 5 C0 3.35 0 1.7 0 0 Z " fill="#F6F5F6" transform="translate(886,528)"/>
<path d="M0 0 C0.92192139 0.0103125 1.84384277 0.020625 2.79370117 0.03125 C9.49954719 0.19208151 15.34276078 1.16475759 21.6875 3.4375 C21.6875 10.3675 21.6875 17.2975 21.6875 24.4375 C20.6975 24.4375 19.7075 24.4375 18.6875 24.4375 C18.40777344 23.40109375 18.12804688 22.3646875 17.83984375 21.296875 C15.83364624 12.85185043 15.83364624 12.85185043 10.5 6.5625 C3.23866175 4.41981002 -3.12079178 3.47620838 -10.3125 6.4375 C-13.78338239 8.7514216 -15.72848912 10.60543874 -17.3125 14.4375 C-18.25889446 19.78826869 -17.95820818 24.2517433 -14.875 28.8125 C-11.26136016 32.99363986 -7.39717966 34.54127969 -2.3125 36.4375 C0.40939184 37.55230218 3.11079883 38.71229362 5.8125 39.875 C6.4813623 40.15158447 7.15022461 40.42816895 7.83935547 40.71313477 C14.33684646 43.48621972 20.6060086 46.7609353 23.6875 53.4375 C25.83656293 60.52032713 25.42518508 68.54764739 22.7890625 75.43359375 C19.70327746 81.04709633 14.51780624 83.98706668 8.578125 85.9140625 C-3.46873202 89.24934936 -14.63572171 86.97462627 -26.3125 83.4375 C-27.3125 82.4375 -27.3125 82.4375 -27.42602539 80.39624023 C-27.42078857 79.52169189 -27.41555176 78.64714355 -27.41015625 77.74609375 C-27.40693359 76.80185547 -27.40371094 75.85761719 -27.40039062 74.88476562 C-27.39201172 73.89154297 -27.38363281 72.89832031 -27.375 71.875 C-27.37048828 70.87791016 -27.36597656 69.88082031 -27.36132812 68.85351562 C-27.34950007 66.38145151 -27.33301849 63.90950482 -27.3125 61.4375 C-25.9925 61.4375 -24.6725 61.4375 -23.3125 61.4375 C-23.14234375 62.16195312 -22.9721875 62.88640625 -22.796875 63.6328125 C-21.07927482 70.48494088 -19.37113866 75.37886134 -14.3125 80.4375 C-5.54047543 83.15985245 2.27802318 83.47952959 10.6875 79.4375 C14.59175521 75.53324479 14.88385881 71.40499457 15 66.0625 C15.05607422 64.38027344 15.05607422 64.38027344 15.11328125 62.6640625 C14.57611921 58.59345842 13.69431014 57.22987097 10.6875 54.4375 C7.91000794 52.83219073 5.02507194 51.59752815 2.0625 50.375 C1.25578857 50.02703369 0.44907715 49.67906738 -0.38208008 49.32055664 C-4.54626304 47.53698416 -8.73534623 45.90421124 -13 44.375 C-18.58090371 42.19661617 -22.78222424 38.48269758 -25.48046875 33.11328125 C-27.34448958 27.11866028 -27.44848723 19.40112949 -25.125 13.5 C-18.86099456 2.91599082 -11.98629764 -0.29502063 0 0 Z " fill="#F4F4F4" transform="translate(1276.3125,526.5625)"/>
<path d="M0 0 C21.78 0 43.56 0 66 0 C66.60318549 8.44459688 67.15462012 16.58179341 67 25 C66.01 25 65.02 25 64 25 C63.81824219 24.10796875 63.63648438 23.2159375 63.44921875 22.296875 C63.19785156 21.12640625 62.94648437 19.9559375 62.6875 18.75 C62.44386719 17.58984375 62.20023438 16.4296875 61.94921875 15.234375 C61.00854462 12.029115 60.39041706 10.30071046 58 8 C50.83217969 5.33535628 50.83217969 5.33535628 38 5 C38 29.75 38 54.5 38 80 C41.96 80 45.92 80 50 80 C50 80.99 50 81.98 50 83 C38.45 83 26.9 83 15 83 C15 82.01 15 81.02 15 80 C18.96 80 22.92 80 27 80 C27 55.25 27 30.5 27 5 C13.97712125 5.03349964 13.97712125 5.03349964 7 9 C3.36847812 14.04378039 2.04720897 18.92343218 1 25 C0.01 24.67 -0.98 24.34 -2 24 C-1.85790331 21.3122562 -1.7114277 18.62486698 -1.5625 15.9375 C-1.52318359 15.18533203 -1.48386719 14.43316406 -1.44335938 13.65820312 C-1.40146484 12.91376953 -1.35957031 12.16933594 -1.31640625 11.40234375 C-1.27974854 10.72679443 -1.24309082 10.05124512 -1.20532227 9.35522461 C-0.93225629 6.22292081 -0.44465475 3.11258322 0 0 Z " fill="#EFEEEF" transform="translate(664,528)"/>
<path d="M0 0 C6.69454393 7.52641034 5.78112261 16.48599634 5.8125 26 C5.83567005 27.64977226 5.86104057 29.29951517 5.88867188 30.94921875 C5.95119976 34.9662554 5.98379023 38.98252032 6 43 C8.31 43.33 10.62 43.66 13 44 C13 45.32 13 46.64 13 48 C10.91781638 48.10832169 8.83400871 48.18573541 6.75 48.25 C5.58984375 48.29640625 4.4296875 48.3428125 3.234375 48.390625 C0 48 0 48 -2.421875 46.109375 C-4 44 -4 44 -4 42 C-4.86625 42.598125 -5.7325 43.19625 -6.625 43.8125 C-13.12091871 48.05750734 -18.13989151 50.16304044 -26 49 C-29.84724728 47.04140138 -33.08727899 44.9317043 -35 41 C-35.83216217 36.16421316 -35.56112699 32.95934615 -33.0625 28.6875 C-26.94306045 22.48211327 -17.25316943 20.33499122 -8.8125 19.8828125 C-7.20787085 19.87634222 -5.60312767 19.9302988 -4 20 C-4.0015286 11.46368272 -4.0015286 11.46368272 -7 3.6875 C-12.20486261 0.75976478 -17.38541005 1.44675743 -23 3 C-22.649375 3.515625 -22.29875 4.03125 -21.9375 4.5625 C-20.62896477 7.96469159 -21.270525 10.48525684 -22 14 C-23 15 -23 15 -26.5625 15.0625 C-27.696875 15.041875 -28.83125 15.02125 -30 15 C-31.58966836 12.56874251 -31.99877175 11.05649951 -32.0625 8.125 C-30.58442809 3.77772968 -27.90175529 1.35795054 -24 -1 C-16.75149629 -3.00948618 -6.77930377 -3.32047532 0 0 Z " fill="#F4F4F4" transform="translate(1346,564)"/>
<path d="M0 0 C4.75271215 5.00285489 5.17674417 8.6119611 5.31640625 15.2890625 C5.33718735 16.10748627 5.35796844 16.92591003 5.37937927 17.76913452 C5.44484812 20.38766966 5.50374726 23.00630639 5.5625 25.625 C5.60568776 27.39844807 5.64930214 29.17188581 5.69335938 30.9453125 C5.80052676 35.29677046 5.90180169 39.64833077 6 44 C8.31 44 10.62 44 13 44 C13 45.32 13 46.64 13 48 C10.89646505 48.0810206 8.79204048 48.13919907 6.6875 48.1875 C5.51574219 48.22230469 4.34398437 48.25710938 3.13671875 48.29296875 C0 48 0 48 -1.85546875 46.61328125 C-3 45 -3 45 -4 43 C-7.43998071 44.20864187 -9.49924271 45.38557192 -12 48 C-17.45253147 49.81751049 -23.7073646 50.00302799 -29 47.6875 C-34.36510211 43.16069509 -34.36510211 43.16069509 -34.875 38.6875 C-35.22926957 34.32998434 -34.46416845 31.69625267 -32 28 C-27.60193409 22.85360646 -20.64287253 21.32834058 -14.1640625 20.5234375 C-10.77462913 20.28280836 -7.3963063 20.09916223 -4 20 C-4.0015286 11.46368272 -4.0015286 11.46368272 -7 3.6875 C-12.20486261 0.75976478 -17.38541005 1.44675743 -23 3 C-22.67 3.53625 -22.34 4.0725 -22 4.625 C-20.75035402 7.5929092 -20.72243416 9.80799279 -21 13 C-23 15 -23 15 -26 15.25 C-29 15 -29 15 -31 13 C-31.30661482 8.86069999 -31.55747038 5.4099605 -29 2 C-21.0742353 -3.63146439 -8.78846383 -3.92676043 0 0 Z " fill="#F5F5F6" transform="translate(985,564)"/>
<path d="M0 0 C28.20706873 -0.53898857 28.20706873 -0.53898857 34.7421875 5.55859375 C37.77584182 9.44656654 37.74398597 13.15823034 37.625 17.9375 C37.64433594 18.71029297 37.66367187 19.48308594 37.68359375 20.27929688 C37.64176496 25.22764314 36.75568499 28.64419955 33.57373047 32.49536133 C28.07128395 37.75623286 22.50196534 38.43806918 15.07617188 38.36035156 C13.89603516 38.32393555 12.71589844 38.28751953 11.5 38.25 C5.8075 38.12625 5.8075 38.12625 0 38 C0 25.46 0 12.92 0 0 Z " fill="#07090B" transform="translate(416,381)"/>
<path d="M0 0 C4.60727103 3.90853799 7.23450253 9.61415806 8.6484375 15.3984375 C8.6484375 17.0484375 8.6484375 18.6984375 8.6484375 20.3984375 C-2.5715625 20.3984375 -13.7915625 20.3984375 -25.3515625 20.3984375 C-24.949375 24.7296875 -24.949375 24.7296875 -24.5390625 29.1484375 C-24.46196045 30.05174805 -24.3848584 30.95505859 -24.30541992 31.88574219 C-23.77573718 37.76710101 -23.77573718 37.76710101 -20.3515625 42.3984375 C-15.49211333 44.27662951 -9.4982315 43.97088257 -4.5390625 42.6484375 C-0.62254176 40.41042565 1.26828007 38.38684682 2.8984375 34.1484375 C3.1459375 33.2409375 3.3934375 32.3334375 3.6484375 31.3984375 C4.9684375 31.7284375 6.2884375 32.0584375 7.6484375 32.3984375 C5.92545626 38.42887185 3.74977879 43.46179345 -1.7890625 46.7734375 C-8.42564124 49.68465048 -15.62414821 49.59871179 -22.45703125 47.3984375 C-28.77343018 44.3979349 -31.84288453 41.09241325 -34.546875 34.66796875 C-37.5605785 26.16815452 -37.60852495 16.99637127 -33.82421875 8.6953125 C-30.91643119 4.16008946 -26.6098022 -0.40328426 -21.4609375 -2.296875 C-14.2388284 -3.34006854 -6.45094148 -3.83790189 0 0 Z " fill="#F4F4F4" transform="translate(838.3515625,564.6015625)"/>
<path d="M0 0 C4.06667101 5.28667231 4.14380443 10.3630571 4.09765625 16.828125 C4.0962413 17.57713074 4.09482635 18.32613647 4.09336853 19.09783936 C4.08778659 21.48193412 4.07523745 23.86593378 4.0625 26.25 C4.05748266 27.86979031 4.05292016 29.48958209 4.04882812 31.109375 C4.03782308 35.07295312 4.02057091 39.03646045 4 43 C6.64 43 9.28 43 12 43 C12 43.99 12 44.98 12 46 C3.75 46 -4.5 46 -13 46 C-13 45.01 -13 44.02 -13 43 C-10.69 43 -8.38 43 -6 43 C-6.11822835 37.7854073 -6.24247541 32.571006 -6.37231445 27.35668945 C-6.41563934 25.58264063 -6.45731619 23.80855077 -6.49731445 22.03442383 C-6.5550762 19.48506295 -6.61875362 16.9359082 -6.68359375 14.38671875 C-6.70030624 13.59287277 -6.71701874 12.79902679 -6.73423767 11.98112488 C-6.82117718 8.75316923 -6.97250366 6.08248901 -8 3 C-11.51431616 1.51317393 -15.26201856 1.61331226 -19 2 C-24.32749453 5.27845817 -26.54684895 8.89699607 -28 15 C-28.48780499 19.83049435 -28.60120309 24.64764793 -28.6875 29.5 C-28.72166016 30.799375 -28.75582031 32.09875 -28.79101562 33.4375 C-28.87304465 36.62491371 -28.94234455 39.81206783 -29 43 C-26.69 43 -24.38 43 -22 43 C-22 43.99 -22 44.98 -22 46 C-30.25 46 -38.5 46 -47 46 C-47 45.01 -47 44.02 -47 43 C-44.36 43 -41.72 43 -39 43 C-39 29.47 -39 15.94 -39 2 C-41.64 2 -44.28 2 -47 2 C-47 0.68 -47 -0.64 -47 -2 C-41.06 -2 -35.12 -2 -29 -2 C-29 0.64 -29 3.28 -29 6 C-28.34 6 -27.68 6 -27 6 C-26.7525 5.4225 -26.505 4.845 -26.25 4.25 C-24.52982517 1.1536853 -22.63362963 -1.46706752 -19.16796875 -2.59765625 C-12.29903316 -3.87243168 -6.05185119 -3.58170785 0 0 Z " fill="#F9F9F9" transform="translate(1499,565)"/>
<path d="M0 0 C8.91 0 17.82 0 27 0 C27 1.32 27 2.64 27 4 C24.69 4 22.38 4 20 4 C22.79623881 11.67109761 25.85882156 19.01976965 29.66796875 26.24609375 C31.05218008 29.10787964 32.05751253 31.96706639 33 35 C33.66 35 34.32 35 35 35 C37.46171509 29.69318796 39.88375654 24.39289811 42 18.9375 C44.01497573 13.7927054 46.45576183 8.90078665 49 4 C46.36 4 43.72 4 41 4 C41 2.68 41 1.36 41 0 C47.6 0 54.2 0 61 0 C61 1.32 61 2.64 61 4 C59.77925781 3.95359375 58.55851562 3.9071875 57.30078125 3.859375 C55.05560723 4.04348997 55.05560723 4.04348997 53 5 C50.68917306 8.12864727 49.49548661 11.60891343 48.1875 15.25 C47.45462978 17.1521255 46.71903356 19.05320337 45.98046875 20.953125 C45.64144531 21.84588135 45.30242187 22.7386377 44.953125 23.65844727 C43.88219093 26.28942286 42.50921734 28.59800621 41 31 C40.16619754 33.00381559 39.37682804 35.02650931 38.625 37.0625 C35.11962332 46.34082641 31.38243442 55.41315027 27 64.3125 C26.67990967 64.97032471 26.35981934 65.62814941 26.0300293 66.3059082 C20.00955355 78.33014882 20.00955355 78.33014882 15 80 C11.46351041 80.37076101 8.18934975 80.63184205 5 78.9375 C3.43742297 75.91000701 3.6967136 73.33615038 4 70 C6 68 6 68 9 67.75 C12 68 12 68 14 70 C14.125 72.625 14.125 72.625 14 75 C14.66 75 15.32 75 16 75 C16.22300781 74.36964844 16.44601562 73.73929688 16.67578125 73.08984375 C17.80220175 70.46152926 19.03099164 68.06046318 20.41796875 65.56640625 C20.86720703 64.75236328 21.31644531 63.93832031 21.77929688 63.09960938 C22.71921988 61.4061836 23.6698036 59.71863187 24.63085938 58.03710938 C27.32527175 53.15366259 27.32527175 53.15366259 27.9453125 47.703125 C27.02044139 45.05845224 26.01023867 42.65688519 24.6875 40.1875 C22.62212946 36.22887314 20.74957408 32.2414606 18.96875 28.1484375 C18.02572561 26.05705276 16.99850229 24.03358772 15.9375 22 C14.13114985 18.45105324 12.86067014 14.84647454 11.66015625 11.0546875 C10.88848319 8.65291219 9.97537014 6.32588264 9 4 C6.03 4 3.06 4 0 4 C0 2.68 0 1.36 0 0 Z " fill="#F6F5F4" transform="translate(1154,563)"/>
<path d="M0 0 C7.22997554 6.71354871 7.22997554 6.71354871 8.07421875 12.53515625 C8.30126908 19.35449542 7.87794695 24.03510792 3.625 29.4375 C-1.54486463 34.11499657 -4.770009 34.79031363 -11.61328125 34.71875 C-16.73955419 34.19669674 -19.36032946 31.56186465 -22.6875 27.875 C-26.48789493 22.38554066 -26.179134 15.86298581 -25.375 9.4375 C-23.43649003 5.22872165 -20.56176311 2.52254056 -17.1875 -0.5625 C-11.41505664 -2.61492431 -5.55547042 -2.57197705 0 0 Z " fill="#0B0D0F" transform="translate(866.375,317.5625)"/>
<path d="M0 0 C6.50044111 -0.23658451 12.80896943 0.52754867 18.56640625 3.66796875 C24.51476472 10.27725594 27.22136223 18.28844679 27.08203125 27.0546875 C26.53427167 33.47475196 25.20645976 39.56476057 20.7578125 44.41015625 C13.78869682 50.0747663 7.69117514 51.64271691 -1.2109375 51.48828125 C-5.5367255 51.0221648 -8.60758725 49.56864444 -12.18359375 47.16796875 C-13.09109375 46.59046875 -13.99859375 46.01296875 -14.93359375 45.41796875 C-21.36848349 38.98307901 -21.54358071 32.99601913 -21.5637207 24.4230957 C-21.41539673 17.26011306 -20.2999118 11.56939315 -15.05859375 6.35546875 C-10.1074882 1.70490954 -6.58530049 0.50656158 0 0 Z M-9.18359375 9.16796875 C-11.71941081 14.59813294 -11.55113509 19.58440145 -11.55859375 25.48046875 C-11.58308594 26.48787109 -11.60757812 27.49527344 -11.6328125 28.53320312 C-11.65889229 35.20528201 -10.74991031 39.49218583 -7.18359375 45.16796875 C-3.10081131 47.967591 2.02341716 47.58626598 6.81640625 47.16796875 C10.8411392 46.11803841 12.70554321 44.75643592 14.81640625 41.16796875 C16.53932132 35.74431009 16.12372179 29.92308544 16.19140625 24.29296875 C16.22878906 23.12121094 16.26617188 21.94945312 16.3046875 20.7421875 C16.53899568 13.64840111 16.53899568 13.64840111 13.54296875 7.47265625 C9.07233726 3.69375571 5.95124984 2.59401583 0.13671875 2.71875 C-3.93930277 3.50787875 -6.66676538 5.95395801 -9.18359375 9.16796875 Z " fill="#F4F4F4" transform="translate(1418.18359375,561.83203125)"/>
<path d="M0 0 C5.94 0 11.88 0 18 0 C18 26.4 18 52.8 18 80 C20.64 80 23.28 80 26 80 C26 80.99 26 81.98 26 83 C17.42 83 8.84 83 0 83 C0 82.01 0 81.02 0 80 C2.97 80 5.94 80 9 80 C9 55.25 9 30.5 9 5 C6.03 5 3.06 5 0 5 C0 3.35 0 1.7 0 0 Z " fill="#F8F8F8" transform="translate(1363,528)"/>
<path d="M0 0 C5.94 0 11.88 0 18 0 C18 26.4 18 52.8 18 80 C20.97 80 23.94 80 27 80 C27 80.99 27 81.98 27 83 C18.09 83 9.18 83 0 83 C0 82.01 0 81.02 0 80 C2.97 80 5.94 80 9 80 C9 54.92 9 29.84 9 4 C4.545 4.495 4.545 4.495 0 5 C0 3.35 0 1.7 0 0 Z " fill="#FCFCFC" transform="translate(1128,528)"/>
<path d="M0 0 C5.94 0 11.88 0 18 0 C18 14.85 18 29.7 18 45 C20.64 45 23.28 45 26 45 C26 45.99 26 46.98 26 48 C17.42 48 8.84 48 0 48 C0 47.01 0 46.02 0 45 C2.97 45 5.94 45 9 45 C9 31.47 9 17.94 9 4 C6.03 4 3.06 4 0 4 C0 2.68 0 1.36 0 0 Z " fill="#F4F4F4" transform="translate(1097,563)"/>
<path d="M0 0 C5.61 0 11.22 0 17 0 C17 2.64 17 5.28 17 8 C17.99 8 18.98 8 20 8 C19.1070704 14.50562995 19.1070704 14.50562995 18.48461914 17.37963867 C17.96439428 20.19252201 17.79057678 22.88030592 17.68359375 25.73828125 C17.64169922 26.80498047 17.59980469 27.87167969 17.55664062 28.97070312 C17.51732422 30.07349609 17.47800781 31.17628906 17.4375 32.3125 C17.39431641 33.43462891 17.35113281 34.55675781 17.30664062 35.71289062 C17.20085213 38.47514569 17.09876328 41.2374863 17 44 C19.64 44 22.28 44 25 44 C25 44.99 25 45.98 25 47 C16.75 47 8.5 47 0 47 C0 46.01 0 45.02 0 44 C2.64 44 5.28 44 8 44 C8 30.47 8 16.94 8 3 C5.36 3 2.72 3 0 3 C0 2.01 0 1.02 0 0 Z " fill="#FEFEFE" transform="translate(1003,564)"/>
<path d="M0 0 C0.33 0 0.66 0 1 0 C0.97381592 0.7120459 0.94763184 1.4240918 0.9206543 2.15771484 C0.49449137 15.65035665 0.61069189 28.71012439 3.1875 42 C3.3836792 43.02915527 3.5798584 44.05831055 3.78198242 45.11865234 C7.38226672 62.13742426 16.06715524 82.06198945 29 94 C30.2065625 95.2375 30.2065625 95.2375 31.4375 96.5 C33.29737674 98.31451389 35.12802824 99.97811465 37.125 101.625 C40 104 40 104 41.421875 105.44921875 C53.94215717 117.75256534 73.04510176 124.30623112 90 127 C89.34 128.32 88.68 129.64 88 131 C65.4623168 124.99389094 65.4623168 124.99389094 57 120 C55.84177734 119.38318359 55.84177734 119.38318359 54.66015625 118.75390625 C41.99453746 111.98907491 41.99453746 111.98907491 40 108 C39.2575 107.5875 38.515 107.175 37.75 106.75 C35.04713941 105.02999781 33.34696971 103.23211041 31.40625 100.6953125 C29.90877313 98.83379538 29.90877313 98.83379538 27.6484375 96.671875 C18.54973454 87.49265255 13.06780426 77.73526027 8 66 C7.50773926 65.0704248 7.01547852 64.14084961 6.50830078 63.18310547 C3.92956893 57.74097114 2.9993146 51.93930635 1.8125 46.0625 C1.6782663 45.40192596 1.54403259 44.74135193 1.4057312 44.0607605 C-1.51951665 29.42126383 -2.43446513 14.78786672 0 0 Z " fill="#C36A04" transform="translate(306,383)"/>
<path d="M0 0 C2.84104967 1.34144245 5.32930151 2.86084313 7.86328125 4.71484375 C8.58580078 5.23626953 9.30832031 5.75769531 10.05273438 6.29492188 C11.54972247 7.38305238 13.04454844 8.47416414 14.53710938 9.56835938 C18.89079807 12.70131548 22.99298658 14.99610259 28 17 C29.58023948 17.82289913 31.15678122 18.65292064 32.73046875 19.48828125 C38.0912814 22.19249765 43.4978506 23.76145809 49.3125 25.1875 C50.32723389 25.44160645 51.34196777 25.69571289 52.38745117 25.95751953 C73.93544559 31.25267225 92.41515251 30.63823617 114 26 C115.14227051 25.76772705 115.14227051 25.76772705 116.30761719 25.53076172 C125.34316652 23.68062543 133.14344854 20.80750114 141.20703125 16.390625 C144 15 144 15 147 15 C146.703125 16.875 146.703125 16.875 146 19 C132.41677515 27.3589076 112.0570442 32.14620123 96.18359375 32.16796875 C95.33128677 32.17129715 94.4789798 32.17462555 93.60084534 32.17805481 C91.79794858 32.18310788 89.99504251 32.18546364 88.19213867 32.18530273 C85.47102844 32.18747326 82.75033461 32.20560185 80.02929688 32.22460938 C67.80533399 32.26584542 56.33282196 31.63970229 44.75 27.375 C44.0389209 27.11775146 43.3278418 26.86050293 42.59521484 26.59545898 C30.01039173 21.8973287 15.49877726 15.66114952 6 6 C4.700625 5.2575 4.700625 5.2575 3.375 4.5 C1 3 1 3 0 0 Z " fill="#E17801" transform="translate(329,503)"/>
<path d="M0 0 C0.60659385 6.5781733 0.14589981 10.89729998 -3.61328125 16.40625 C-5.6131444 18.70468427 -7.35372412 19.89901939 -10.375 20.37109375 C-12.99326048 20.43732951 -15.41255964 20.41817218 -18 20 C-20.8076909 17.27488824 -20.94760194 15.41169902 -21.4375 11.5625 C-20.89670233 7.15886181 -20.07042669 5.2202036 -17 2 C-11.55416906 -0.2361074 -5.79695271 -0.21079828 0 0 Z " fill="#0A0B0D" transform="translate(981,588)"/>
<path d="M0 0 C-1 3 -1 3 -3.125 4.625 C-20.38311656 18.88170498 -31.15571576 43.82837447 -33.48461914 65.63427734 C-35.23921515 84.47243088 -33.95143743 101.78554784 -26 119 C-25.62359375 119.8971875 -25.2471875 120.794375 -24.859375 121.71875 C-21.81055231 129.50707264 -21.81055231 129.50707264 -16 135 C-14.9296875 136.84765625 -14.9296875 136.84765625 -13.875 139.0625 C-13.52179688 139.79597656 -13.16859375 140.52945313 -12.8046875 141.28515625 C-12.53914063 141.85105469 -12.27359375 142.41695312 -12 143 C-12.99 143.33 -13.98 143.66 -15 144 C-27.34977829 129.16311358 -36.37102333 110.57689877 -37 91 C-37.02578125 90.35498535 -37.0515625 89.7099707 -37.078125 89.04541016 C-38.2383581 56.63864931 -28.91919105 29.49387717 -7.125 5.3125 C-6.40981201 4.51718872 -6.40981201 4.51718872 -5.68017578 3.70581055 C-2.24624387 0 -2.24624387 0 0 0 Z " fill="#D57309" transform="translate(362,320)"/>
<path d="M0 0 C2.92676849 2.63409164 4.83794157 5.7260258 7 9 C10.0825749 13.31228133 13.18192587 17.309195 17 21 C17.5775 21.763125 18.155 22.52625 18.75 23.3125 C23.97097019 29.54865884 30.4263256 34.13147844 37.0625 38.75 C37.73506836 39.22195801 38.40763672 39.69391602 39.10058594 40.18017578 C43.24770397 43.01826462 47.31116679 45.12770411 52 47 C53.01578125 47.48339844 54.0315625 47.96679688 55.078125 48.46484375 C69.62614495 55.21928159 85.79946208 58.22165123 101.8125 58.125 C102.59351074 58.12306641 103.37452148 58.12113281 104.17919922 58.11914062 C110.15660305 58.07468978 116.06420384 57.73216869 122 57 C122 58.32 122 59.64 122 61 C102.04220735 63.46714422 82.14116526 62.52492103 63.3046875 54.92578125 C61.03993244 54.01604066 58.77650996 53.31699083 56.4375 52.625 C52.0081171 51.17495157 48.26351043 48.93698429 44.33203125 46.4609375 C42.45821038 45.28705307 40.51841997 44.21880326 38.5625 43.1875 C24.92101652 35.39236658 12.45763934 22.09569962 4 9 C2.88625 7.4221875 2.88625 7.4221875 1.75 5.8125 C0 3 0 3 0 0 Z " fill="#DE7601" transform="translate(311,464)"/>
<path d="M0 0 C0.57592911 6.96234306 0.34741051 11.72447032 -3.7109375 17.5390625 C-5.47348063 19.53661138 -6.63328354 19.96163001 -9.27734375 20.23828125 C-10.15519531 20.26277344 -11.03304688 20.28726563 -11.9375 20.3125 C-12.81277344 20.34988281 -13.68804688 20.38726563 -14.58984375 20.42578125 C-17 20 -17 20 -18.7890625 18.2578125 C-20.78967229 14.52764328 -20.63262321 11.11940698 -20 7 C-18.45684875 3.84660397 -17.29365244 2.47450572 -13.9765625 1.2578125 C-9.28231591 0.08825618 -4.81829156 -0.20503368 0 0 Z " fill="#07090B" transform="translate(1341,588)"/>
<path d="M0 0 C4.91876873 0.62602511 8.20696091 2.67384239 11.4375 6.4375 C12.36769685 9.31214448 12.24914299 11.54303787 11.4375 14.4375 C9.34169111 17.8806146 7.3109599 20.1843218 3.4375 21.4375 C0.5 21.875 0.5 21.875 -2.5625 21.4375 C-6.67426563 17.96534236 -8.41047533 15.98308414 -8.9375 10.625 C-8.91761166 6.97880475 -8.62858692 6.51714321 -6.125 3.5 C-5.279375 2.819375 -4.43375 2.13875 -3.5625 1.4375 C-2.5625 0.4375 -2.5625 0.4375 0 0 Z " fill="#0C0B0A" transform="translate(555.5625,584.5625)"/>
<path d="M0 0 C7.22997554 6.71354871 7.22997554 6.71354871 8.07421875 12.53515625 C8.30126908 19.35449542 7.87794695 24.03510792 3.625 29.4375 C-1.54486463 34.11499657 -4.770009 34.79031363 -11.61328125 34.71875 C-16.73955419 34.19669674 -19.36032946 31.56186465 -22.6875 27.875 C-26.48789493 22.38554066 -26.179134 15.86298581 -25.375 9.4375 C-23.43649003 5.22872165 -20.56176311 2.52254056 -17.1875 -0.5625 C-11.41505664 -2.61492431 -5.55547042 -2.57197705 0 0 Z M-20.375 6.4375 C-23.28279546 11.13393941 -22.87178989 16.08924639 -22.375 21.4375 C-20.75804759 26.11815172 -18.73725492 29.02433771 -14.375 31.4375 C-9.37257138 32.25729599 -5.53473827 31.98573991 -0.9375 29.8125 C3.55850597 25.64547007 4.81126446 22.02702476 5.125 16 C4.99626112 11.27528318 4.02679448 8.46013562 1.109375 4.77734375 C-2.84902469 1.20436719 -6.74632158 0.95199437 -11.8984375 1.05078125 C-15.99808884 1.69094763 -17.60496791 3.3904647 -20.375 6.4375 Z " fill="#E7E7E7" transform="translate(866.375,317.5625)"/>
<path d="M0 0 C3.16639117 2.53311294 5.73880431 5.10175876 7 9 C7 11.31 7 13.62 7 16 C-0.59 16 -8.18 16 -16 16 C-14.84615385 5.61538462 -14.84615385 5.61538462 -10 1 C-6.36217368 -0.21260877 -3.82264001 -0.39544552 0 0 Z " fill="#080A0C" transform="translate(829,565)"/>
<path d="M0 0 C0 3.81763622 -1.03946336 4.52645566 -3.5 7.375 C-11.97539605 17.72217079 -17.396229 28.56688595 -22 41 C-22.33257812 41.78777832 -22.66515625 42.57555664 -23.0078125 43.38720703 C-25.99901074 51.26412719 -26.38790414 59.78104172 -26.375 68.125 C-26.37483887 69.1162085 -26.37467773 70.10741699 -26.37451172 71.12866211 C-26.20273328 82.35483527 -23.61906797 92.41993192 -20 103 C-21.485 103.495 -21.485 103.495 -23 104 C-23.63691996 102.54683309 -24.25869795 101.0870304 -24.875 99.625 C-25.22304688 98.81289063 -25.57109375 98.00078125 -25.9296875 97.1640625 C-28.85024263 88.53030463 -29.31360897 80.189278 -29.25 71.125 C-29.25773437 70.03058594 -29.26546875 68.93617188 -29.2734375 67.80859375 C-29.21465526 42.97309865 -18.99704495 19.45535872 -1.69921875 1.62890625 C-0.85810547 0.82259766 -0.85810547 0.82259766 0 0 Z " fill="#D67408" transform="translate(364,330)"/>
<path d="M0 0 C0.515625 0.2475 1.03125 0.495 1.5625 0.75 C0.015625 1.430625 0.015625 1.430625 -1.5625 2.125 C-22.64253173 12.68380377 -37.00284388 30.49788381 -44.50854492 52.67919922 C-45.1685269 54.69794092 -45.80986173 56.72099697 -46.4375 58.75 C-46.6953125 59.58273437 -46.953125 60.41546875 -47.21875 61.2734375 C-48.67972851 66.88101679 -48.81989928 72.66297727 -49.0090332 78.43188477 C-49.08293813 80.20879769 -49.25220034 81.9812305 -49.4375 83.75 C-50.4275 84.245 -50.4275 84.245 -51.4375 84.75 C-52.06877402 57.74550027 -44.82915494 36.19738864 -26.1328125 16.296875 C-23.11493353 13.44519806 -19.95464618 11.06788891 -16.5625 8.6875 C-15.97597656 8.26662109 -15.38945312 7.84574219 -14.78515625 7.41210938 C-3.78068567 -0.38776263 -3.78068567 -0.38776263 0 0 Z " fill="#C96E0D" transform="translate(396.4375,320.25)"/>
<path d="M0 0 C1.69334611 2.54001916 2.71627156 4.59011068 3.8125 7.39453125 C8.37171045 18.74506561 13.24786083 28.52516323 21 38 C22.09441406 39.36511719 22.09441406 39.36511719 23.2109375 40.7578125 C30.24949343 49.06686588 38.97930653 55.03966031 48 61 C47.67 61.99 47.34 62.98 47 64 C41.11999658 61.31789318 36.745682 58.34068944 32 54 C31.33871094 53.44054687 30.67742187 52.88109375 29.99609375 52.3046875 C16.05093477 40.5029021 3.03629741 22.37592494 0 4 C0 2.68 0 1.36 0 0 Z " fill="#CE6E03" transform="translate(319,428)"/>
<path d="M0 0 C2.97 0 5.94 0 9 0 C7.42467319 7.85428897 5.72927213 15.46201031 3 23 C0.36 23 -2.28 23 -5 23 C-4.354523 15.09290669 -2.13002861 7.60866033 0 0 Z " fill="#F6F6F6" transform="translate(745,369)"/>
<path d="M0 0 C6.6 0 13.2 0 20 0 C20 1.32 20 2.64 20 4 C18.16888672 3.92652344 18.16888672 3.92652344 16.30078125 3.8515625 C14.05449713 4.03338049 14.05449713 4.03338049 12 5 C9.69335721 8.17405191 8.4964257 11.69742687 7.1875 15.375 C6.4579226 17.30179985 5.72247479 19.22638967 4.98046875 21.1484375 C4.67004639 22.00614746 4.35962402 22.86385742 4.03979492 23.74755859 C2.9572996 26.09249916 2.00203667 27.38774315 0 29 C-0.99 29.33 -1.98 29.66 -3 30 C-0.83925927 20.63679016 3.58447204 12.45348108 8 4 C5.36 4 2.72 4 0 4 C0 2.68 0 1.36 0 0 Z " fill="#F4F4F4" transform="translate(1195,563)"/>
<path d="M0 0 C2.92676849 2.63409164 4.83794157 5.7260258 7 9 C10.0825749 13.31228133 13.18192587 17.309195 17 21 C17.5775 21.763125 18.155 22.52625 18.75 23.3125 C23.97097019 29.54865884 30.4263256 34.13147844 37.0625 38.75 C37.73506836 39.22195801 38.40763672 39.69391602 39.10058594 40.18017578 C43.24819677 43.01860188 47.30324002 45.14351041 52 47 C53.25044934 47.53105098 54.49912974 48.06628468 55.74609375 48.60546875 C56.35517578 48.86650391 56.96425781 49.12753906 57.59179688 49.39648438 C60.39453125 50.59765625 63.19726562 51.79882812 66 53 C65.505 53.99 65.505 53.99 65 55 C56.26311774 53.19414835 49.5316205 49.68416802 42 45 C40.81600892 44.36837798 39.62910729 43.74213313 38.4375 43.125 C24.85405519 35.33014184 12.42944778 22.05204817 4 9 C2.88625 7.4221875 2.88625 7.4221875 1.75 5.8125 C0 3 0 3 0 0 Z " fill="#BC6606" transform="translate(311,464)"/>
<path d="M0 0 C0 3.02547879 -0.34759892 4.0723553 -1.64453125 6.6953125 C-1.99193359 7.41203125 -2.33933594 8.12875 -2.69726562 8.8671875 C-3.06529297 9.61226563 -3.43332031 10.35734375 -3.8125 11.125 C-13.77618965 31.30462461 -20.10019397 58.84283422 -14 81 C-13.93451508 82.58211573 -13.91421619 84.16670081 -13.9375 85.75 C-13.94652344 86.54921875 -13.95554687 87.3484375 -13.96484375 88.171875 C-13.98224609 89.07679688 -13.98224609 89.07679688 -14 90 C-21.65305639 78.52041541 -18.84649234 56.26645407 -16.6953125 43.359375 C-15.41132522 37.15584096 -13.75594301 31.08424533 -12 25 C-11.70222656 23.86175781 -11.40445312 22.72351563 -11.09765625 21.55078125 C-8.95341987 13.77447333 -5.83067324 5.83067324 0 0 Z " fill="#BA6608" transform="translate(333,338)"/>
<path d="M0 0 C1.984375 1.60546875 1.984375 1.60546875 3 3 C2.01386719 2.7834375 1.02773438 2.566875 0.01171875 2.34375 C-25.54656649 -2.83280532 -48.48536545 -1.5795405 -70.8125 12.5625 C-75.85968317 16.02755066 -80.59488559 19.74537087 -85 24 C-85.66 23.67 -86.32 23.34 -87 23 C-81.56791701 17.02167403 -76.05375271 12.88402839 -69 9 C-68.3503125 8.59265625 -67.700625 8.1853125 -67.03125 7.765625 C-46.53604321 -4.75922359 -22.98180557 -6.3750899 0 0 Z " fill="#A1590E" transform="translate(452,306)"/>
<path d="M0 0 C2.84104967 1.34144245 5.32930151 2.86084313 7.86328125 4.71484375 C8.58580078 5.23626953 9.30832031 5.75769531 10.05273438 6.29492188 C11.54972247 7.38305238 13.04454844 8.47416414 14.53710938 9.56835938 C18.89079807 12.70131548 22.99298658 14.99610259 28 17 C29.57078672 17.82358229 31.13823501 18.65354895 32.703125 19.48828125 C38.20075353 22.26518711 43.78023329 23.76333997 49.75 25.1875 C66.25544406 29.25544406 66.25544406 29.25544406 69 32 C47.5106704 30.32250186 21.46888547 21.73331086 6 6 C4.700625 5.2575 4.700625 5.2575 3.375 4.5 C1 3 1 3 0 0 Z " fill="#BB6506" transform="translate(329,503)"/>
<path d="M0 0 C8.19256018 -0.4726477 8.19256018 -0.4726477 11.5625 1.5 C12.036875 1.995 12.51125 2.49 13 3 C12.67 4.65 12.34 6.3 12 8 C11.01 8.33 10.02 8.66 9 9 C9.78927699 10.12667784 10.58151655 11.25128067 11.375 12.375 C11.81585937 13.00148438 12.25671875 13.62796875 12.7109375 14.2734375 C14.02808866 16.12380509 14.02808866 16.12380509 16 18 C13.8125 18.4375 13.8125 18.4375 11 18 C9.01558218 15.86004673 7.4976696 13.49824035 6 11 C5.67 12.98 5.34 14.96 5 17 C5.66 17.33 6.32 17.66 7 18 C4.69 18 2.38 18 0 18 C0.66 17.67 1.32 17.34 2 17 C2 12.05 2 7.1 2 2 C1.34 2 0.68 2 0 2 C0 1.34 0 0.68 0 0 Z " fill="#CFD0D0" transform="translate(851,324)"/>
<path d="M0 0 C0.99 0.33 1.98 0.66 3 1 C1.72888013 3.54223974 0.64997713 3.80899712 -1.875 5.0625 C-7.87352959 8.28215806 -12.82669611 12.61836837 -18 17 C-22.64031845 20.86920671 -22.64031845 20.86920671 -25.75 22 C-26.4925 22.33 -27.235 22.66 -28 23 C-28.11988281 23.57234375 -28.23976563 24.1446875 -28.36328125 24.734375 C-29.27490695 27.9781965 -31.1795068 29.77885224 -33.4375 32.25 C-34.24058594 33.14203125 -35.04367187 34.0340625 -35.87109375 34.953125 C-38 37 -38 37 -40 37 C-40.268125 37.598125 -40.53625 38.19625 -40.8125 38.8125 C-41.98493467 40.97224808 -43.19369282 42.35790256 -45 44 C-43.69294611 38.8635075 -41.32544032 35.71040925 -37.6875 32 C-36.7317128 31.0012999 -35.7772804 30.00130143 -34.82421875 29 C-34.3554834 28.51273437 -33.88674805 28.02546875 -33.40380859 27.5234375 C-31.94856572 25.94418263 -30.61037793 24.30191945 -29.26953125 22.625 C-28.52058594 21.75875 -27.77164062 20.8925 -27 20 C-26.34 20 -25.68 20 -25 20 C-24.34 18.68 -23.68 17.36 -23 16 C-22.34 16 -21.68 16 -21 16 C-20.67 15.01 -20.34 14.02 -20 13 C-17.79647202 11.415211 -15.62271544 9.97312084 -13.3125 8.5625 C-12.07913807 7.79343205 -10.84606266 7.0239044 -9.61328125 6.25390625 C-9.00822754 5.88281738 -8.40317383 5.51172852 -7.77978516 5.12939453 C-6.04685348 4.02973171 -4.39610587 2.85046974 -2.73046875 1.65234375 C-1.82941406 1.10707031 -0.92835938 0.56179688 0 0 Z " fill="#93520D" transform="translate(379,294)"/>
<path d="M0 0 C-1.44132637 3.63058427 -3.09782961 4.93371376 -6.4375 6.875 C-10.58211004 9.49991969 -11.90688854 11.54076253 -14 16 C-15.21036701 17.06491293 -16.45923312 18.08666758 -17.73046875 19.078125 C-22.37348996 23.03398532 -24.94446562 27.46059351 -27.75 32.8125 C-28.65140096 34.51188339 -29.56248684 36.20617412 -30.484375 37.89453125 C-30.87334961 38.63550049 -31.26232422 39.37646973 -31.66308594 40.13989258 C-33.21025964 42.2925435 -34.56806807 43.01891458 -37 44 C-34.66822995 31.41442064 -23.29859936 20.28599051 -14.9375 11.1875 C-14.34767334 10.54063232 -13.75784668 9.89376465 -13.15014648 9.22729492 C-4.53423357 0 -4.53423357 0 0 0 Z " fill="#AF610E" transform="translate(357,299)"/>
<path d="M0 0 C-1 3 -1 3 -3.125 4.625 C-21.57636963 19.86743579 -31.41867117 45.62514007 -33.703125 68.73828125 C-33.85007812 70.35283203 -33.85007812 70.35283203 -34 72 C-34.33 72 -34.66 72 -35 72 C-38.55182764 53.59507497 -28.75054017 35.10922841 -19.08984375 20.015625 C-15.43264508 14.81894845 -11.37723601 10.02492568 -7.125 5.3125 C-6.64828857 4.78245361 -6.17157715 4.25240723 -5.68041992 3.70629883 C-2.24656149 0 -2.24656149 0 0 0 Z " fill="#BF690E" transform="translate(362,320)"/>
<path d="M0 0 C1.27556563 3.82669689 0.45512737 5.33555563 -0.8125 9.125 C-3.4040904 17.22259907 -5.2890288 24.19622242 -4.97265625 32.73828125 C-5 35 -5 35 -5.50488281 36.76757812 C-6.61245385 41.76147829 -5.88440943 47.10831554 -5.6875 52.1875 C-5.65205078 53.38181641 -5.61660156 54.57613281 -5.58007812 55.80664062 C-5.38724345 61.03620202 -5.13531704 66.01760673 -3.89453125 71.11328125 C-3.06782214 74.70531428 -2.96259218 75.72102589 -4 79 C-4.48651015 77.33546212 -4.96377915 75.66822271 -5.4375 74 C-5.70433594 73.071875 -5.97117187 72.14375 -6.24609375 71.1875 C-8.35538703 62.26945175 -8.28156037 53.24153805 -8.3125 44.125 C-8.31511841 43.38967041 -8.31773682 42.65434082 -8.32043457 41.89672852 C-8.32611112 27.02578327 -6.95203348 13.40749315 0 0 Z " fill="#83490F" transform="translate(293,359)"/>
<path d="M0 0 C2 2 2 2 2.3125 5.4375 C2 9 2 9 0.875 10.9375 C-1.88980433 12.50422245 -3.88188517 12.38976435 -7 12 C-8.875 10.875 -8.875 10.875 -10 9 C-10.38976435 5.88188517 -10.50422245 3.88980433 -8.9375 1.125 C-5.93267901 -0.61973477 -3.39189869 -0.30835443 0 0 Z " fill="#F4F4F4" transform="translate(1114,534)"/>
<path d="M0 0 C0 3.81763622 -1.03946336 4.52645566 -3.5 7.375 C-11.97539605 17.72217079 -17.396229 28.56688595 -22 41 C-22.3609375 41.84949219 -22.721875 42.69898438 -23.09375 43.57421875 C-24.11486274 46.30745586 -24.64004121 48.93738715 -25.125 51.8125 C-25.29257812 52.78832031 -25.46015625 53.76414062 -25.6328125 54.76953125 C-25.75398438 55.50558594 -25.87515625 56.24164063 -26 57 C-26.66 56.34 -27.32 55.68 -28 55 C-28 35.75411441 -14.68702912 15.01362763 -1.69921875 1.62890625 C-0.85810547 0.82259766 -0.85810547 0.82259766 0 0 Z " fill="#CF710C" transform="translate(364,330)"/>
<path d="M0 0 C0 0.33 0 0.66 0 1 C-1.18142578 1.16435547 -1.18142578 1.16435547 -2.38671875 1.33203125 C-18.43217285 3.47896556 -18.43217285 3.47896556 -33 10 C-34.67900977 10.69694745 -36.35807768 11.39376728 -38.0390625 12.0859375 C-43.7115763 14.73009732 -49.05409017 18.17971103 -54 22 C-54.66 21.67 -55.32 21.34 -56 21 C-43.86333659 11.53340254 -43.86333659 11.53340254 -37.953125 8.890625 C-35.94548132 8.0132066 -35.94548132 8.0132066 -33.921875 6.796875 C-28.44774069 3.70603726 -22.96007888 2.03106436 -16.875 0.625 C-16.12299316 0.44517578 -15.37098633 0.26535156 -14.59619141 0.08007812 C-9.40601714 -1.03413234 -5.23004052 -0.91318168 0 0 Z " fill="#BB670F" transform="translate(422,294)"/>
<path d="M0 0 C3.28072947 0.75231858 6.3899831 1.81803665 9.5625 2.9375 C15.31186897 4.8822435 21.00512395 6.10312878 27 7 C26.34 8.32 25.68 9.64 25 11 C21.60073894 10.07464311 18.20632358 9.13258715 14.8125 8.1875 C13.85279297 7.92646484 12.89308594 7.66542969 11.90429688 7.39648438 C7.20519651 6.07943548 3.02768531 4.87198974 -1 2 C-0.67 1.34 -0.34 0.68 0 0 Z " fill="#D87302" transform="translate(369,503)"/>
<path d="M0 0 C0.99 0.33 1.98 0.66 3 1 C1.62769652 8.13597809 -0.94296995 14.93386656 -5 21 C-7.1953125 21.84765625 -7.1953125 21.84765625 -9 22 C-7.00878667 14.10501383 -3.81085857 7.17773362 0 0 Z " fill="#E8E8E8" transform="translate(1201,571)"/>
<path d="M0 0 C0.33 0 0.66 0 1 0 C0.57554301 4.45679841 0.12149193 8.72718045 -1 13.0625 C-2.2478688 18.20995881 -2.40017936 23.40521363 -2.5703125 28.67993164 C-2.64523748 30.45748411 -2.81462932 32.23055256 -3 34 C-3.99 34.495 -3.99 34.495 -5 35 C-5.63192905 7.96747967 -5.63192905 7.96747967 0 0 Z " fill="#D5740C" transform="translate(350,370)"/>
<path d="M0 0 C3.63 0 7.26 0 11 0 C7.25818182 7.66181818 7.25818182 7.66181818 5 11 C4.34 11 3.68 11 3 11 C2.7525 10.05125 2.505 9.1025 2.25 8.125 C1.3142923 4.91306809 1.3142923 4.91306809 -1.125 3.625 C-1.74375 3.41875 -2.3625 3.2125 -3 3 C-2.34 3 -1.68 3 -1 3 C-0.67 2.01 -0.34 1.02 0 0 Z " fill="#E17912" transform="translate(1165,627)"/>
<path d="M0 0 C-0.296875 1.875 -0.296875 1.875 -1 4 C-7.37156267 7.92096164 -16.43829243 12 -24 12 C-24.33 11.01 -24.66 10.02 -25 9 C-24.12601562 8.77957031 -24.12601562 8.77957031 -23.234375 8.5546875 C-16.89642545 6.82072017 -11.35463134 4.30867468 -5.56640625 1.20703125 C-3 0 -3 0 0 0 Z " fill="#D47102" transform="translate(476,518)"/>
<path d="M0 0 C5.15452001 1.93169391 9.96925143 4.47098232 14.85351562 6.99023438 C19.47613113 9.33914235 24.11589895 11.25528753 29 13 C28.67 13.66 28.34 14.32 28 15 C19.28531234 13.19873582 12.49007632 9.72153808 5 5 C4.05898438 4.4740625 3.11796875 3.948125 2.1484375 3.40625 C1.43945312 2.9421875 0.73046875 2.478125 0 2 C0 1.34 0 0.68 0 0 Z " fill="#CA6C03" transform="translate(348,504)"/>
<path d="M0 0 C3.33053342 0.62120061 5.45076238 1.8434447 8.1875 3.8125 C12.57569111 6.83758191 17.06505006 9.01668679 22 11 C21.01 12.485 21.01 12.485 20 14 C12.5792079 11.36681571 5.7121767 7.41924456 0 2 C0 1.34 0 0.68 0 0 Z " fill="#CD6D04" transform="translate(348,491)"/>
<path d="M0 0 C2.67007782 0.36358506 3.72519889 0.64776874 5.4140625 2.8125 C5.81367188 3.534375 6.21328125 4.25625 6.625 5 C8.23227894 8.09166609 8.23227894 8.09166609 11 10 C12.0703125 11.84765625 12.0703125 11.84765625 13.125 14.0625 C13.47820312 14.79597656 13.83140625 15.52945312 14.1953125 16.28515625 C14.46085937 16.85105469 14.72640625 17.41695313 15 18 C14.01 18.33 13.02 18.66 12 19 C2.22095672 6.51480638 2.22095672 6.51480638 0 0 Z " fill="#CF6E03" transform="translate(335,445)"/>
<path d="M0 0 C0 0.66 0 1.32 0 2 C-1.2065625 2.37125 -1.2065625 2.37125 -2.4375 2.75 C-3.283125 3.1625 -4.12875 3.575 -5 4 C-5.18949219 4.86625 -5.18949219 4.86625 -5.3828125 5.75 C-6.27233127 8.99280259 -8.18521043 10.7850943 -10.4375 13.25 C-11.64212891 14.58804687 -11.64212891 14.58804687 -12.87109375 15.953125 C-15 18 -15 18 -17 18 C-17.268125 18.598125 -17.53625 19.19625 -17.8125 19.8125 C-18.98493467 21.97224808 -20.19369282 23.35790256 -22 25 C-20.69294611 19.8635075 -18.32544032 16.71040925 -14.6875 13 C-13.7317128 12.0012999 -12.7772804 11.00130143 -11.82421875 10 C-11.3554834 9.51144531 -10.88674805 9.02289063 -10.40380859 8.51953125 C-8.9594218 6.95607675 -7.61202119 5.3388858 -6.26953125 3.6875 C-3.15552326 0 -3.15552326 0 0 0 Z " fill="#A95D0E" transform="translate(356,313)"/>
<path d="M0 0 C5.32383877 0.69012725 10.51754773 1.67875 15.75 2.875 C16.50410156 3.03613281 17.25820313 3.19726562 18.03515625 3.36328125 C21.94694639 4.2595884 24.34199648 4.99614814 27 8 C8.29811364 6.2365467 8.29811364 6.2365467 1 2 C0.67 1.34 0.34 0.68 0 0 Z " fill="#CD6E04" transform="translate(371,527)"/>
<path d="M0 0 C2.875 -0.125 2.875 -0.125 6 0 C6.66 0.66 7.32 1.32 8 2 C7.625 4.625 7.625 4.625 7 7 C6.01 7.33 5.02 7.66 4 8 C4.78927699 9.12667784 5.58151655 10.25128067 6.375 11.375 C7.03628906 12.31472656 7.03628906 12.31472656 7.7109375 13.2734375 C9.02808866 15.12380509 9.02808866 15.12380509 11 17 C8.75 17.375 8.75 17.375 6 17 C2.96787659 13.39423163 2 11.77053792 2 7 C2.66 6.67 3.32 6.34 4 6 C4 4.35 4 2.7 4 1 C2.68 0.67 1.36 0.34 0 0 Z " fill="#ECEDED" transform="translate(856,325)"/>
<path d="M0 0 C5.94 0 11.88 0 18 0 C18 2.64 18 5.28 18 8 C18.66 8 19.32 8 20 8 C20.2475 7.4225 20.495 6.845 20.75 6.25 C22.16683317 3.6997003 23.87627537 1.98214299 26 0 C26.66 0.33 27.32 0.66 28 1 C25.61820737 4.74281699 23.25524265 7.97727468 20 11 C20 10.34 20 9.68 20 9 C19.01 9 18.02 9 17 9 C17 6.36 17 3.72 17 1 C11.39 1 5.78 1 0 1 C0 0.67 0 0.34 0 0 Z " fill="#D6D6D6" transform="translate(1452,563)"/>
<path d="M0 0 C0.99 0.33 1.98 0.66 3 1 C-2.28693368 12.15889691 -2.28693368 12.15889691 -6 16 C-6.66 16 -7.32 16 -8 16 C-7.32599282 12.08885974 -5.45743967 9.12880818 -3.4375 5.75 C-2.79683594 4.67234375 -2.15617187 3.5946875 -1.49609375 2.484375 C-1.00238281 1.66453125 -0.50867188 0.8446875 0 0 Z " fill="#874B0E" transform="translate(328,327)"/>
<path d="M0 0 C2.92676849 2.63409164 4.83794157 5.7260258 7 9 C10.06664858 13.29000165 13.10994965 17.40918429 17 21 C16.34 21.66 15.68 22.32 15 23 C14.401875 22.236875 13.80375 21.47375 13.1875 20.6875 C11.1983879 18.13105098 11.1983879 18.13105098 9.5 16.5625 C7.30242977 14.27336435 5.72160354 11.66066002 4 9 C2.88625 7.4221875 2.88625 7.4221875 1.75 5.8125 C0 3 0 3 0 0 Z " fill="#B66406" transform="translate(311,464)"/>
<path d="M0 0 C0 3.88048711 -1.2063207 4.7660375 -3.6875 7.6875 C-7.21296793 11.95187595 -10.18164712 16.24402952 -13 21 C-13.66 20.67 -14.32 20.34 -15 20 C-13.34359151 16.29534445 -11.05943882 13.23513465 -8.625 10 C-7.85414063 8.96875 -7.08328125 7.9375 -6.2890625 6.875 C-4.31443565 4.39492259 -2.29520754 2.17992314 0 0 Z " fill="#B9660F" transform="translate(364,330)"/>
<path d="M0 0 C0.99 0.33 1.98 0.66 3 1 C-0.15115678 4.27235512 -3.42550918 7.2025724 -7 10 C-7.66 10 -8.32 10 -9 10 C-7.64717831 5.57258356 -5.76701112 3.63690779 -2 1 C-1.34 0.67 -0.68 0.34 0 0 Z " fill="#EFEFF0" transform="translate(852,316)"/>
<path d="M0 0 C-0.96099609 0.65355469 -0.96099609 0.65355469 -1.94140625 1.3203125 C-7.23298141 4.96369212 -12.204042 8.72534178 -17 13 C-17.66 12.67 -18.32 12.34 -19 12 C-5.95268139 -1.98422713 -5.95268139 -1.98422713 0 0 Z " fill="#B2620F" transform="translate(384,317)"/>
<path d="M0 0 C1.32 0.33 2.64 0.66 4 1 C2.25 6.75 2.25 6.75 0 9 C-0.66 9 -1.32 9 -2 9 C-3.34882408 9.63474075 -4.6846659 10.29848848 -6 11 C-5.38125 10.29875 -4.7625 9.5975 -4.125 8.875 C-1.9572991 5.94222819 -0.97344445 3.48817594 0 0 Z " fill="#DFDFDF" transform="translate(842,596)"/>
<path d="M0 0 C0.66 0.33 1.32 0.66 2 1 C1.34 1.66 0.68 2.32 0 3 C0 3.99 0 4.98 0 6 C-2.8125 8.75 -2.8125 8.75 -6 11 C-6.99 10.67 -7.98 10.34 -9 10 C-8.67 9.34 -8.34 8.68 -8 8 C-7.34 8.33 -6.68 8.66 -6 9 C-5.9071875 8.1646875 -5.9071875 8.1646875 -5.8125 7.3125 C-4.66626128 4.05012827 -2.50609803 2.31332126 0 0 Z " fill="#D8D8D8" transform="translate(1060,563)"/>
<path d="M0 0 C0.66 0.66 1.32 1.32 2 2 C1.52949219 2.44730469 1.05898438 2.89460938 0.57421875 3.35546875 C-2.85076649 6.68117905 -5.78871658 9.70750866 -8 14 C-8.66 13.34 -9.32 12.68 -10 12 C-3.84965831 3.55353075 -3.84965831 3.55353075 0 0 Z " fill="#BB670F" transform="translate(339,314)"/>
<path d="M0 0 C0.66 0.33 1.32 0.66 2 1 C0.44210317 2.13136586 -1.12153857 3.25482321 -2.6875 4.375 C-3.55761719 5.00148438 -4.42773438 5.62796875 -5.32421875 6.2734375 C-11.48123534 10.24628616 -11.48123534 10.24628616 -15.3125 9.625 C-15.869375 9.41875 -16.42625 9.2125 -17 9 C-16.19175781 8.60167969 -15.38351562 8.20335937 -14.55078125 7.79296875 C-13.48214844 7.26316406 -12.41351562 6.73335937 -11.3125 6.1875 C-10.25675781 5.66542969 -9.20101562 5.14335938 -8.11328125 4.60546875 C-5.00637709 3.0626086 -5.00637709 3.0626086 -2.23046875 1.23828125 C-1.49441406 0.82964844 -0.75835938 0.42101562 0 0 Z " fill="#AE6008" transform="translate(580,812)"/>
<path d="M0 0 C0.99 0.33 1.98 0.66 3 1 C3.77916092 6.02125926 4.13016601 9.97703996 3 15 C2.67 15 2.34 15 2 15 C1.66048381 13.43883181 1.32867456 11.87598662 1 10.3125 C0.814375 9.44238281 0.62875 8.57226562 0.4375 7.67578125 C0.01027953 5.06287036 -0.07616201 2.64186962 0 0 Z " fill="#BB670E" transform="translate(335,409)"/>
<path d="M0 0 C0.66 0 1.32 0 2 0 C0.24176751 5.43453678 -2.99890517 8.99890517 -7 13 C-7 8.45862678 -6.36299463 7.66969941 -3.625 4.25 C-2.68527344 3.05117188 -2.68527344 3.05117188 -1.7265625 1.828125 C-1.15679687 1.22484375 -0.58703125 0.6215625 0 0 Z " fill="#BF690F" transform="translate(368,339)"/>
<path d="M0 0 C0 0.33 0 0.66 0 1 C-5.61 1.66 -11.22 2.32 -17 3 C-17.33 2.34 -17.66 1.68 -18 1 C-11.60985973 -0.58444052 -6.49551291 -1.20287276 0 0 Z " fill="#B2620E" transform="translate(422,294)"/>
<path d="M0 0 C1.32 0 2.64 0 4 0 C4.33 1.65 4.66 3.3 5 5 C3.35 5.66 1.7 6.32 0 7 C0 4.69 0 2.38 0 0 Z " fill="#141617" transform="translate(856,326)"/>
<path d="M0 0 C0.66 0.33 1.32 0.66 2 1 C-0.38179263 4.74281699 -2.74475735 7.97727468 -6 11 C-6.375 8.875 -6.375 8.875 -6 6 C-4.20659643 3.76086748 -2.16547337 1.87545461 0 0 Z " fill="#E8E8E8" transform="translate(1478,563)"/>
<path d="M0 0 C2.875 -0.125 2.875 -0.125 6 0 C6.66 0.66 7.32 1.32 8 2 C7.625 4.625 7.625 4.625 7 7 C6.01 7.33 5.02 7.66 4 8 C4 5.69 4 3.38 4 1 C2.68 0.67 1.36 0.34 0 0 Z " fill="#E2E2E2" transform="translate(856,325)"/>
<path d="M0 0 C2.36543716 2.36543716 3.27541323 4.57067205 4.625 7.625 C5.07101562 8.62789063 5.51703125 9.63078125 5.9765625 10.6640625 C6.31429688 11.43492187 6.65203125 12.20578125 7 13 C6.01 13 5.02 13 4 13 C3.32404685 11.58774074 2.65959941 10.16997095 2 8.75 C1.62875 7.96109375 1.2575 7.1721875 0.875 6.359375 C0 4 0 4 0 0 Z " fill="#B46207" transform="translate(317,451)"/>
<path d="M0 0 C-1.24995625 3.74986874 -2.90091854 4.62163516 -6 7 C-7.35147138 8.31494512 -8.69112542 9.64264858 -10 11 C-8.73396788 6.69549079 -5.08358566 0 0 0 Z " fill="#AE600D" transform="translate(362,320)"/>
<path d="M0 0 C0.33 0.66 0.66 1.32 1 2 C1.66 2.33 2.32 2.66 3 3 C0.03 5.475 0.03 5.475 -3 8 C-3 3.73173127 -2.62386487 3.06117568 0 0 Z " fill="#DADADA" transform="translate(1026,565)"/>
<path d="M0 0 C0.66 0.33 1.32 0.66 2 1 C-0.97 3.97 -3.94 6.94 -7 10 C-7 5.69032084 -4.83274712 4.10253255 -2 1 C-1.34 0.67 -0.68 0.34 0 0 Z " fill="#E2E2E2" transform="translate(1260,530)"/>
<path d="M0 0 C3.5786304 1.65167557 6.74820188 3.78286492 10 6 C9.34 6.66 8.68 7.32 8 8 C6.66102417 7.04956626 5.32894573 6.08940853 4 5.125 C3.2575 4.59132813 2.515 4.05765625 1.75 3.5078125 C1.1725 3.01023437 0.595 2.51265625 0 2 C0 1.34 0 0.68 0 0 Z " fill="#AE5F07" transform="translate(329,503)"/>
<path d="M0 0 C0.66 0 1.32 0 2 0 C3.38938077 1.96147874 4.7260411 3.96166576 6 6 C5.34 7.32 4.68 8.64 4 10 C3.32845067 8.71086513 2.66291141 7.41859796 2 6.125 C1.62875 5.40570313 1.2575 4.68640625 0.875 3.9453125 C0 2 0 2 0 0 Z " fill="#C06704" transform="translate(327,450)"/>
<path d="M0 0 C0.66 0.33 1.32 0.66 2 1 C0.35 2.98 -1.3 4.96 -3 7 C-3.99 6.67 -4.98 6.34 -6 6 C-4 4 -2 2 0 0 Z " fill="#F1F2F2" transform="translate(870,343)"/>
<path d="M0 0 C1.31896465 0.92838287 2.62998689 1.86805732 3.9375 2.8125 C4.66839844 3.33457031 5.39929688 3.85664063 6.15234375 4.39453125 C8 6 8 6 9 9 C5.18063472 7.44396229 2.73955562 5.04395069 0 2 C0 1.34 0 0.68 0 0 Z " fill="#CF7001" transform="translate(327,486)"/>
<path d="M0 0 C2.78637633 4.1795645 1.79562512 6.14668677 1 11 C0.34 10.34 -0.32 9.68 -1 9 C-0.9765625 6.8359375 -0.9765625 6.8359375 -0.625 4.375 C-0.51414062 3.55773437 -0.40328125 2.74046875 -0.2890625 1.8984375 C-0.19367188 1.27195312 -0.09828125 0.64546875 0 0 Z " fill="#AE600F" transform="translate(337,376)"/>
<path d="M0 0 C0.66 0.33 1.32 0.66 2 1 C1.1875 3.4375 1.1875 3.4375 0 6 C-0.99 6.33 -1.98 6.66 -3 7 C-2.38722388 4.03824877 -1.74627478 2.61941217 0 0 Z " fill="#A75D0F" transform="translate(323,336)"/>
<path d="M0 0 C2.18975773 3.28463659 2.99806563 6.20696275 4 10 C3.34 10.66 2.68 11.32 2 12 C0.86235649 7.73383684 0 4.43513689 0 0 Z " fill="#C56A04" transform="translate(319,428)"/>
<path d="M0 0 C0.66 0 1.32 0 2 0 C1.690625 0.598125 1.38125 1.19625 1.0625 1.8125 C-0.10209704 4.08956772 -0.10209704 4.08956772 -1 7 C-2.32 6.34 -3.64 5.68 -5 5 C-4.360625 4.731875 -3.72125 4.46375 -3.0625 4.1875 C-0.66868314 3.11332248 -0.66868314 3.11332248 0 0 Z " fill="#81480E" transform="translate(359,307)"/>
<path d="M0 0 C0.66 0 1.32 0 2 0 C1.45773019 3.79588866 -0.20127563 5.47211993 -3 8 C-3.66 7.67 -4.32 7.34 -5 7 C-4.54625 6.5875 -4.0925 6.175 -3.625 5.75 C-1.94049626 3.93591905 -1.00734029 2.24714373 0 0 Z " fill="#B8650E" transform="translate(362,305)"/>
</svg>
