<?xml version="1.0" encoding="UTF-8"?>
<svg version="1.1" xmlns="http://www.w3.org/2000/svg" width="1477" height="835">
<path d="M0 0 C487.41 0 974.82 0 1477 0 C1477 4.95 1477 9.9 1477 15 C989.59 15 502.18 15 0 15 C0 10.05 0 5.1 0 0 Z " fill="#050809" transform="translate(0,0)"/>
<path d="M0 0 C7.66150653 3.80643102 12.67903854 9.13884298 16 17 C16.93151429 20.31456299 17.57850609 23.58444589 18 27 C19.75763672 26.93039062 19.75763672 26.93039062 21.55078125 26.859375 C30.79473501 26.60232493 38.57439718 26.70905219 47 31 C47.71285156 31.32742188 48.42570312 31.65484375 49.16015625 31.9921875 C56.73994875 35.99385059 62.09352954 43.72162159 64.9375 51.6875 C67.30390697 59.50761311 67.18242931 67.7247488 67.1875 75.8125 C67.19974609 76.82892578 67.21199219 77.84535156 67.22460938 78.89257812 C67.24166785 87.81416028 66.96204173 96.98393022 62 104.6875 C61.484375 105.51636719 60.96875 106.34523438 60.4375 107.19921875 C59.963125 107.79347656 59.48875 108.38773437 59 109 C58.34 109 57.68 109 57 109 C56.95875 109.556875 56.9175 110.11375 56.875 110.6875 C55.51022892 114.294395 53.08919824 115.73038496 50 118 C49.34 118 48.68 118 48 118 C48.33 118.66 48.66 119.32 49 120 C49.21982238 121.54314213 49.39322935 123.09301985 49.54296875 124.64453125 C50.79758377 136.72082563 52.50955015 148.59946513 54.9375 160.5 C55.17815186 161.70889893 55.41880371 162.91779785 55.66674805 164.16333008 C57.08078215 170.87776282 58.86548292 176.89195076 62 183 C62.53882813 184.0725 63.07765625 185.145 63.6328125 186.25 C64.12523437 187.1575 64.61765625 188.065 65.125 189 C65.62257813 189.928125 66.12015625 190.85625 66.6328125 191.8125 C67.81297425 194.12375796 67.81297425 194.12375796 70 195 C77.61805336 176.537842 83.59630737 158.00436581 85 138 C85.07250977 137.00597168 85.14501953 136.01194336 85.21972656 134.98779297 C85.99448329 122.68707 86.25181951 113.81396796 78 104 C71.10390914 91.28763322 71.97128264 71.463564 75.75 57.875 C76.45099129 55.898594 77.19424153 53.93605855 78 52 C78.28875 51.23171875 78.5775 50.4634375 78.875 49.671875 C83.02878045 39.95499572 91.41861588 34.59823054 100.625 30.3125 C109.87379794 26.71574525 117.38656714 27.9535651 126.53125 31.36328125 C131.48361238 33.70003782 135.48686691 36.7898167 139 41 C139 41.66 139 42.32 139 43 C139.99 43.33 140.98 43.66 142 44 C151.07744709 56.17418034 152.43177919 71.98723174 150.53125 86.60546875 C149.05295907 94.67447343 146.35499186 101.08765419 142 108 C141.54753906 108.79148437 141.09507812 109.58296875 140.62890625 110.3984375 C136.81351019 116.73221113 131.12134993 123.28909862 123.90771484 125.69897461 C117.22976061 127.96942259 114.97057554 131.40583601 111.83203125 137.60351562 C111.30996094 138.70373047 110.78789063 139.80394531 110.25 140.9375 C109.71246094 142.00291016 109.17492187 143.06832031 108.62109375 144.16601562 C105.4131965 150.63254329 102.65839307 157.19868217 100.14282227 163.96240234 C99.14366085 166.61815246 98.06316504 169.21548984 96.94921875 171.82421875 C94.22026919 178.61160612 92.58514608 185.73102314 90.8125 192.8125 C90.45436881 194.21825011 90.09564838 195.62385023 89.73632812 197.02929688 C84.63996081 217.0645457 84.78668634 236.8257458 84.75976562 257.40551758 C84.75541416 260.23703123 84.7416252 263.06823446 84.71875 265.8996582 C84.59434001 281.65377754 84.99158701 297.11072657 86.759552 312.79019165 C88.79105136 331.29114969 89.51194208 349.89961431 90.46551514 368.48083496 C90.6780167 372.58692138 90.89776835 376.69260594 91.11763382 380.7983036 C92.29757548 402.85957571 93.37929628 424.91495541 94 447 C93.34 447 92.68 447 92 447 C82.80490685 423.2436803 77.77252407 398.13037359 73.3046875 373.10546875 C71.2226991 361.48701627 68.44596355 350.06525552 65.61669922 338.60864258 C65.01927152 336.08151869 64.4932286 333.549307 64 331 C60.85883602 345.70492796 57.83640799 360.38433075 55.47192383 375.23706055 C54.16289722 383.33433479 52.50603168 391.33441358 50.78491211 399.3527832 C49.34730498 406.12357434 48.17916373 412.89074213 47.17041016 419.73681641 C45.57702976 430.24323864 43.24606481 440.61744878 41 451 C40.34 451 39.68 451 39 451 C38.9516366 414.90009097 40.34827121 379.06739364 42.9375 343.0625 C43.07419751 341.14851881 43.21075367 339.23452752 43.34716797 337.32052612 C43.61633209 333.54540275 43.88576739 329.770299 44.15560913 325.995224 C44.22107311 325.07933943 44.28653709 324.16345486 44.35398483 323.21981621 C44.48468951 321.39266287 44.61555024 319.56552069 44.74657059 317.73838997 C49.05909016 273.61417222 49.05909016 273.61417222 44.6484375 229.85791016 C43.40947983 224.3973535 42.45181852 218.88080431 41.4375 213.375 C41.22061523 212.24441162 41.00373047 211.11382324 40.78027344 209.94897461 C39.59232423 203.67415433 38.66199769 197.44470622 37.99047852 191.0949707 C36.68554613 178.84164512 33.31978324 168.05671708 28.93457031 156.57275391 C28.01783478 154.04909689 27.23271435 151.51952047 26.484375 148.94140625 C25.01699475 143.92077065 23.22702701 139.09057805 21.25 134.25 C20.940625 133.43917969 20.63125 132.62835938 20.3125 131.79296875 C16.94431724 123.57299892 11.89800892 119.76950426 4 116 C1.2403716 113.75141389 -0.28346341 111.10296998 -2 108 C-2.38575195 107.30817627 -2.77150391 106.61635254 -3.16894531 105.90356445 C-6.4247288 99.78009183 -8.23435648 94.07393459 -9.375 87.25 C-9.62358765 85.80983521 -9.62358765 85.80983521 -9.87719727 84.34057617 C-12.21527122 69.64957532 -10.63626489 55.7716736 -2.3046875 43.19140625 C-0.0260324 39.36408436 0.15695064 35.9677182 0.1875 31.5625 C0.20167969 30.63566406 0.21585937 29.70882813 0.23046875 28.75390625 C-0.12791057 24.47157711 -1.09954802 21.91697403 -4.12890625 18.83203125 C-4.93199219 18.16558594 -5.73507812 17.49914062 -6.5625 16.8125 C-11.84535476 12.39180713 -11.84535476 12.39180713 -12.375 7.625 C-12 4 -12 4 -9.9375 1.5625 C-6.06192212 -0.49897759 -4.3588842 -0.7860283 0 0 Z M12.375 47.5 C4.42743866 58.1955317 0.9792808 69.82021903 2.46484375 83.01953125 C4.07374096 91.98003176 7.72603217 101.81685284 15.05859375 107.6328125 C20.90790472 111.38925074 26.04541958 112.94932156 33 112 C42.61482699 108.61231973 46.60687633 103.35797268 50.8984375 94.40625 C56.12559717 82.98805724 56.12893304 70.52506017 51.80859375 58.75390625 C48.38648139 51.28493623 44.12066259 45.45261509 36.5859375 41.84375 C27.45620229 38.86486359 19.17929591 41.01971818 12.375 47.5 Z M95.92578125 48.75 C88.36025116 57.58924002 85.48347713 68.70753523 85.75390625 80.11328125 C86.60588712 90.10715208 89.73080947 100.65584131 96.921875 107.94921875 C102.19170277 112.16712354 107.49540684 114.27777663 114.3125 114.0625 C121.157275 113.0346157 126.60906763 109.00373437 130.859375 103.6640625 C138.14212009 92.23520016 140.17963008 79.0484641 137.30859375 65.8125 C134.6313635 57.92643264 130.4185722 48.34257885 123 44 C112.95879911 40.28103671 103.80546168 41.40583183 95.92578125 48.75 Z " fill="#E57803" transform="translate(402,339)"/>
<path d="M0 0 C0.66 0 1.32 0 2 0 C1.38942047 5.37309983 0.15653545 10.43255898 -1.28125 15.64453125 C-8.15633809 47.74073053 -3.8703377 86.90590578 14.13598633 114.75708008 C14.50361084 115.29099365 14.87123535 115.82490723 15.25 116.375 C17 119 17 119 17 121 C17.66 121 18.32 121 19 121 C20.18579102 122.32592773 20.18579102 122.32592773 21.50390625 124.18359375 C22.23649658 125.19752197 22.23649658 125.19752197 22.98388672 126.23193359 C23.5048291 126.95977051 24.02577148 127.68760742 24.5625 128.4375 C42.16648195 152.34769863 68.74607196 167.9064243 98 173 C104.11317323 173.73762068 110.22882066 173.89476131 116.38085938 173.95605469 C118.95244758 173.99920214 121.51005565 174.11998947 124.078125 174.2578125 C142.26881077 175.02854516 161.42480553 171.71316463 177.265625 162.41796875 C180.21670938 160.88762071 182.71414371 160.37427653 186 160 C185.875 162.25 185.875 162.25 185 165 C180.578261 168.48051125 176.25169051 170.11658364 170.9375 171.625 C165.77021616 173.09224013 165.77021616 173.09224013 160.74609375 174.97167969 C149.6944046 179.11016784 137.31345278 179.49200092 125.64282227 179.39111328 C123.43378274 179.37497284 121.22656455 179.39111537 119.01757812 179.41015625 C105.11798666 179.4330646 92.05741367 177.30083589 79 172.375 C77.6070874 171.85776367 77.6070874 171.85776367 76.18603516 171.33007812 C67.60149563 168.03527122 59.78108781 163.86589523 52 159 C50.33324219 157.99453125 50.33324219 157.99453125 48.6328125 156.96875 C41.9177403 152.74880438 37.01464157 148.10016398 32 142 C31.175 141.175 30.35 140.35 29.5 139.5 C23.17452767 133.17452767 17.73706274 126.58660691 13 119 C12.6272998 118.43104004 12.25459961 117.86208008 11.87060547 117.27587891 C-7.30047026 87.58327879 -10.57303619 49.28023797 -5 15 C-3.86933732 9.83996018 -2.36725447 4.73450895 0 0 Z " fill="#C36C13" transform="translate(202,343)"/>
<path d="M0 0 C0.66 0 1.32 0 2 0 C1.32438689 4.03115821 0.10447375 7.63121755 -1.375 11.4375 C-1.79523438 12.52933594 -2.21546875 13.62117188 -2.6484375 14.74609375 C-4 18 -4 18 -5.6015625 21.140625 C-6.82393335 23.63999781 -7.51033801 25.60405711 -8 28.3125 C-8.60368752 31.35609123 -9.38160364 34.10894541 -10.5 37 C-18.7469305 61.53147854 -16.42987325 94.68946907 -5.52734375 117.96484375 C-5.02332031 118.96644531 -4.51929688 119.96804688 -4 121 C-3.50628906 121.99128906 -3.01257813 122.98257813 -2.50390625 124.00390625 C-1.645472 125.71347927 -0.77401403 127.4166526 0.1171875 129.109375 C1 131 1 131 1 133 C1.66 133 2.32 133 3 133 C3.25652344 133.60585938 3.51304687 134.21171875 3.77734375 134.8359375 C7.07790409 142.05938605 11.47091966 147.35028518 17 153 C17.52335937 153.53882813 18.04671875 154.07765625 18.5859375 154.6328125 C20.2911222 156.3586661 22.03687979 158.03433635 23.8125 159.6875 C25 161 25 161 25 163 C25.804375 163.37125 25.804375 163.37125 26.625 163.75 C30.24935694 165.65755628 33.61527999 167.88983655 36.8125 170.453125 C41.13609133 173.90502453 45.20245822 176.11231863 50.3984375 178.00390625 C53.02192243 179.00839372 55.43564146 180.22583366 57.9375 181.5 C72.45573871 188.04951104 88.0338269 188.56263106 103.6875 188.25 C105.47979721 188.22985635 107.2721169 188.21161981 109.06445312 188.1953125 C113.37687699 188.15204905 117.68817505 188.08348161 122 188 C122 189.65 122 191.3 122 193 C117.10741031 194.96612667 112.72331167 195.25116205 107.5234375 195.1171875 C106.71693756 195.10164825 105.91043762 195.08610901 105.07949829 195.07009888 C103.37660041 195.03341488 101.67381638 194.99105737 99.97119141 194.94335938 C97.40390875 194.87576119 94.83744386 194.83922235 92.26953125 194.8046875 C82.84156038 194.60840016 74.79423086 193.72824565 66 190 C64.88625 189.59136719 63.7725 189.18273437 62.625 188.76171875 C56.33783651 186.18884679 50.56526143 183.1406047 44.75390625 179.625 C42.43170968 178.25473933 40.13108344 177.06748078 37.6875 175.9375 C34.15617876 174.23805165 31.42281758 172.00761897 28.54296875 169.3671875 C26.83611963 167.79206386 26.83611963 167.79206386 24 166 C24 165.34 24 164.68 24 164 C23.40832031 163.73662842 22.81664062 163.47325684 22.20703125 163.2019043 C18.44910137 161.15541217 15.87921428 157.92964098 13 154.8125 C12.38382813 154.16474609 11.76765625 153.51699219 11.1328125 152.84960938 C7.36371917 148.80147372 4.58272935 144.88704521 2 140 C1.25890761 138.86911226 0.51044432 137.74296665 -0.25 136.625 C-7.38528686 125.20412289 -12.06798355 113.0932375 -15 100 C-15.21269531 99.15953125 -15.42539063 98.3190625 -15.64453125 97.453125 C-21.84803363 72.28207935 -18.31772394 43.68401691 -8.74804688 19.87548828 C-8.00373506 18.00936448 -7.30103392 16.13230112 -6.609375 14.24609375 C-2.85736898 4.13149921 -2.85736898 4.13149921 0 0 Z " fill="#BF6A13" transform="translate(223,318)"/>
<path d="M0 0 C-1.55603771 3.81936528 -3.95604931 6.26044438 -7 9 C-7.66 9 -8.32 9 -9 9 C-9 9.66 -9 10.32 -9 11 C-10.50390625 12.41015625 -10.50390625 12.41015625 -12.5625 14.0625 C-20.40931157 20.76268242 -25.62177397 29.29296007 -31 38 C-31.57451904 38.88981567 -31.57451904 38.88981567 -32.16064453 39.79760742 C-39.71018354 51.57786951 -45.65630749 64.15782674 -48 78 C-48.17426514 78.98500488 -48.34853027 79.97000977 -48.52807617 80.98486328 C-53.43491841 110.38869077 -50.04223652 143.07740843 -32.34765625 167.90625 C-31 170 -31 170 -30.49609375 172.21875 C-30.33238281 172.8065625 -30.16867188 173.394375 -30 174 C-29.01 174.33 -28.02 174.66 -27 175 C-25.45703125 176.8203125 -25.45703125 176.8203125 -23.8125 179.125 C-20.31952516 183.75539312 -16.52168121 187.39135057 -12 191 C-11.3503125 191.52464844 -10.700625 192.04929687 -10.03125 192.58984375 C-5.29044023 196.28654661 -0.32924847 199.23482391 5 202 C5.96421875 202.50789062 6.9284375 203.01578125 7.921875 203.5390625 C16.77528234 208.10058963 24.88316737 210.99392557 34.71484375 212.5703125 C37 213 37 213 39 214 C38.34 215.65 37.68 217.3 37 219 C15.21047822 213.70580798 -2.44056853 205.3111051 -19 190 C-19.61101562 189.44183594 -20.22203125 188.88367188 -20.8515625 188.30859375 C-22 187 -22 187 -22 185 C-22.87011719 184.64421875 -22.87011719 184.64421875 -23.7578125 184.28125 C-31.12692317 180.07032962 -36.05277108 170.28263736 -40 163 C-40.9590625 161.35644531 -40.9590625 161.35644531 -41.9375 159.6796875 C-57.43407359 131.46485459 -56.365949 96.91956529 -48.171875 66.73046875 C-46.66293837 61.92702048 -44.69762868 57.47187116 -42.46484375 52.96484375 C-41.43584549 50.88215127 -40.48908859 48.75778403 -39.60546875 46.609375 C-37.82407316 42.60448564 -35.71733318 39.0072949 -33.375 35.3125 C-32.94058594 34.62349609 -32.50617188 33.93449219 -32.05859375 33.22460938 C-28.0531294 26.94938189 -23.92158156 20.6004204 -19 15 C-18.34 15 -17.68 15 -17 15 C-17 14.34 -17 13.68 -17 13 C-15.49609375 11.484375 -15.49609375 11.484375 -13.4375 9.75 C-12.71175781 9.13511719 -11.98601562 8.52023437 -11.23828125 7.88671875 C-10.13033203 6.95279297 -10.13033203 6.95279297 -9 6 C-8.33355469 5.40832031 -7.66710937 4.81664062 -6.98046875 4.20703125 C-6.36816406 3.66433594 -5.75585938 3.12164062 -5.125 2.5625 C-4.57070313 2.06878906 -4.01640625 1.57507813 -3.4453125 1.06640625 C-2 0 -2 0 0 0 Z " fill="#A85F13" transform="translate(269,282)"/>
<path d="M0 0 C0 0.66 0 1.32 0 2 C-0.53367187 2.268125 -1.06734375 2.53625 -1.6171875 2.8125 C-7.21772809 5.75811305 -11.93433064 9.21266328 -16.73828125 13.328125 C-18.92262586 14.94280461 -20.34848879 15.58740787 -23 16 C-23 16.66 -23 17.32 -23 18 C-24.5390625 19.48046875 -24.5390625 19.48046875 -26.625 21.1875 C-30.08787267 24.1100663 -32.97510908 27.15830902 -35.7734375 30.71484375 C-36.17820312 31.13894531 -36.58296875 31.56304687 -37 32 C-37.66 32 -38.32 32 -39 32 C-39.2475 32.5775 -39.495 33.155 -39.75 33.75 C-41 36 -41 36 -42.875 37.75 C-45.12867162 40.13624054 -46.41806816 42.536639 -47.80859375 45.4921875 C-48.70065544 47.36990424 -49.6380586 49.22619575 -50.59765625 51.0703125 C-57.04723215 63.51586776 -62.44322865 75.94862224 -64 90 C-64.10957031 90.80308594 -64.21914062 91.60617187 -64.33203125 92.43359375 C-66.77862271 112.29991637 -64.66819583 131.56860017 -57 150 C-56.71020264 150.72203613 -56.42040527 151.44407227 -56.12182617 152.18798828 C-53.73703369 157.88810389 -50.67970283 162.75546026 -47.0625 167.75 C-46.55009766 168.47832031 -46.03769531 169.20664062 -45.50976562 169.95703125 C-42.6204027 174.00287362 -39.64361875 177.58971644 -36 181 C-35.31679688 181.65742188 -34.63359375 182.31484375 -33.9296875 182.9921875 C-28.98606395 187.522276 -23.93075622 191.05833805 -18.08984375 194.359375 C-17.05537109 195.17148437 -17.05537109 195.17148437 -16 196 C-16 197.32 -16 198.64 -16 200 C-19.57724434 200 -20.96088858 199.07708484 -24 197.25 C-25.299375 196.48429687 -25.299375 196.48429687 -26.625 195.703125 C-29.00542044 193.99611298 -30.32176836 192.36724169 -32 190 C-32.763125 189.566875 -33.52625 189.13375 -34.3125 188.6875 C-37.41845258 186.73725071 -39.2863683 184.51132597 -41.58984375 181.6953125 C-43.05189592 179.87652333 -43.05189592 179.87652333 -45.125 177.9375 C-47.48892619 175.49477627 -49.17826311 172.8706157 -51 170 C-51.53560547 169.22462891 -51.53560547 169.22462891 -52.08203125 168.43359375 C-69.06704978 143.04127508 -71.84010688 112.75150788 -66.29296875 83.23828125 C-64.50515026 75.1645256 -61.84336347 67.67904774 -58.625 60.0625 C-58.26204834 59.19866699 -57.89909668 58.33483398 -57.52514648 57.44482422 C-53.85055104 49.06212813 -48.770824 41.8782205 -43.25 34.625 C-41.09072983 31.78269539 -38.98016342 28.97024513 -37 26 C-36.34 26 -35.68 26 -35 26 C-35 25.34 -35 24.68 -35 24 C-33.01739574 22.31267723 -31.0167658 20.64633943 -29 19 C-28.67 18.34 -28.34 17.68 -28 17 C-27.34 17 -26.68 17 -26 17 C-25.505 15.515 -25.505 15.515 -25 14 C-23.22265625 12.61328125 -23.22265625 12.61328125 -21.0625 11.3125 C-20.35222656 10.87550781 -19.64195312 10.43851562 -18.91015625 9.98828125 C-17 9 -17 9 -15 9 C-15 8.34 -15 7.68 -15 7 C-13.05017465 5.59431196 -11.04049422 4.2704964 -9 3 C-7.700625 2.13375 -7.700625 2.13375 -6.375 1.25 C-4 0 -4 0 0 0 Z " fill="#B96610" transform="translate(294,278)"/>
<path d="M0 0 C0 0.66 0 1.32 0 2 C-0.99257813 2.15855469 -1.98515625 2.31710937 -3.0078125 2.48046875 C-15.78576185 4.62939393 -27.36788947 8.15996124 -38.67578125 14.6640625 C-41 16 -41 16 -44.1875 17.5 C-53.83289288 22.64420954 -63.33948669 30.63838183 -69 40 C-69.91458984 40.87785156 -69.91458984 40.87785156 -70.84765625 41.7734375 C-73.39562923 44.40927161 -75.15439761 47.18380032 -77.0625 50.3125 C-78.06990234 51.94638672 -78.06990234 51.94638672 -79.09765625 53.61328125 C-82.37949065 59.45588993 -84.7035978 65.68128112 -87.0625 71.9375 C-87.31837891 72.60201172 -87.57425781 73.26652344 -87.83789062 73.95117188 C-90.98438721 82.29060113 -92.39561499 89.99000826 -92.75 98.875 C-92.79020264 99.88151611 -92.83040527 100.88803223 -92.87182617 101.92504883 C-93.28257178 115.55511909 -92.12258254 128.26469064 -87 141 C-86.443125 142.50820313 -86.443125 142.50820313 -85.875 144.046875 C-83.13804991 151.14133772 -79.55138333 156.93867907 -75 163 C-71 168.6374269 -71 168.6374269 -71 171 C-72.32 171.33 -73.64 171.66 -75 172 C-76.61274714 169.81840396 -78.21511044 167.63030041 -79.8125 165.4375 C-80.26431641 164.82841797 -80.71613281 164.21933594 -81.18164062 163.59179688 C-84.12545807 159.53061807 -86.13629798 155.65377357 -88 151 C-88.61681641 149.87078125 -88.61681641 149.87078125 -89.24609375 148.71875 C-100.45972438 127.83566083 -98.99080294 99.21358723 -93 77 C-86.77380304 58.30583583 -76.10091203 41.74838923 -62 28 C-61.2575 27.195625 -60.515 26.39125 -59.75 25.5625 C-56.80003951 22.81367318 -53.75103284 20.70578668 -50.3671875 18.53125 C-48.87164107 17.56383383 -47.39433472 16.56705296 -45.9453125 15.53125 C-32.38262438 5.90941843 -16.69209369 -0.29284375 0 0 Z " fill="#A85F15" transform="translate(332,278)"/>
<path d="M0 0 C1.43597314 -0.0114568 2.87190584 -0.03180774 4.30761719 -0.06152344 C13.76506695 -0.25675853 21.75236293 0.64696921 30.61010742 4.29516602 C32.40132398 4.96304109 34.19292659 5.6298828 35.98510742 6.29516602 C39.92165782 7.9142311 43.30406079 9.59812797 46.61010742 12.29516602 C46.61010742 13.28516602 46.61010742 14.27516602 46.61010742 15.29516602 C44.12639357 14.10298337 41.8330522 12.81339178 39.48510742 11.35766602 C35.91719136 9.29484517 32.2998649 8.1700424 28.33276367 7.10375977 C25.61010742 6.29516602 25.61010742 6.29516602 22.07495117 4.73657227 C16.5381169 2.64104555 10.96613331 2.76285691 5.11010742 2.79516602 C3.95969971 2.79871094 2.80929199 2.80225586 1.62402344 2.8059082 C-7.90186402 2.99042255 -15.61774023 4.60444338 -24.38989258 8.29516602 C-25.24067383 8.60583008 -26.09145508 8.91649414 -26.96801758 9.23657227 C-45.01416724 16.2720467 -59.83667195 32.95595486 -68.00708008 50.03344727 C-71.80567839 58.99341785 -75.26416045 68.36824028 -75.70629883 78.15844727 C-75.74819336 79.04467773 -75.79008789 79.9309082 -75.83325195 80.84399414 C-75.87256836 81.75600586 -75.91188477 82.66801758 -75.95239258 83.60766602 C-75.99557617 84.53901367 -76.03875977 85.47036133 -76.08325195 86.42993164 C-76.18886483 88.71821056 -76.2909701 91.00658974 -76.38989258 93.29516602 C-77.70989258 93.29516602 -79.02989258 93.29516602 -80.38989258 93.29516602 C-80.83913543 78.71973139 -79.91541356 65.53362503 -73.38989258 52.29516602 C-72.79611691 51.02364979 -72.20373798 49.75148065 -71.61254883 48.47875977 C-68.20958039 41.31791758 -68.20958039 41.31791758 -66.38989258 38.29516602 C-64.90489258 37.80016602 -64.90489258 37.80016602 -63.38989258 37.29516602 C-62.32272554 35.49584022 -62.32272554 35.49584022 -61.38989258 33.29516602 C-55.7994354 22.87071617 -46.05153697 13.30506915 -35.38989258 8.29516602 C-34.6190332 7.92262695 -33.84817383 7.55008789 -33.05395508 7.16625977 C-21.89189707 2.00428413 -12.27829906 0.06795851 0 0 Z " fill="#D07211" transform="translate(335.389892578125,297.704833984375)"/>
<path d="M0 0 C7.57342008 -0.30881907 15.07252734 1.64737469 22.44921875 3.16796875 C22.44921875 4.15796875 22.44921875 5.14796875 22.44921875 6.16796875 C21.50046875 5.93980469 20.55171875 5.71164062 19.57421875 5.4765625 C-5.25529981 0.03762678 -30.30301015 3.8837149 -51.94921875 17.26953125 C-62.41140562 24.82097847 -71.97878936 34.01549766 -78.55078125 45.16796875 C-79.03804688 45.91046875 -79.5253125 46.65296875 -80.02734375 47.41796875 C-90.96664082 64.47205238 -95.63631586 84.08557844 -94.55078125 104.16796875 C-94.51984375 105.39 -94.51984375 105.39 -94.48828125 106.63671875 C-94.14734445 112.3474102 -92.21152612 117.60023964 -90.27856445 122.94165039 C-89.08598221 126.27574662 -88.55078125 128.56673464 -88.55078125 132.16796875 C-89.54078125 132.49796875 -90.53078125 132.82796875 -91.55078125 133.16796875 C-95.08626313 127.72595635 -96.46264962 123.13220977 -97.30078125 116.73046875 C-97.42146973 115.85084473 -97.5421582 114.9712207 -97.66650391 114.06494141 C-100.09055971 95.1216482 -98.48547433 76.6814805 -90.55078125 59.16796875 C-90.19371094 58.33394531 -89.83664063 57.49992187 -89.46875 56.640625 C-84.57193788 45.9645364 -77.1932554 36.0818034 -68.55078125 28.16796875 C-67.79539062 27.39582031 -67.04 26.62367188 -66.26171875 25.828125 C-57.72115259 17.44754062 -48.90812554 11.12983304 -37.55078125 7.16796875 C-35.23720296 6.25402699 -32.92470563 5.33734429 -30.61328125 4.41796875 C-22.00306837 1.04643558 -13.62856462 0.69485173 -4.49462891 0.26318359 C-2.99565018 0.18975962 -1.4975326 0.09861241 0 0 Z " fill="#B56512" transform="translate(343.55078125,286.83203125)"/>
<path d="M0 0 C0.99 0.33 1.98 0.66 3 1 C4.02649765 3.7650168 4.86512325 6.41218866 5.625 9.25 C5.8415625 10.01441406 6.058125 10.77882813 6.28125 11.56640625 C6.87964399 13.70511069 7.44727953 15.84909704 8 18 C8.20753906 18.80566406 8.41507813 19.61132812 8.62890625 20.44140625 C11.16435306 37.92264477 9.21381889 58.92686994 -1.0625 73.75 C-1.56910156 74.48734375 -2.07570313 75.2246875 -2.59765625 75.984375 C-3.06042969 76.64953125 -3.52320313 77.3146875 -4 78 C-4.66 78.99 -5.32 79.98 -6 81 C-6.66 81 -7.32 81 -8 81 C-8.226875 81.556875 -8.45375 82.11375 -8.6875 82.6875 C-12.95057456 90.19863137 -20.91721311 95.33239285 -28.5 99.0625 C-29.19270996 99.40611572 -29.88541992 99.74973145 -30.59912109 100.10375977 C-43.49133135 106.29431186 -56.31417066 108.18957048 -70.5 108.25 C-71.71042969 108.270625 -72.92085938 108.29125 -74.16796875 108.3125 C-75.33972656 108.31765625 -76.51148438 108.3228125 -77.71875 108.328125 C-78.78029297 108.3374707 -79.84183594 108.34681641 -80.93554688 108.35644531 C-84.48175825 107.94396375 -86.91396455 106.75106506 -90 105 C-90 104.34 -90 103.68 -90 103 C-88.741875 103.33 -87.48375 103.66 -86.1875 104 C-72.05983333 106.75759265 -58.61548329 105.16279125 -45 101 C-43.99710937 100.71511719 -42.99421875 100.43023438 -41.9609375 100.13671875 C-38.58364561 99.16537374 -35.32175656 98.1300718 -32.0625 96.8125 C-30 96 -30 96 -27 96 C-27 95.34 -27 94.68 -27 94 C-21.25 91 -21.25 91 -19 91 C-19 90.34 -19 89.68 -19 89 C-16.76064071 86.51182301 -14.84512945 84.41049145 -11.8125 82.9375 C-9.39282901 81.68594604 -9.205844 80.4563489 -8 78 C-6.9426463 76.37518621 -5.88515186 74.75046331 -4.82617188 73.12670898 C0.57740834 64.68416404 3.18265495 56.85476989 5 47 C5.18949219 45.97261719 5.37898437 44.94523438 5.57421875 43.88671875 C7.55408499 30.4635889 5.1790046 15.50426337 0 3 C0 2.01 0 1.02 0 0 Z " fill="#B56516" transform="translate(528,727)"/>
<path d="M0 0 C0.66 0 1.32 0 2 0 C4.43808849 19.39218074 -1.17550468 36.83905881 -12 53 C-14.72862955 56.10206563 -17.48556255 58.8081204 -21 61 C-21.66 61 -22.32 61 -23 61 C-23.27457031 61.88171875 -23.27457031 61.88171875 -23.5546875 62.78125 C-25.6625002 66.01702733 -28.68919896 67.03610812 -32.125 68.5 C-33.41980878 69.07169985 -34.71407815 69.64462291 -36.0078125 70.21875 C-36.6663623 70.50403564 -37.32491211 70.78932129 -38.00341797 71.08325195 C-40.02534039 72.01163526 -41.94155311 73.06519223 -43.890625 74.13671875 C-48.36580242 76.39227787 -52.6720821 76.92409226 -57.625 77.3125 C-58.50164307 77.38807129 -59.37828613 77.46364258 -60.28149414 77.54150391 C-78.03618691 78.90312489 -92.20611968 74.75476939 -108 67 C-108 66.34 -108 65.68 -108 65 C-109.32 64.67 -110.64 64.34 -112 64 C-112 63.34 -112 62.68 -112 62 C-112.66 62 -113.32 62 -114 62 C-114 61.34 -114 60.68 -114 60 C-111.03824877 60.61277612 -109.61941217 61.25372522 -107 63 C-107 63.66 -107 64.32 -107 65 C-106.13117188 65.2784375 -105.26234375 65.556875 -104.3671875 65.84375 C-101.20695295 66.92893495 -98.18764861 68.16770724 -95.125 69.5 C-85.42024335 73.52189793 -77.42977353 74.33680428 -67.05517578 74.03564453 C-65.17096654 74.00296521 -63.28576976 74.05769939 -61.40234375 74.12109375 C-49.71964439 74.1340314 -40.38587201 69.17405257 -30.12207031 64.015625 C-28 63 -28 63 -25 62 C-24.731875 61.236875 -24.46375 60.47375 -24.1875 59.6875 C-22.82580599 56.60577145 -21.47487344 56.03193016 -18.703125 54.31640625 C-9.49919066 47.20235608 -3.01898205 31.03328763 -1.1953125 19.72265625 C-0.87381615 15.24099715 -0.88709963 10.75852827 -0.98461914 6.26757812 C-1.02172157 4.51210331 -1.01479017 2.75580457 -1 1 C-0.67 0.67 -0.34 0.34 0 0 Z " fill="#CF7211" transform="translate(529,752)"/>
<path d="M0 0 C-0.125 2.25 -0.125 2.25 -1 5 C-5.421739 8.48051125 -9.74830949 10.11658364 -15.0625 11.625 C-20.23059352 13.09282332 -20.23059352 13.09282332 -25.25610352 14.97143555 C-36.48891895 19.18211723 -48.99958003 19.46818361 -60.8515625 19.33618164 C-63.15919871 19.31214376 -65.46570398 19.31571232 -67.7734375 19.32226562 C-69.26823596 19.31669943 -70.76302967 19.30959627 -72.2578125 19.30078125 C-72.93393585 19.30169266 -73.6100592 19.30260406 -74.30667114 19.30354309 C-78.90476529 19.23562542 -82.66966082 18.40874479 -87 17 C-87 16.34 -87 15.68 -87 15 C-83.16700738 13.72703459 -79.40664932 13.97665604 -75.4296875 14.11328125 C-52.12274231 14.6802882 -29.37731869 14.36699413 -8.5390625 2.41796875 C-5.61828165 0.78682498 -3.33107997 0 0 0 Z " fill="#C96E0D" transform="translate(388,503)"/>
<path d="M0 0 C0.99 0.99 0.99 0.99 2 2 C0.43595186 7.61282525 -1.12884097 12.89571728 -4 18 C-4.47953125 18.85335937 -4.9590625 19.70671875 -5.453125 20.5859375 C-8.56055659 25.97114661 -8.56055659 25.97114661 -10 28 C-10.66 28 -11.32 28 -12 28 C-12.2475 28.61875 -12.495 29.2375 -12.75 29.875 C-14.20628639 32.35068687 -15.37812506 32.95125002 -18 34 C-18 34.66 -18 35.32 -18 36 C-21.48961568 38.60438229 -25.26104272 40.7735982 -29 43 C-29.66644531 43.40992188 -30.33289063 43.81984375 -31.01953125 44.2421875 C-47.40403877 53.45177996 -68.55486844 51.73190046 -85.96875 47.02734375 C-96.52221665 43.45058894 -106.10800877 37.90809734 -114 30 C-114 29.34 -114 28.68 -114 28 C-114.5775 27.773125 -115.155 27.54625 -115.75 27.3125 C-118.6168271 25.64018419 -120.13711036 23.72780269 -122 21 C-122 20.01 -122 19.02 -122 18 C-121.34 18 -120.68 18 -120 18 C-117 21.46153846 -117 21.46153846 -117 24 C-116.34 24 -115.68 24 -115 24 C-115 24.66 -115 25.32 -115 26 C-114.38125 26.309375 -113.7625 26.61875 -113.125 26.9375 C-111.75 27.625 -110.375 28.3125 -109 29 C-109 29.66 -109 30.32 -109 31 C-108.34 31 -107.68 31 -107 31 C-106.071875 32.051875 -106.071875 32.051875 -105.125 33.125 C-96.85619132 41.81467618 -80.80997101 46.70110858 -69.06396484 47.09960938 C-51.66257921 47.15206269 -36.89965961 46.38711749 -23 35 C-22.17113281 34.32195313 -21.34226562 33.64390625 -20.48828125 32.9453125 C-15.91024302 29.05865263 -15.91024302 29.05865263 -12.37109375 24.2578125 C-11.91863281 23.51273438 -11.46617187 22.76765625 -11 22 C-10.34 22 -9.68 22 -9 22 C-7.00025321 17.04692347 -5.11255549 12.05292836 -3.21875 7.05859375 C-2.24851386 4.62367421 -1.22240795 2.31465208 0 0 Z " fill="#C36B15" transform="translate(522,773)"/>
<path d="M0 0 C0.66 0 1.32 0 2 0 C3.7265625 2.08203125 3.7265625 2.08203125 5.625 4.8125 C6.25664062 5.70582031 6.88828125 6.59914063 7.5390625 7.51953125 C9 10 9 10 9 13 C9.99 13.33 10.98 13.66 12 14 C13.54296875 15.8203125 13.54296875 15.8203125 15.1875 18.125 C18.68047484 22.75539312 22.47831879 26.39135057 27 30 C27.6496875 30.52464844 28.299375 31.04929687 28.96875 31.58984375 C33.70955977 35.28654661 38.67075153 38.23482391 44 41 C45.44632812 41.76183594 45.44632812 41.76183594 46.921875 42.5390625 C55.77528234 47.10058963 63.88316737 49.99392557 73.71484375 51.5703125 C76 52 76 52 78 53 C77.34 54.65 76.68 56.3 76 58 C54.21047822 52.70580798 36.55943147 44.3111051 20 29 C19.38898438 28.44183594 18.77796875 27.88367188 18.1484375 27.30859375 C17 26 17 26 17 24 C16.42121094 23.76539063 15.84242188 23.53078125 15.24609375 23.2890625 C8.92190382 19.65952741 3.01424985 10.63714631 0 4 C0 2.68 0 1.36 0 0 Z " fill="#C66C0E" transform="translate(230,443)"/>
<path d="M0 0 C0.66 0 1.32 0 2 0 C2.45890625 0.88042969 2.9178125 1.76085937 3.390625 2.66796875 C4.00421875 3.82941406 4.6178125 4.99085938 5.25 6.1875 C5.85328125 7.33605469 6.4565625 8.48460937 7.078125 9.66796875 C10.16061131 15.1916799 10.16061131 15.1916799 15 19 C15 19.66 15 20.32 15 21 C15.66 21 16.32 21 17 21 C17 21.66 17 22.32 17 23 C17.58136719 23.26941406 18.16273438 23.53882813 18.76171875 23.81640625 C21.01156235 25.00611412 22.8286554 26.34961624 24.8125 27.9375 C30.40767762 32.19605185 36.26440608 34.15101343 43 36 C43.99 36.495 43.99 36.495 45 37 C58.85785569 39.11391019 72.81378734 39.05471485 86 34 C87.64871427 32.5286866 87.64871427 32.5286866 89 31 C91.015625 30.04296875 91.015625 30.04296875 93.25 29.1875 C100.5610613 26.0609811 104.75828266 21.66555582 109 15 C109.99 14.34 110.98 13.68 112 13 C112 18.0134701 109.14643337 21.249167 106 25 C97.98783248 32.49525348 89.26286944 36.57517366 79 40 C78.21109375 40.26683594 77.4221875 40.53367187 76.609375 40.80859375 C65.25655204 43.95011919 53.0494295 42.33480696 42 39 C41.04222656 38.77183594 40.08445312 38.54367187 39.09765625 38.30859375 C33.16220628 36.88376008 27.68726275 35.06945734 23 31 C23 30.34 23 29.68 23 29 C22.195625 28.6596875 22.195625 28.6596875 21.375 28.3125 C18.17539839 26.54429911 15.70962777 24.46329797 13 22 C13 21.34 13 20.68 13 20 C12.41476562 19.78085937 11.82953125 19.56171875 11.2265625 19.3359375 C8.28928215 17.57356929 7.14841842 15.53903115 5.375 12.625 C4.78460938 11.66851563 4.19421875 10.71203125 3.5859375 9.7265625 C0 3.56157635 0 3.56157635 0 0 Z " fill="#C36B15" transform="translate(398,776)"/>
<path d="M0 0 C2.77428577 1.26103899 4.48317435 2.31089914 6.3125 4.75 C7.63189267 9.06801237 7.58520303 12.68329318 5.75 16.8125 C3.13620627 20.07974217 1.25981046 20.7760337 -2.8125 21.5 C-6.7460317 20.88297542 -8.75536458 19.61965576 -11.625 16.91015625 C-13.70965582 14.01414292 -13.97273443 11.7033552 -13.6875 8.19140625 C-11.77826573 2.10572201 -6.1915839 -1.21139685 0 0 Z " fill="#0D0C0B" transform="translate(471,571)"/>
<path d="M0 0 C0.66 0 1.32 0 2 0 C2.18175781 0.82242188 2.36351562 1.64484375 2.55078125 2.4921875 C5.07111654 15.15973303 5.07111654 15.15973303 10 27 C10.66 27.33 11.32 27.66 12 28 C12.495 28.969375 12.99 29.93875 13.5 30.9375 C20.08102048 42.65844159 32.31794342 50.32505801 44.625 55 C60.88464322 59.18645299 77.84078029 55.78626207 92.375 48.25 C95 47 95 47 98 47 C98 47.66 98 48.32 98 49 C86.05480997 58.36244624 71.83386507 60.83571071 57 60 C55.98292969 59.94328125 54.96585937 59.8865625 53.91796875 59.828125 C40.91043635 58.48085901 29.2167574 52.12246832 20 43 C18.700625 42.0409375 18.700625 42.0409375 17.375 41.0625 C7.50057261 32.48733937 2.5767736 19.50958803 0 7 C-0.06266396 4.66750827 -0.08000376 2.33196137 0 0 Z " fill="#C06A14" transform="translate(397,752)"/>
<path d="M0 0 C5.99435015 -0.33030093 11.30610646 -0.033941 17.125 1.5 C26.51502561 3.59389768 35.8001832 3.32742609 45.375 3.1875 C47.19009295 3.17241208 49.00519816 3.15873101 50.8203125 3.14648438 C55.21385131 3.11383589 59.60678553 3.06228565 64 3 C64 4.65 64 6.3 64 8 C59.10741031 9.96612667 54.72331167 10.25116205 49.5234375 10.1171875 C48.71693756 10.10164825 47.91043762 10.08610901 47.07949829 10.07009888 C45.37660041 10.03341488 43.67381638 9.99105737 41.97119141 9.94335938 C39.40390875 9.87576119 36.83744386 9.83922235 34.26953125 9.8046875 C24.85347632 9.60805434 16.77998169 8.7426756 8 5 C6.89434692 4.57702637 6.89434692 4.57702637 5.76635742 4.14550781 C1.16559339 2.33118677 1.16559339 2.33118677 0 0 Z " fill="#E37A0A" transform="translate(281,503)"/>
<path d="M0 0 C0.33 0 0.66 0 1 0 C1.03963867 0.89082275 1.07927734 1.78164551 1.12011719 2.69946289 C1.27862854 6.08315481 1.45203229 9.46546136 1.63476562 12.84790039 C1.71017617 14.29715695 1.78005815 15.74671437 1.84375 17.1965332 C2.72343713 36.99636625 7.86180957 55.01168137 20 71 C24 76.63049853 24 76.63049853 24 79 C22.02 79.495 22.02 79.495 20 80 C18.38725286 77.81840396 16.78488956 75.63030041 15.1875 73.4375 C14.73568359 72.82841797 14.28386719 72.21933594 13.81835938 71.59179688 C10.87454193 67.53061807 8.86370202 63.65377357 7 59 C6.58878906 58.2471875 6.17757812 57.494375 5.75390625 56.71875 C-2.75642082 40.87000975 -4.06607432 18.47000619 -1 1 C-0.67 0.67 -0.34 0.34 0 0 Z " fill="#C36A0D" transform="translate(237,370)"/>
<path d="M0 0 C0.66 0 1.32 0 2 0 C2.0093457 0.63389648 2.01869141 1.26779297 2.02832031 1.92089844 C2.30684605 16.95582676 2.5773006 29.75546071 11.828125 42.2578125 C13 44 13 44 13 46 C13.66 46 14.32 46 15 46 C16.68816933 47.64488294 18.35353315 49.31337542 20 51 C20.99 51.66 21.98 52.32 23 53 C23 53.66 23 54.32 23 55 C23.53625 55.2475 24.0725 55.495 24.625 55.75 C27 57 27 57 29.71484375 58.9375 C41.11635089 66.09564004 56.07336048 66.50035388 68.9375 64 C70.29536354 63.68206122 71.65145188 63.35538209 73 63 C73 63.99 73 64.98 73 66 C67.55305584 69.44913405 63.19838832 69.33496838 57 68.9375 C56.07388916 68.88585693 55.14777832 68.83421387 54.19360352 68.78100586 C45.01864974 68.14514949 36.18827607 66.37886226 28 62 C28 61.34 28 60.68 28 60 C27.46375 59.7525 26.9275 59.505 26.375 59.25 C23.4176018 57.69347463 20.70275949 55.96564327 18 54 C18 53.34 18 52.68 18 52 C17.443125 51.79375 16.88625 51.5875 16.3125 51.375 C13.00396768 49.40776457 11.2844372 47.10937286 9 44 C9 43.01 9 42.02 9 41 C8.34 41 7.68 41 7 41 C6.19770863 39.50565577 5.40878133 38.00413528 4.625 36.5 C4.18414062 35.6646875 3.74328125 34.829375 3.2890625 33.96875 C-0.05984439 26.25611594 -0.25997239 19.2956109 -0.125 11 C-0.11597656 9.93910156 -0.10695313 8.87820313 -0.09765625 7.78515625 C-0.07427524 5.18986362 -0.04150556 2.59505535 0 0 Z " fill="#D27310" transform="translate(403,738)"/>
<path d="M0 0 C3.24446116 1.05633619 5.45331075 2.05133336 7.1953125 5.07421875 C7.56398437 5.89535156 7.93265625 6.71648437 8.3125 7.5625 C11.11129076 13.75788149 15.28278728 18.17986628 20 23 C20.52335937 23.53882813 21.04671875 24.07765625 21.5859375 24.6328125 C23.2911222 26.3586661 25.03687979 28.03433635 26.8125 29.6875 C28 31 28 31 28 33 C28.53625 33.2475 29.0725 33.495 29.625 33.75 C33.24935694 35.65755628 36.61527999 37.88983655 39.8125 40.453125 C44.11371142 43.88715669 48.16416621 46.08636453 53.32421875 47.98828125 C57.98697917 49.75128117 62.4798251 51.90318883 67 54 C63.89227035 56.07181977 62.80478248 56.36518467 59.21875 55.7421875 C55.13323712 54.37555467 51.58591365 52.00859665 47.9296875 49.765625 C45.5448088 48.32833811 43.21190826 47.09656683 40.6875 45.9375 C37.15617876 44.23805165 34.42281758 42.00761897 31.54296875 39.3671875 C29.83611963 37.79206386 29.83611963 37.79206386 27 36 C27 35.34 27 34.68 27 34 C26.40832031 33.73662842 25.81664062 33.47325684 25.20703125 33.2019043 C21.44910137 31.15541217 18.87921428 27.92964098 16 24.8125 C15.07574219 23.84086914 15.07574219 23.84086914 14.1328125 22.84960938 C10.3609863 18.79853853 7.58478925 14.89014182 5 10 C3.6717105 7.88522329 2.31741101 5.79085002 0.953125 3.69921875 C0 2 0 2 0 0 Z " fill="#BF6911" transform="translate(220,448)"/>
<path d="M0 0 C0.66 0.66 1.32 1.32 2 2 C1.401875 2.598125 0.80375 3.19625 0.1875 3.8125 C-6.10031955 12.97475135 -6.2649142 25.04308796 -4.3125 35.6875 C-2.33976009 43.23114629 1.07831727 49.85748605 7 55 C8.8125 56.6875 8.8125 56.6875 10 58 C10 58.66 10 59.32 10 60 C10.55042969 60.268125 11.10085938 60.53625 11.66796875 60.8125 C14.26205418 62.13344132 16.77892507 63.56657713 19.3125 65 C27.14339545 69.25164865 34.2086037 70.39588958 43 71 C43 71.99 43 72.98 43 74 C32.24414205 74.96034446 20.83668296 71.7591053 12.375 65 C10.90601818 63.67840766 9.44621099 62.3464723 8 61 C6.92016863 60.20356329 5.83730395 59.41120439 4.75 58.625 C-3.62622698 50.62951061 -8.03501228 39.09924977 -8.42163086 27.65380859 C-8.48524808 18.76892985 -8.15450345 9.48223151 -2.3125 2.3125 C-1.549375 1.549375 -0.78625 0.78625 0 0 Z " fill="#C66E11" transform="translate(417,727)"/>
<path d="M0 0 C0.99 0.33 1.98 0.66 3 1 C2.56429688 1.67804688 2.12859375 2.35609375 1.6796875 3.0546875 C0.42370813 5.01749509 -0.82441674 6.98534166 -2.06640625 8.95703125 C-3.21418773 10.76333787 -4.38156101 12.55781032 -5.58984375 14.32421875 C-12.20844531 24.38379087 -16.77114509 37.78964127 -17.31640625 49.86328125 C-17.35830078 50.74951172 -17.40019531 51.63574219 -17.44335938 52.54882812 C-17.50233398 53.9168457 -17.50233398 53.9168457 -17.5625 55.3125 C-17.60568359 56.24384766 -17.64886719 57.17519531 -17.69335938 58.13476562 C-17.79897225 60.42304454 -17.90107752 62.71142372 -18 65 C-19.32 65 -20.64 65 -22 65 C-22.44924285 50.42456538 -21.52552098 37.23845902 -15 24 C-14.40622434 22.72848377 -13.8138454 21.45631463 -13.22265625 20.18359375 C-9.81968782 13.02275156 -9.81968782 13.02275156 -8 10 C-7.01 9.67 -6.02 9.34 -5 9 C-3.93283296 7.20067421 -3.93283296 7.20067421 -3 5 C-2.01120795 3.32665961 -1.01351664 1.65848177 0 0 Z " fill="#B06213" transform="translate(277,326)"/>
<path d="M0 0 C2.96175123 0.61277612 4.38058783 1.25372522 7 3 C7 3.66 7 4.32 7 5 C7.86882812 5.2784375 8.73765625 5.556875 9.6328125 5.84375 C12.79304705 6.92893495 15.81235139 8.16770724 18.875 9.5 C28.54973135 13.50945468 36.54994512 14.34686508 46.89648438 14.05761719 C48.92536555 14.0020443 50.95492402 13.97316771 52.984375 13.9453125 C60.50508938 13.68438976 66.11963399 12.63700844 72.73046875 8.9609375 C75.33630217 7.857607 76.40132625 8.0083222 79 9 C69.75923822 18.24076178 54.26614009 17.93452562 42.0546875 18.03125 C28.93232742 17.4441198 17.63617413 12.71334245 6 7 C6 6.34 6 5.68 6 5 C4.68 4.67 3.36 4.34 2 4 C2 3.34 2 2.68 2 2 C1.34 2 0.68 2 0 2 C0 1.34 0 0.68 0 0 Z " fill="#C36C14" transform="translate(415,812)"/>
<path d="M0 0 C3.24550824 1.19894205 5.859963 2.49754684 8.625 4.5625 C23.83661109 14.76176055 40.21617006 19.36046787 58 23 C56.68 23.33 55.36 23.66 54 24 C54 24.66 54 25.32 54 26 C46.98737639 25.48635921 41.01655111 23.94248364 34.4375 21.5 C33.48093506 21.14832764 32.52437012 20.79665527 31.53881836 20.43432617 C22.86216081 17.13752982 14.78855675 13.0430298 7 8 C6.01362549 7.36843994 6.01362549 7.36843994 5.00732422 6.72412109 C3.27942298 5.56598133 1.63180234 4.29001998 0 3 C0 2.01 0 1.02 0 0 Z " fill="#BD670F" transform="translate(247,494)"/>
<path d="M0 0 C4.59751661 2.49579473 8.0378102 5.52953212 11.296875 9.6328125 C15.49286996 14.88959271 20.42323662 18.30264979 26 22 C27.37952864 22.97277597 28.75517111 23.95111206 30.125 24.9375 C31.07375 25.618125 32.0225 26.29875 33 27 C32.34 28.32 31.68 29.64 31 31 C25.52711874 28.19798018 21.26657922 25.49720513 17 21 C16.030625 20.38125 15.06125 19.7625 14.0625 19.125 C10.87919191 16.91617398 8.80175536 14.64567394 6.38671875 11.66015625 C4.93797985 9.8436104 4.93797985 9.8436104 2.6875 7.9375 C0.47982274 5.40275945 0.29932133 3.29253466 0 0 Z " fill="#C96D0E" transform="translate(246,448)"/>
<path d="M0 0 C-0.125 2.25 -0.125 2.25 -1 5 C-5.421739 8.48051125 -9.74830949 10.11658364 -15.0625 11.625 C-20.46841642 13.18374696 -20.46841642 13.18374696 -25.7265625 15.171875 C-29.37764088 16.50182108 -32.21739472 15.64111954 -36 15 C-34 13 -34 13 -31.375 12.875 C-30.59125 12.91625 -29.8075 12.9575 -29 13 C-29 12.01 -29 11.02 -29 10 C-28.01773437 9.77957031 -28.01773437 9.77957031 -27.015625 9.5546875 C-20.37302307 7.92218364 -14.65661028 5.53123479 -8.62890625 2.3046875 C-5.68121929 0.84179382 -3.2863367 0 0 0 Z " fill="#D37310" transform="translate(388,503)"/>
<path d="M0 0 C-1.55603771 3.81936528 -3.95604931 6.26044438 -7 9 C-7.66 9 -8.32 9 -9 9 C-9 9.66 -9 10.32 -9 11 C-10.50390625 12.41015625 -10.50390625 12.41015625 -12.5625 14.0625 C-20.41295507 20.7657935 -25.61178813 29.29398703 -31 38 C-31.48855469 38.75925781 -31.97710937 39.51851563 -32.48046875 40.30078125 C-34.71297084 43.77719947 -36.64756553 47.06564519 -38 51 C-38.66 50.67 -39.32 50.34 -40 50 C-38.18240804 38.15431447 -27.03233584 23.69743372 -19 15 C-18.34 15 -17.68 15 -17 15 C-17 14.34 -17 13.68 -17 13 C-15.49609375 11.484375 -15.49609375 11.484375 -13.4375 9.75 C-12.71175781 9.13511719 -11.98601562 8.52023437 -11.23828125 7.88671875 C-10.13033203 6.95279297 -10.13033203 6.95279297 -9 6 C-8.33355469 5.40832031 -7.66710937 4.81664062 -6.98046875 4.20703125 C-6.36816406 3.66433594 -5.75585938 3.12164062 -5.125 2.5625 C-4.57070313 2.06878906 -4.01640625 1.57507813 -3.4453125 1.06640625 C-2 0 -2 0 0 0 Z " fill="#C66D14" transform="translate(269,282)"/>
<path d="M0 0 C0 0.66 0 1.32 0 2 C-0.53367187 2.268125 -1.06734375 2.53625 -1.6171875 2.8125 C-7.21772809 5.75811305 -11.93433064 9.21266328 -16.73828125 13.328125 C-18.92262586 14.94280461 -20.34848879 15.58740787 -23 16 C-23 16.66 -23 17.32 -23 18 C-24.5390625 19.48046875 -24.5390625 19.48046875 -26.625 21.1875 C-30.08787267 24.1100663 -32.97510908 27.15830902 -35.7734375 30.71484375 C-36.17820312 31.13894531 -36.58296875 31.56304687 -37 32 C-37.66 32 -38.32 32 -39 32 C-39.33 32.99 -39.66 33.98 -40 35 C-40.66 35 -41.32 35 -42 35 C-40.7580393 31.56072421 -39.44259716 28.74792181 -37 26 C-36.34 26 -35.68 26 -35 26 C-35 25.34 -35 24.68 -35 24 C-33.01739574 22.31267723 -31.0167658 20.64633943 -29 19 C-28.67 18.34 -28.34 17.68 -28 17 C-27.34 17 -26.68 17 -26 17 C-25.67 16.01 -25.34 15.02 -25 14 C-23.22265625 12.61328125 -23.22265625 12.61328125 -21.0625 11.3125 C-20.35222656 10.87550781 -19.64195312 10.43851562 -18.91015625 9.98828125 C-17 9 -17 9 -15 9 C-15 8.34 -15 7.68 -15 7 C-13.05017465 5.59431196 -11.04049422 4.2704964 -9 3 C-7.700625 2.13375 -7.700625 2.13375 -6.375 1.25 C-4 0 -4 0 0 0 Z " fill="#D77610" transform="translate(294,278)"/>
<path d="M0 0 C8.71703754 -0.48032656 16.54704214 0.92686581 25 3 C24.01 3.99 23.02 4.98 22 6 C26.62 6.66 31.24 7.32 36 8 C36 8.33 36 8.66 36 9 C25.81445196 9.46532961 17.56000872 9.02450215 8 5 C7.25492187 4.71511719 6.50984375 4.43023437 5.7421875 4.13671875 C1.16495902 2.32991803 1.16495902 2.32991803 0 0 Z " fill="#DB770F" transform="translate(281,503)"/>
<path d="M0 0 C0.66 0 1.32 0 2 0 C2.08302368 1.42094971 2.08302368 1.42094971 2.16772461 2.87060547 C2.37627052 6.43046223 2.58753309 9.99015373 2.79956055 13.54980469 C2.89045553 15.08198837 2.98064202 16.61421427 3.07006836 18.14648438 C3.73271544 29.64683176 3.73271544 29.64683176 4.86132812 41.109375 C5.03946231 43.53802138 4.69797698 45.67341007 4 48 C3.67 48 3.34 48 3 48 C-0.04537007 31.70200554 -2.32454659 16.56239447 0 0 Z " fill="#BB6710" transform="translate(226,371)"/>
<path d="M0 0 C0.66 0 1.32 0 2 0 C5 3.46153846 5 3.46153846 5 6 C5.66 6 6.32 6 7 6 C7 6.66 7 7.32 7 8 C7.61875 8.309375 8.2375 8.61875 8.875 8.9375 C10.25 9.625 11.625 10.3125 13 11 C13 11.66 13 12.32 13 13 C13.66 13 14.32 13 15 13 C15.61875 13.70125 16.2375 14.4025 16.875 15.125 C22.89404637 21.45040502 33.37210318 25.36133499 41.8125 27.125 C42.60269531 27.29257812 43.39289063 27.46015625 44.20703125 27.6328125 C44.79871094 27.75398437 45.39039063 27.87515625 46 28 C46 28.33 46 28.66 46 29 C36.21240823 30.48225548 26.24252404 26.49952922 18.33691406 20.80126953 C15.36996442 18.38548858 12.70162277 15.70162277 10 13 C9.34 12.67 8.68 12.34 8 12 C8 11.34 8 10.68 8 10 C7.4225 9.773125 6.845 9.54625 6.25 9.3125 C3.3831729 7.64018419 1.86288964 5.72780269 0 3 C0 2.01 0 1.02 0 0 Z " fill="#DA7710" transform="translate(400,791)"/>
<path d="M0 0 C0.66 0 1.32 0 2 0 C1.32438689 4.03115821 0.10447375 7.63121755 -1.375 11.4375 C-1.79523438 12.52933594 -2.21546875 13.62117188 -2.6484375 14.74609375 C-4 18 -4 18 -5.6015625 21.140625 C-6.82393335 23.63999781 -7.51033801 25.60405711 -8 28.3125 C-10.47340426 40.47340426 -10.47340426 40.47340426 -14 44 C-17.04765436 35.58363003 -9.95138355 22.92404942 -6.9375 14.9375 C-6.59726807 14.03330322 -6.25703613 13.12910645 -5.90649414 12.19750977 C-2.54479471 3.46755313 -2.54479471 3.46755313 0 0 Z " fill="#DA7710" transform="translate(223,318)"/>
<path d="M0 0 C0.66 0 1.32 0 2 0 C0.79092156 3.82135343 -0.63228828 7.33552577 -2.375 10.9375 C-9.2752613 27.47362915 -9.7134636 46.33107858 -10 64 C-10.33 64 -10.66 64 -11 64 C-13.03523326 41.23790471 -11.2593474 20.24735671 0 0 Z " fill="#96551B" transform="translate(228,332)"/>
<path d="M0 0 C0 0.66 0 1.32 0 2 C-1.48886719 2.23783203 -1.48886719 2.23783203 -3.0078125 2.48046875 C-15.85977058 4.64184031 -27.50542314 8.14490703 -38.79296875 14.86328125 C-41 16 -41 16 -44 16 C-43 13 -43 13 -41.28515625 11.88085938 C-40.55167969 11.53861328 -39.81820313 11.19636719 -39.0625 10.84375 C-38.24910156 10.46089844 -37.43570312 10.07804687 -36.59765625 9.68359375 C-35.74042969 9.29300781 -34.88320313 8.90242188 -34 8.5 C-33.17371094 8.10941406 -32.34742188 7.71882813 -31.49609375 7.31640625 C-21.02666237 2.45033251 -11.60707869 -0.20363296 0 0 Z " fill="#C56D13" transform="translate(332,278)"/>
<path d="M0 0 C7.57342008 -0.30881907 15.07252734 1.64737469 22.44921875 3.16796875 C22.44921875 4.15796875 22.44921875 5.14796875 22.44921875 6.16796875 C21.50046875 5.93980469 20.55171875 5.71164062 19.57421875 5.4765625 C5.19668644 2.33310703 -10.08227802 2.30877561 -24.55078125 5.16796875 C-24.55078125 4.17796875 -24.55078125 3.18796875 -24.55078125 2.16796875 C-17.98864071 0.63077441 -11.20357554 0.58024719 -4.49462891 0.26318359 C-2.99565018 0.18975962 -1.4975326 0.09861241 0 0 Z " fill="#DB7810" transform="translate(343.55078125,286.83203125)"/>
<path d="M0 0 C0.66 0.66 1.32 1.32 2 2 C-6.45587257 13.71036648 -15.22916565 21.21198683 -29 26 C-29.66 26 -30.32 26 -31 26 C-31 25.34 -31 24.68 -31 24 C-30.43410156 23.73445312 -29.86820312 23.46890625 -29.28515625 23.1953125 C-28.55167969 22.84210937 -27.81820313 22.48890625 -27.0625 22.125 C-26.33160156 21.77695312 -25.60070312 21.42890625 -24.84765625 21.0703125 C-22.83667541 20.1315023 -22.83667541 20.1315023 -22 18 C-20.64933334 17.36234621 -19.26821051 16.78839321 -17.875 16.25 C-10.57859032 13.11799584 -6.14620045 8.7567711 -2 2 C-1.34 1.34 -0.68 0.68 0 0 Z " fill="#BF6A13" transform="translate(509,789)"/>
<path d="M0 0 C0.66 0 1.32 0 2 0 C2.45890625 0.88042969 2.9178125 1.76085937 3.390625 2.66796875 C4.00421875 3.82941406 4.6178125 4.99085938 5.25 6.1875 C5.85328125 7.33605469 6.4565625 8.48460937 7.078125 9.66796875 C10.16061131 15.1916799 10.16061131 15.1916799 15 19 C15 19.66 15 20.32 15 21 C15.66 21 16.32 21 17 21 C17 21.66 17 22.32 17 23 C17.58394531 23.26941406 18.16789062 23.53882813 18.76953125 23.81640625 C21.00584626 25.00310231 22.76429253 26.29797606 24.6875 27.9375 C25.28949219 28.44152344 25.89148438 28.94554687 26.51171875 29.46484375 C28 31 28 31 29 34 C27 33 25 32 23 31 C23 30.34 23 29.68 23 29 C22.195625 28.6596875 22.195625 28.6596875 21.375 28.3125 C18.17539839 26.54429911 15.70962777 24.46329797 13 22 C13 21.34 13 20.68 13 20 C12.41476562 19.78085937 11.82953125 19.56171875 11.2265625 19.3359375 C8.28928215 17.57356929 7.14841842 15.53903115 5.375 12.625 C4.78460938 11.66851563 4.19421875 10.71203125 3.5859375 9.7265625 C0 3.56157635 0 3.56157635 0 0 Z " fill="#D57511" transform="translate(398,776)"/>
<path d="M0 0 C2.10412898 2.10412898 2.58158372 3.23084857 3.5078125 5.9921875 C3.90419922 7.17361328 3.90419922 7.17361328 4.30859375 8.37890625 C4.57800781 9.20261719 4.84742188 10.02632813 5.125 10.875 C5.40214844 11.69097656 5.67929688 12.50695312 5.96484375 13.34765625 C6.22652344 14.13785156 6.48820313 14.92804688 6.7578125 15.7421875 C7.11576904 16.82282471 7.11576904 16.82282471 7.48095703 17.92529297 C8 20 8 20 8 24 C7.01 24.33 6.02 24.66 5 25 C1.02366287 18.45828408 -0.14083573 13.94273686 -0.0625 6.1875 C-0.05347656 5.02605469 -0.04445312 3.86460937 -0.03515625 2.66796875 C-0.02355469 1.78753906 -0.01195312 0.90710938 0 0 Z " fill="#C96D0C" transform="translate(247,395)"/>
<path d="M0 0 C0.66 0 1.32 0 2 0 C3.67890244 13.35373171 1.92508081 23.550995 -3 36 C-4.54433531 33.58593073 -5.08315799 32.46919418 -4.57421875 29.59765625 C-4.28160156 28.76105469 -3.98898437 27.92445313 -3.6875 27.0625 C-1.54523926 20.79081357 -0.88065185 15.38575697 -1 8.75 C-1.0455931 6.16031188 -1.04732509 3.59104894 -1 1 C-0.67 0.67 -0.34 0.34 0 0 Z " fill="#B76613" transform="translate(529,752)"/>
<path d="M0 0 C0.66 0 1.32 0 2 0 C2.18175781 0.82242188 2.36351562 1.64484375 2.55078125 2.4921875 C5.07111654 15.15973303 5.07111654 15.15973303 10 27 C10.66 27.33 11.32 27.66 12 28 C13.0703125 29.84765625 13.0703125 29.84765625 14.125 32.0625 C14.65480469 33.16271484 14.65480469 33.16271484 15.1953125 34.28515625 C15.46085937 34.85105469 15.72640625 35.41695312 16 36 C15.01 36 14.02 36 13 36 C4.91299614 27.89193623 0.20992422 14.29667637 -0.11328125 3.0625 C-0.07589844 2.051875 -0.03851563 1.04125 0 0 Z " fill="#D97710" transform="translate(397,752)"/>
<path d="M0 0 C0 0.33 0 0.66 0 1 C-6.89463589 1.86763957 -13.74702298 2.10879182 -20.6875 2.125 C-21.88016479 2.13176758 -21.88016479 2.13176758 -23.09692383 2.13867188 C-28.14931954 2.12608677 -32.99863985 1.72019586 -38 1 C-38 1.66 -38 2.32 -38 3 C-39.65 2.67 -41.3 2.34 -43 2 C-43 1.34 -43 0.68 -43 0 C-30.27536653 -3.97842138 -13.12261124 -0.64854125 0 0 Z " fill="#D9760F" transform="translate(344,518)"/>
<path d="M0 0 C0.99 0.33 1.98 0.66 3 1 C4.02649765 3.7650168 4.86512325 6.41218866 5.625 9.25 C5.8415625 10.01441406 6.058125 10.77882813 6.28125 11.56640625 C7.82857437 17.09665817 9.13311008 22.30305724 9.09765625 28.08203125 C9.09443359 29.01337891 9.09121094 29.94472656 9.08789062 30.90429688 C9.07951172 31.86400391 9.07113281 32.82371094 9.0625 33.8125 C9.05798828 34.79154297 9.05347656 35.77058594 9.04882812 36.77929688 C9.03708684 39.18626111 9.02066419 41.59309857 9 44 C8.67 44 8.34 44 8 44 C7.67 38.72 7.34 33.44 7 28 C6.67 28 6.34 28 6 28 C5.88930176 27.42032471 5.77860352 26.84064941 5.66455078 26.2434082 C5.15650262 23.59875581 4.64082505 20.95564607 4.125 18.3125 C3.95097656 17.40048828 3.77695312 16.48847656 3.59765625 15.54882812 C2.73225663 11.14170044 1.76081518 7.14822675 0 3 C0 2.01 0 1.02 0 0 Z " fill="#99561B" transform="translate(528,727)"/>
<path d="M0 0 C2.96175123 0.61277612 4.38058783 1.25372522 7 3 C7 3.66 7 4.32 7 5 C7.86882812 5.2784375 8.73765625 5.556875 9.6328125 5.84375 C12.79304705 6.92893495 15.81235139 8.16770724 18.875 9.5 C23.55770703 11.47934873 28.0320422 12.94908585 33 14 C33 14.33 33 14.66 33 15 C25.7028409 15.46748567 20.96222623 14.17912587 14.4375 11 C13.61958984 10.6184375 12.80167969 10.236875 11.95898438 9.84375 C9.96492551 8.91085696 7.97961147 7.96307154 6 7 C6 6.34 6 5.68 6 5 C4.68 4.67 3.36 4.34 2 4 C2 3.34 2 2.68 2 2 C1.34 2 0.68 2 0 2 C0 1.34 0 0.68 0 0 Z " fill="#D87610" transform="translate(415,812)"/>
<path d="M0 0 C0 1.65 0 3.3 0 5 C-0.99 5.33 -1.98 5.66 -3 6 C-3.495 4.515 -3.495 4.515 -4 3 C-14.89 3 -25.78 3 -37 3 C-37.33 2.34 -37.66 1.68 -38 1 C-33.07040958 0.85703617 -28.14080336 0.71463436 -23.21118164 0.57275391 C-21.53409384 0.52440601 -19.85701046 0.4759044 -18.17993164 0.42724609 C-15.76970548 0.35734312 -13.35946396 0.2879925 -10.94921875 0.21875 C-10.19912033 0.19687622 -9.44902191 0.17500244 -8.67619324 0.15246582 C-5.78283704 0.06977176 -2.89472012 0 0 0 Z " fill="#D57411" transform="translate(345,506)"/>
<path d="M0 0 C0.66 0 1.32 0 2 0 C1.51012297 4.31091783 0.67465105 8.36665741 -0.4375 12.5625 C-2.1806656 19.30444931 -3.13214202 26.09797657 -4 33 C-4.33 33 -4.66 33 -5 33 C-5.47643269 21.20829104 -5.41277308 10.82554615 0 0 Z " fill="#D47411" transform="translate(202,343)"/>
<path d="M0 0 C0.33 0 0.66 0 1 0 C1 10.23 1 20.46 1 31 C-1.60576916 25.78846169 -2.15423751 22.57716256 -2.125 16.8125 C-2.12886719 16.06935547 -2.13273438 15.32621094 -2.13671875 14.56054688 C-2.11490342 2.11490342 -2.11490342 2.11490342 0 0 Z " fill="#C56C0B" transform="translate(237,370)"/>
<path d="M0 0 C0.33 0 0.66 0 1 0 C1.69249034 30.38079418 1.69249034 30.38079418 -2 38 C-4.06542969 39.13500977 -4.06542969 39.13500977 -6 40 C-5.85377197 39.3922876 -5.70754395 38.7845752 -5.55688477 38.15844727 C-2.52631974 25.39545288 -0.19394178 13.13514765 0 0 Z " fill="#C36B0F" transform="translate(535,751)"/>
<path d="M0 0 C-1.55603771 3.81936528 -3.95604931 6.26044438 -7 9 C-7.66 9 -8.32 9 -9 9 C-9 9.66 -9 10.32 -9 11 C-10.57421875 12.55078125 -10.57421875 12.55078125 -12.6875 14.3125 C-15.95300964 17.08499308 -19.01915985 19.92600859 -22 23 C-22 18.77471908 -21.74375671 17.95481492 -19 15 C-18.34 15 -17.68 15 -17 15 C-17 14.34 -17 13.68 -17 13 C-15.49609375 11.484375 -15.49609375 11.484375 -13.4375 9.75 C-12.71175781 9.13511719 -11.98601562 8.52023437 -11.23828125 7.88671875 C-10.49964844 7.26410156 -9.76101563 6.64148438 -9 6 C-8.33355469 5.40832031 -7.66710937 4.81664062 -6.98046875 4.20703125 C-6.36816406 3.66433594 -5.75585938 3.12164062 -5.125 2.5625 C-4.57070313 2.06878906 -4.01640625 1.57507813 -3.4453125 1.06640625 C-2 0 -2 0 0 0 Z " fill="#D57511" transform="translate(269,282)"/>
<path d="M0 0 C0.66 0.66 1.32 1.32 2 2 C1.401875 2.598125 0.80375 3.19625 0.1875 3.8125 C-5.70085342 12.39267213 -5.92295747 23.90114236 -7 34 C-7.33 34 -7.66 34 -8 34 C-8.75281803 10.21652667 -8.75281803 10.21652667 -2.3125 2.3125 C-1.549375 1.549375 -0.78625 0.78625 0 0 Z " fill="#D87610" transform="translate(417,727)"/>
<path d="M0 0 C0.66 0.66 1.32 1.32 2 2 C-0.33829036 10.39131151 -3.64173408 17.48574841 -8 25 C-8.99 24.67 -9.98 24.34 -11 24 C-11 23.34 -11 22.68 -11 22 C-10.34 22 -9.68 22 -9 22 C-7.00025321 17.04692347 -5.11255549 12.05292836 -3.21875 7.05859375 C-2.24851386 4.62367421 -1.22240795 2.31465208 0 0 Z " fill="#B16314" transform="translate(522,773)"/>
<path d="M0 0 C0.99 0 1.98 0 3 0 C2.67 1.32 2.34 2.64 2 4 C1.34 4 0.68 4 0 4 C-0.2475 4.61875 -0.495 5.2375 -0.75 5.875 C-2.20628639 8.35068687 -3.37812506 8.95125002 -6 10 C-6 10.66 -6 11.32 -6 12 C-7.75 13.2890625 -7.75 13.2890625 -10 14.625 C-10.7425 15.07101562 -11.485 15.51703125 -12.25 15.9765625 C-12.8275 16.31429687 -13.405 16.65203125 -14 17 C-13.57760481 12.55969936 -10.80103077 10.72962731 -7.5625 7.9375 C-3.38637047 4.32011955 -3.38637047 4.32011955 0 0 Z " fill="#CC7111" transform="translate(510,797)"/>
<path d="M0 0 C0.66 0 1.32 0 2 0 C2.03758423 1.01368652 2.03758423 1.01368652 2.07592773 2.04785156 C2.19210742 5.1154168 2.31473437 8.18269158 2.4375 11.25 C2.47681641 12.31347656 2.51613281 13.37695312 2.55664062 14.47265625 C2.59853516 15.49746094 2.64042969 16.52226563 2.68359375 17.578125 C2.72025146 18.52075195 2.75690918 19.46337891 2.79467773 20.43457031 C2.92108209 22.96281379 2.92108209 22.96281379 3.57836914 25.19824219 C4.16093474 27.68772345 3.2902834 28.87482735 2 31 C-0.0655473 24.23411279 -0.23960929 18.04406312 -0.125 11 C-0.11597656 9.93910156 -0.10695313 8.87820313 -0.09765625 7.78515625 C-0.07427524 5.18986362 -0.04150556 2.59505535 0 0 Z " fill="#DA7710" transform="translate(403,738)"/>
<path d="M0 0 C1.67667954 0.89822118 3.34117633 1.81921561 5 2.75 C5.928125 3.26046875 6.85625 3.7709375 7.8125 4.296875 C8.534375 4.85890625 9.25625 5.4209375 10 6 C10 7.32 10 8.64 10 10 C6.58678765 10 5.60527115 9.33132534 2.8125 7.5 C2.09707031 7.0359375 1.38164062 6.571875 0.64453125 6.09375 C-0.16951172 5.55234375 -0.16951172 5.55234375 -1 5 C-0.67 3.35 -0.34 1.7 0 0 Z " fill="#DE780B" transform="translate(268,468)"/>
<path d="M0 0 C-2.61448858 1.74299239 -4.90450945 2.88907375 -7.78125 4.09375 C-8.70550781 4.48433594 -9.62976563 4.87492187 -10.58203125 5.27734375 C-12.52734375 6.09244792 -14.47265625 6.90755208 -16.41796875 7.72265625 C-17.80435547 8.30853516 -17.80435547 8.30853516 -19.21875 8.90625 C-20.06373047 9.26009766 -20.90871094 9.61394531 -21.77929688 9.97851562 C-24.20696511 11.02513985 -24.20696511 11.02513985 -27 13 C-27.66 12.34 -28.32 11.68 -29 11 C-23.58511202 7.75838463 -18.05985751 5.1434444 -12.25 2.6875 C-10.97576172 2.1296582 -10.97576172 2.1296582 -9.67578125 1.56054688 C-8.85980469 1.21443359 -8.04382813 0.86832031 -7.203125 0.51171875 C-6.46739258 0.19678467 -5.73166016 -0.11814941 -4.97363281 -0.44262695 C-3 -1 -3 -1 0 0 Z " fill="#9B5819" transform="translate(319,291)"/>
<path d="M0 0 C0.87180908 0.21438721 0.87180908 0.21438721 1.76123047 0.43310547 C8.62414675 1.97965913 15.10961595 2.24103053 22.125 2.125 C23.176875 2.11597656 24.22875 2.10695313 25.3125 2.09765625 C27.87524878 2.07435853 30.43749512 2.04165112 33 2 C29.38405945 5.61594055 23.656749 4.62250804 18.75 4.8125 C17.05037109 4.90821289 17.05037109 4.90821289 15.31640625 5.00585938 C5.0059834 5.43495669 5.0059834 5.43495669 0 2 C0 1.34 0 0.68 0 0 Z " fill="#DB7810" transform="translate(438,830)"/>
<path d="M0 0 C0.89138672 0.30744141 0.89138672 0.30744141 1.80078125 0.62109375 C8.20772565 2.70359978 14.28237754 3.62963678 21 4 C21 4.99 21 5.98 21 7 C14.39681833 7.31950879 8.01411459 7.04684822 2 4 C0.71484375 1.890625 0.71484375 1.890625 0 0 Z " fill="#A85F15" transform="translate(439,794)"/>
<path d="M0 0 C0.33 0 0.66 0 1 0 C1.15855469 0.89460937 1.31710937 1.78921875 1.48046875 2.7109375 C2.99168639 10.54255158 5.02880864 17.08612728 9 24 C9.33 24.66 9.66 25.32 10 26 C8.16796875 25.8046875 8.16796875 25.8046875 6 25 C4.55078125 22.8203125 4.55078125 22.8203125 3.3125 20.125 C2.89613281 19.24070312 2.47976563 18.35640625 2.05078125 17.4453125 C0.28140309 13.32772616 -0.11046784 10.27350866 -0.0625 5.8125 C-0.05347656 4.72582031 -0.04445313 3.63914062 -0.03515625 2.51953125 C-0.02355469 1.68808594 -0.01195312 0.85664062 0 0 Z " fill="#C66E13" transform="translate(410,753)"/>
<path d="M0 0 C1.46759766 0.61488281 1.46759766 0.61488281 2.96484375 1.2421875 C9.91988034 4.11505502 16.55102059 6.69316151 24 8 C24 8.33 24 8.66 24 9 C14.81514565 10.14281598 8.05483385 6.89974665 0 3 C0 2.01 0 1.02 0 0 Z " fill="#CC7012" transform="translate(422,811)"/>
<path d="M0 0 C0.66 0 1.32 0 2 0 C3.7265625 2.08203125 3.7265625 2.08203125 5.625 4.8125 C6.25664062 5.70582031 6.88828125 6.59914063 7.5390625 7.51953125 C9 10 9 10 9 13 C9.66 13.33 10.32 13.66 11 14 C10.34 14 9.68 14 9 14 C8.67 14.66 8.34 15.32 8 16 C6.65543396 14.09119643 5.32469479 12.17264729 4 10.25 C3.2575 9.18265625 2.515 8.1153125 1.75 7.015625 C0 4 0 4 0 0 Z " fill="#B9660F" transform="translate(230,443)"/>
<path d="M0 0 C0.66 0.66 1.32 1.32 2 2 C1.13375 2.7425 1.13375 2.7425 0.25 3.5 C-2.10441392 6.11601547 -3.36286029 8.47881237 -4.8515625 11.62890625 C-7.05519601 16.17858496 -9.55932505 20.57424275 -12 25 C-12.66 24.34 -13.32 23.68 -14 23 C-10.15022384 14.83847455 -5.50399803 7.16021628 0 0 Z " fill="#925519" transform="translate(251,312)"/>
<path d="M0 0 C5.50102837 0.41257713 9.76201664 2.54722675 14 6 C14 6.66 14 7.32 14 8 C9.16371695 7.00956295 4.52381127 6.04301154 0 4 C0 2.68 0 1.36 0 0 Z " fill="#D7740B" transform="translate(280,489)"/>
<path d="M0 0 C0.66 0 1.32 0 2 0 C2 6.27 2 12.54 2 19 C1.01 19 0.02 19 -1 19 C-1.0272616 16.95840905 -1.04651345 14.91671037 -1.0625 12.875 C-1.07410156 11.73804688 -1.08570313 10.60109375 -1.09765625 9.4296875 C-1.005327 6.1870844 -0.61389906 3.18067388 0 0 Z " fill="#C86D0C" transform="translate(256,372)"/>
<path d="M0 0 C3.54792984 1.30383288 6.51253206 2.86084678 9.625 5 C10.38039063 5.515625 11.13578125 6.03125 11.9140625 6.5625 C12.60242188 7.036875 13.29078125 7.51125 14 8 C14.99 8.66 15.98 9.32 17 10 C13.69980713 11.07798271 12.35875562 11.16222419 9.140625 9.70703125 C8.18671875 9.08183594 7.2328125 8.45664062 6.25 7.8125 C5.28578125 7.20019531 4.3215625 6.58789062 3.328125 5.95703125 C0.90970922 3.9241012 0.30067331 3.08190145 0 0 Z " fill="#B16213" transform="translate(247,494)"/>
<path d="M0 0 C3.49107379 1.16369126 3.85222763 1.88973538 5.6875 4.9375 C6.34298828 6.00291016 6.34298828 6.00291016 7.01171875 7.08984375 C8 9 8 9 8 11 C6.68 11.33 5.36 11.66 4 12 C-1.05908096 5.92560175 -1.05908096 5.92560175 -0.8125 2.0625 C-0.544375 1.381875 -0.27625 0.70125 0 0 Z " fill="#C86C0C" transform="translate(253,438)"/>
<path d="M0 0 C0.33 0 0.66 0 1 0 C1.66 7.26 2.32 14.52 3 22 C2.34 22 1.68 22 1 22 C0.67 22.66 0.34 23.32 0 24 C-0.33895656 22.27192682 -0.67091525 20.54248026 -1 18.8125 C-1.185625 17.84957031 -1.37125 16.88664062 -1.5625 15.89453125 C-1.96877612 13.2065794 -2.07933572 10.71228981 -2 8 C-1.67 8 -1.34 8 -1 8 C-0.67 5.36 -0.34 2.72 0 0 Z " fill="#9D5817" transform="translate(238,389)"/>
<path d="M0 0 C0 0.66 0 1.32 0 2 C-1.65 2.33 -3.3 2.66 -5 3 C-5 3.99 -5 4.98 -5 6 C-8.63 6.33 -12.26 6.66 -16 7 C-16 6.67 -16 6.34 -16 6 C-14.35 6 -12.7 6 -11 6 C-11 5.34 -11 4.68 -11 4 C-12.98 4 -14.96 4 -17 4 C-17 3.67 -17 3.34 -17 3 C-14.91798472 2.49453964 -12.83432933 1.99583165 -10.75 1.5 C-9.58984375 1.2215625 -8.4296875 0.943125 -7.234375 0.65625 C-4 0 -4 0 0 0 Z " fill="#BD6812" transform="translate(359,514)"/>
<path d="M0 0 C2.26896379 2.08256167 3.63948826 3.96456707 4.9375 6.75 C6.79053746 10.61347579 8.84116246 14.29913564 11 18 C10.01 18.33 9.02 18.66 8 19 C7.03697644 17.44038638 6.07978996 15.87716775 5.125 14.3125 C4.59132812 13.44238281 4.05765625 12.57226562 3.5078125 11.67578125 C1.17112547 7.5290698 0 4.81269897 0 0 Z " fill="#C26C13" transform="translate(208,445)"/>
<path d="M0 0 C0.66 0.33 1.32 0.66 2 1 C2.2361959 7.40353322 1.823321 12.84629161 0 19 C-0.99 18.67 -1.98 18.34 -3 18 C-2.01 12.06 -1.02 6.12 0 0 Z " fill="#CB7013" transform="translate(208,361)"/>
<path d="M0 0 C1.89682969 -0.048021 3.79582354 0.01768716 5.69140625 0.1015625 C6.35140625 0.7615625 7.01140625 1.4215625 7.69140625 2.1015625 C4.94409382 3.47521871 2.87473561 3.1144264 -0.19140625 2.98046875 C-1.35800781 2.93212891 -2.52460938 2.88378906 -3.7265625 2.83398438 C-5.56154297 2.74987305 -5.56154297 2.74987305 -7.43359375 2.6640625 C-8.66464844 2.61185547 -9.89570313 2.55964844 -11.1640625 2.50585938 C-14.21247963 2.3758881 -17.26059325 2.24091231 -20.30859375 2.1015625 C-20.30859375 1.7715625 -20.30859375 1.4415625 -20.30859375 1.1015625 C-17.47540516 0.93205549 -14.64208387 0.76588716 -11.80859375 0.6015625 C-11.01710938 0.55386719 -10.225625 0.50617188 -9.41015625 0.45703125 C-6.2744316 0.27711262 -3.13778735 0.13804141 0 0 Z " fill="#EE7F01" transform="translate(335.30859375,507.8984375)"/>
<path d="M0 0 C0.33 0 0.66 0 1 0 C1.36632124 3.39463657 1.71589775 6.79079797 2.0625 10.1875 C2.16626953 11.14720703 2.27003906 12.10691406 2.37695312 13.09570312 C2.47041016 14.02705078 2.56386719 14.95839844 2.66015625 15.91796875 C2.79369507 17.19837036 2.79369507 17.19837036 2.92993164 18.50463867 C3.00440784 21.15697731 2.61472301 23.4262253 2 26 C1.67 26 1.34 26 1 26 C-1.55428477 17.21832675 -0.8233264 8.96758211 0 0 Z " fill="#AA5F13" transform="translate(228,393)"/>
<path d="M0 0 C-1.67140605 1.67140605 -3.83505668 1.46560822 -6.12890625 1.75390625 C-7.16337891 1.88603516 -8.19785156 2.01816406 -9.26367188 2.15429688 C-10.35228516 2.28900391 -11.44089844 2.42371094 -12.5625 2.5625 C-13.65498047 2.70107422 -14.74746094 2.83964844 -15.87304688 2.98242188 C-18.58157447 3.32542319 -21.29054269 3.66443515 -24 4 C-24 3.01 -24 2.02 -24 1 C-19.45762017 -0.06986192 -14.95502555 -0.35723771 -10.3125 -0.625 C-9.54099609 -0.6765625 -8.76949219 -0.728125 -7.97460938 -0.78125 C-2.24325478 -1.12162739 -2.24325478 -1.12162739 0 0 Z " fill="#C86E12" transform="translate(343,288)"/>
<path d="M0 0 C6.08233706 0.67581523 12.01314152 1.73638028 18 3 C15.4861581 5.5138419 14.54723987 5.77358043 11 6 C2.77642276 4.16463415 2.77642276 4.16463415 0 0 Z " fill="#C26A0D" transform="translate(288,503)"/>
<path d="M0 0 C0.68359375 1.640625 0.68359375 1.640625 1 4 C-0.21484375 6.796875 -0.21484375 6.796875 -1.9375 9.75 C-2.50339844 10.73484375 -3.06929687 11.7196875 -3.65234375 12.734375 C-4.09707031 13.48203125 -4.54179688 14.2296875 -5 15 C-5.99 14.67 -6.98 14.34 -8 14 C-6.85632262 11.85299207 -5.71017393 9.70737007 -4.5625 7.5625 C-4.23701172 6.95083984 -3.91152344 6.33917969 -3.57617188 5.70898438 C-1.11328125 1.11328125 -1.11328125 1.11328125 0 0 Z " fill="#C26C12" transform="translate(524,786)"/>
<path d="M0 0 C0.99 0.33 1.98 0.66 3 1 C5.53456392 6.44461879 6.38750411 12.05827036 6 18 C5.34 17.67 4.68 17.34 4 17 C3.18359375 14.453125 3.18359375 14.453125 2.4375 11.25 C2.18871094 10.20328125 1.93992187 9.1565625 1.68359375 8.078125 C1.08684763 5.39106248 0.52535255 2.70181311 0 0 Z " fill="#AC6115" transform="translate(528,727)"/>
<path d="M0 0 C0.66 0.66 1.32 1.32 2 2 C-4.15034169 10.44646925 -4.15034169 10.44646925 -8 14 C-8.99 13.34 -9.98 12.68 -11 12 C-10.2575 11.46375 -9.515 10.9275 -8.75 10.375 C-5.81404559 7.83940301 -4.05929866 5.26647374 -2 2 C-1.34 1.34 -0.68 0.68 0 0 Z " fill="#B06416" transform="translate(509,789)"/>
<path d="M0 0 C0.33 0 0.66 0 1 0 C1 4.29 1 8.58 1 13 C1.99 13.33 2.98 13.66 4 14 C4.36923077 19.41538462 4.36923077 19.41538462 2.5 22.375 C2.005 22.91125 1.51 23.4475 1 24 C-0.32915021 16.02509872 -0.08801359 8.05813281 0 0 Z " fill="#8A4F1B" transform="translate(245,377)"/>
<path d="M0 0 C2 2 2 2 2.04345703 4.15478516 C1.94919434 5.02409668 1.85493164 5.8934082 1.7578125 6.7890625 C1.66113281 7.73007812 1.56445312 8.67109375 1.46484375 9.640625 C1.35269531 10.62546875 1.24054688 11.6103125 1.125 12.625 C1.02058594 13.61757813 0.91617188 14.61015625 0.80859375 15.6328125 C0.5487258 18.08974586 0.27880162 20.54515492 0 23 C-0.33 23 -0.66 23 -1 23 C-1.937402 14.91807467 -2.15408416 7.88644034 0 0 Z " fill="#94541A" transform="translate(229,355)"/>
<path d="M0 0 C3.60781873 1.55631396 5.5868237 3.46836178 8.1875 6.375 C6.0625 7.1875 6.0625 7.1875 3.1875 7.375 C0.23897743 5.23587578 -2.24287033 2.94462967 -4.8125 0.375 C-2.8125 -0.625 -2.8125 -0.625 0 0 Z " fill="#B36412" transform="translate(252.8125,483.625)"/>
<path d="M0 0 C0 0.66 0 1.32 0 2 C-5.28 2.66 -10.56 3.32 -16 4 C-14 1 -14 1 -11.375 0.3125 C-7.54729875 -0.04191678 -3.84289464 -0.0662568 0 0 Z " fill="#DB7810" transform="translate(332,278)"/>
<path d="M0 0 C-1.21065165 3.63195496 -2.53691126 4.42896192 -5.5625 6.6875 C-6.38878906 7.31011719 -7.21507812 7.93273437 -8.06640625 8.57421875 C-8.70449219 9.04472656 -9.34257812 9.51523437 -10 10 C-10.66 9.67 -11.32 9.34 -12 9 C-11.01 8.67 -10.02 8.34 -9 8 C-8.87625 7.401875 -8.7525 6.80375 -8.625 6.1875 C-7.42441632 1.98545712 -4.21345552 0 0 0 Z " fill="#D87610" transform="translate(517,812)"/>
<path d="M0 0 C3 1 3 1 4.203125 2.99609375 C4.54859375 3.80175781 4.8940625 4.60742188 5.25 5.4375 C5.78367188 6.64212891 5.78367188 6.64212891 6.328125 7.87109375 C7 10 7 10 6 12 C2.28930302 8.00386479 0.40208382 5.62917348 0 0 Z " fill="#D27311" transform="translate(217,439)"/>
<path d="M0 0 C0.97533063 2.63339271 1.019574 3.92348347 0.3125 6.6875 C-1 9 -1 9 -3.125 9.8125 C-3.74375 9.874375 -4.3625 9.93625 -5 10 C-4.4454626 6.67277559 -3.75986957 3.8986087 -2 1 C-1.34 0.67 -0.68 0.34 0 0 Z " fill="#C66C0E" transform="translate(265,347)"/>
<path d="M0 0 C4.62 0.99 9.24 1.98 14 3 C13.34 3.66 12.68 4.32 12 5 C9.1796875 4.7578125 9.1796875 4.7578125 5.875 4.125 C4.77929688 3.92132812 3.68359375 3.71765625 2.5546875 3.5078125 C1.71164062 3.34023438 0.86859375 3.17265625 0 3 C0 2.01 0 1.02 0 0 Z " fill="#BC6814" transform="translate(437,800)"/>
<path d="M0 0 C0.66 0 1.32 0 2 0 C2.24915939 1.76813112 2.47366632 3.53974982 2.6875 5.3125 C2.81511719 6.29863281 2.94273437 7.28476562 3.07421875 8.30078125 C3 11 3 11 1.51953125 12.85546875 C1.01808594 13.23316406 0.51664063 13.61085938 0 14 C-0.19393875 11.85473901 -0.37998676 9.70876323 -0.5625 7.5625 C-0.71912109 5.77005859 -0.71912109 5.77005859 -0.87890625 3.94140625 C-0.91886719 2.97074219 -0.95882812 2.00007812 -1 1 C-0.67 0.67 -0.34 0.34 0 0 Z " fill="#9D5916" transform="translate(529,752)"/>
<path d="M0 0 C1.53690745 2.41040161 2.09752136 3.50082285 1.5390625 6.359375 C1.23742187 7.14828125 0.93578125 7.9371875 0.625 8.75 C0.18027344 9.94882812 0.18027344 9.94882812 -0.2734375 11.171875 C-0.51320312 11.77515625 -0.75296875 12.3784375 -1 13 C-1.99 12.34 -2.98 11.68 -4 11 C-2.7874262 7.27566618 -1.49140021 3.62197194 0 0 Z " fill="#A65D16" transform="translate(256,340)"/>
<path d="M0 0 C-1.16378237 3.49134712 -1.89498744 4.15377632 -5 6 C-8.25 6.6875 -8.25 6.6875 -11 7 C-9.88809524 3.66428571 -9.53679327 3.41582921 -6.625 1.8125 C-6.01914062 1.46832031 -5.41328125 1.12414062 -4.7890625 0.76953125 C-3 0 -3 0 0 0 Z " fill="#D27411" transform="translate(500,802)"/>
<path d="M0 0 C0.66 0.66 1.32 1.32 2 2 C1.01 5.3 0.02 8.6 -1 12 C-1.66 12 -2.32 12 -3 12 C-2.14285714 3.42857143 -2.14285714 3.42857143 0 0 Z " fill="#A35D16" transform="translate(522,773)"/>
<path d="M0 0 C2.8202907 4.00438221 2.00863471 8.12336539 1.625 12.75 C1.56828125 13.54277344 1.5115625 14.33554687 1.453125 15.15234375 C1.31216305 17.10231735 1.1574288 19.05128671 1 21 C0.67 21 0.34 21 0 21 C-0.1963696 18.62543835 -0.38231294 16.25079981 -0.5625 13.875 C-0.61857422 13.20984375 -0.67464844 12.5446875 -0.73242188 11.859375 C-1.03625857 7.7271959 -0.85227531 4.05304259 0 0 Z " fill="#804A1E" transform="translate(238,359)"/>
<path d="M0 0 C1.33998047 0.31324219 1.33998047 0.31324219 2.70703125 0.6328125 C3.60808594 0.83648438 4.50914062 1.04015625 5.4375 1.25 C6.46810547 1.50136719 6.46810547 1.50136719 7.51953125 1.7578125 C6.52953125 2.2528125 6.52953125 2.2528125 5.51953125 2.7578125 C5.51953125 3.4178125 5.51953125 4.0778125 5.51953125 4.7578125 C1.88953125 3.7678125 -1.74046875 2.7778125 -5.48046875 1.7578125 C-2.48046875 -0.2421875 -2.48046875 -0.2421875 0 0 Z " fill="#AA5E16" transform="translate(280.48046875,511.2421875)"/>
<path d="M0 0 C4.00458831 0.61609051 6.83019669 2.55060653 10 5 C10 5.99 10 6.98 10 8 C6.88349604 6.49946106 3.86850702 4.93818042 1 3 C0.67 2.01 0.34 1.02 0 0 Z " fill="#DA7710" transform="translate(372,305)"/>
<path d="M0 0 C2.91517292 1.07401108 4.77810176 1.77810176 7 4 C7 4.99 7 5.98 7 7 C4.08482708 5.92598892 2.22189824 5.22189824 0 3 C0 2.01 0 1.02 0 0 Z " fill="#D0720F" transform="translate(240,489)"/>
<path d="M0 0 C0.66 0 1.32 0 2 0 C3.29676812 4.61073111 2.71109139 8.33840089 2 13 C1.34 13 0.68 13 0 13 C0 8.71 0 4.42 0 0 Z " fill="#E07807" transform="translate(246,377)"/>
<path d="M0 0 C0.33 0.66 0.66 1.32 1 2 C-1.82522609 6.67248931 -4.67760044 9.65996398 -9 13 C-8.4352699 9.09170915 -6.57868029 7.10079777 -3.9375 4.25 C-3.20402344 3.45078125 -2.47054688 2.6515625 -1.71484375 1.828125 C-1.14894531 1.22484375 -0.58304687 0.6215625 0 0 Z " fill="#B16514" transform="translate(266,310)"/>
<path d="M0 0 C0.33 0 0.66 0 1 0 C1.33776684 1.7491497 1.67003671 3.49936145 2 5.25 C2.185625 6.22453125 2.37125 7.1990625 2.5625 8.203125 C3 11 3 11 3 15 C2.34 15 1.68 15 1 15 C-0.09506492 11.71480525 -0.09960608 9.26336585 -0.0625 5.8125 C-0.05347656 4.72582031 -0.04445313 3.63914062 -0.03515625 2.51953125 C-0.02355469 1.68808594 -0.01195312 0.85664062 0 0 Z " fill="#B46418" transform="translate(410,753)"/>
<path d="M0 0 C0.99 0.33 1.98 0.66 3 1 C-0.3 3.64 -3.6 6.28 -7 9 C-7.66 8.34 -8.32 7.68 -9 7 C-7.57277341 5.8001722 -6.13284224 4.6154424 -4.6875 3.4375 C-3.88699219 2.77621094 -3.08648437 2.11492187 -2.26171875 1.43359375 C-1.51535156 0.96050781 -0.76898438 0.48742187 0 0 Z " fill="#B06417" transform="translate(289,303)"/>
<path d="M0 0 C0.33 0.99 0.66 1.98 1 3 C-0.28524261 3.86380259 -1.57842419 4.71580369 -2.875 5.5625 C-3.59429687 6.03816406 -4.31359375 6.51382812 -5.0546875 7.00390625 C-5.69664062 7.33261719 -6.33859375 7.66132813 -7 8 C-7.66 7.67 -8.32 7.34 -9 7 C-8 4 -8 4 -6.15234375 2.83203125 C-5.42144531 2.49558594 -4.69054687 2.15914063 -3.9375 1.8125 C-3.20402344 1.46832031 -2.47054688 1.12414062 -1.71484375 0.76953125 C-1.14894531 0.51558594 -0.58304687 0.26164062 0 0 Z " fill="#D57511" transform="translate(297,287)"/>
<path d="M0 0 C-0.99 0.33 -1.98 0.66 -3 1 C-3.33 1.99 -3.66 2.98 -4 4 C-6.875 4.125 -6.875 4.125 -10 4 C-10.66 3.34 -11.32 2.68 -12 2 C-7.8803623 0.70756464 -4.33168317 -0.26252625 0 0 Z " fill="#D6750F" transform="translate(481,812)"/>
<path d="M0 0 C1.99097846 2.98646769 2.94124926 5.59687262 4 9 C3.34 9.66 2.68 10.32 2 11 C-1.07692308 5.70769231 -1.07692308 5.70769231 -0.6875 2.125 C-0.460625 1.42375 -0.23375 0.7225 0 0 Z " fill="#AA6016" transform="translate(214,430)"/>
<path d="M0 0 C1.48253267 0.61697319 2.96095174 1.24383896 4.4375 1.875 C5.67306641 2.39707031 5.67306641 2.39707031 6.93359375 2.9296875 C9 4 9 4 10 6 C5.545 5.01 5.545 5.01 1 4 C0.67 2.68 0.34 1.36 0 0 Z " fill="#BF6A15" transform="translate(363,301)"/>
<path d="M0 0 C0.99 0.33 1.98 0.66 3 1 C3 1.66 3 2.32 3 3 C3.99 3.33 4.98 3.66 6 4 C5.67 4.66 5.34 5.32 5 6 C4.01 6 3.02 6 2 6 C2 5.34 2 4.68 2 4 C0.68 3.34 -0.64 2.68 -2 2 C-1.34 1.34 -0.68 0.68 0 0 Z " fill="#C76D10" transform="translate(245,478)"/>
<path d="M0 0 C2.64 0 5.28 0 8 0 C5.06171403 2.50298434 2.82097239 3.46930939 -1 4 C-0.67 2.68 -0.34 1.36 0 0 Z " fill="#C56D11" transform="translate(305,304)"/>
<path d="M0 0 C0.33 0.66 0.66 1.32 1 2 C-3.39453125 6.00390625 -3.39453125 6.00390625 -5 7 C-5.99 6.67 -6.98 6.34 -8 6 C-7.34 5.67 -6.68 5.34 -6 5 C-6 4.34 -6 3.68 -6 3 C-4.02 2.01 -2.04 1.02 0 0 Z " fill="#C86E13" transform="translate(507,818)"/>
<path d="M0 0 C0.99 0.495 0.99 0.495 2 1 C2 1.66 2 2.32 2 3 C2.66 3 3.32 3 4 3 C5.625 5.5 5.625 5.5 7 8 C4 8 4 8 1.8125 6.25 C0 4 0 4 0 0 Z " fill="#D37412" transform="translate(414,781)"/>
<path d="M0 0 C4.875 4.75 4.875 4.75 6 7 C5.01 7.33 4.02 7.66 3 8 C1.35 5.69 -0.3 3.38 -2 1 C-1.34 0.67 -0.68 0.34 0 0 Z " fill="#AE6214" transform="translate(229,476)"/>
<path d="M0 0 C0.33 0 0.66 0 1 0 C2.33257403 10.55808656 2.33257403 10.55808656 1 15 C0.67 15 0.34 15 0 15 C-1.33257403 4.44191344 -1.33257403 4.44191344 0 0 Z " fill="#8C511D" transform="translate(229,404)"/>
<path d="M0 0 C0.33 0.99 0.66 1.98 1 3 C-2.96 4.98 -2.96 4.98 -7 7 C-7.66 6.34 -8.32 5.68 -9 5 C-8.43410156 4.72285156 -7.86820312 4.44570313 -7.28515625 4.16015625 C-6.55167969 3.79792969 -5.81820313 3.43570313 -5.0625 3.0625 C-3.96615234 2.52302734 -3.96615234 2.52302734 -2.84765625 1.97265625 C-1.03750973 1.13628173 -1.03750973 1.13628173 0 0 Z " fill="#A65E15" transform="translate(495,811)"/>
<path d="M0 0 C2 1 2 1 2 1 Z M-1 1 C-0.01 1.66 0.98 2.32 2 3 C-4.5 6.125 -4.5 6.125 -9 5 C-6.36 3.68 -3.72 2.36 -1 1 Z " fill="#E97C06" transform="translate(381,506)"/>
<path d="M0 0 C2.31 0.33 4.62 0.66 7 1 C6.67 2.32 6.34 3.64 6 5 C4.35 4.67 2.7 4.34 1 4 C0.67 2.68 0.34 1.36 0 0 Z " fill="#DB7609" transform="translate(299,496)"/>
<path d="M0 0 C0.66 0.66 1.32 1.32 2 2 C1.625 4.625 1.625 4.625 1 7 C0.01 7.33 -0.98 7.66 -2 8 C-1.125 1.125 -1.125 1.125 0 0 Z " fill="#CA6F13" transform="translate(212,345)"/>
<path d="M0 0 C0.99 0 1.98 0 3 0 C1.60667426 3.36720387 0.0210714 4.9859524 -3 7 C-3 3.47190093 -2.35723489 2.53184488 0 0 Z " fill="#925410" transform="translate(278,311)"/>
<path d="M0 0 C0.33 0.99 0.66 1.98 1 3 C-1.52788007 5.79872437 -3.20411134 7.45773019 -7 8 C-7 7.34 -7 6.68 -7 6 C-6.34 6 -5.68 6 -5 6 C-5 5.34 -5 4.68 -5 4 C-3.37373596 2.61767557 -1.7074998 1.28062485 0 0 Z " fill="#CE7113" transform="translate(264,298)"/>
<path d="M0 0 C0 0.66 0 1.32 0 2 C-3.50776784 3.60355101 -6.14354879 4.22036864 -10 4 C-9.67 3.34 -9.34 2.68 -9 2 C-2.88888889 0 -2.88888889 0 0 0 Z " fill="#D97710" transform="translate(492,826)"/>
<path d="M0 0 C1.32 0.33 2.64 0.66 4 1 C1.60236815 3.39763185 0.66726502 3.34280586 -2.625 3.625 C-3.44226563 3.69976563 -4.25953125 3.77453125 -5.1015625 3.8515625 C-5.72804688 3.90054688 -6.35453125 3.94953125 -7 4 C-5 2 -5 2 -2.375 1.875 C-1.59125 1.91625 -0.8075 1.9575 0 2 C0 1.34 0 0.68 0 0 Z " fill="#EB7D04" transform="translate(359,514)"/>
<path d="M0 0 C3.26954202 0.56371414 4.82575883 1.49962266 7 4 C6.67 4.66 6.34 5.32 6 6 C1.125 3.375 1.125 3.375 0 0 Z " fill="#CE7113" transform="translate(233,467)"/>
<path d="M0 0 C3.67230705 3.07999946 4.56802365 5.2482602 5 10 C4.34 9.67 3.68 9.34 3 9 C3 8.01 3 7.02 3 6 C2.34 6 1.68 6 1 6 C0.67 4.02 0.34 2.04 0 0 Z " fill="#BB6817" transform="translate(409,773)"/>
<path d="M0 0 C4.95 0.99 4.95 0.99 10 2 C5.82091936 4.08954032 5.19589427 4.16552619 1 3 C0.67 2.01 0.34 1.02 0 0 Z " fill="#B86713" transform="translate(438,830)"/>
<path d="M0 0 C2.31 0.33 4.62 0.66 7 1 C7 1.66 7 2.32 7 3 C4.36 3 1.72 3 -1 3 C-0.67 2.01 -0.34 1.02 0 0 Z " fill="#DE790F" transform="translate(451,814)"/>
<path d="M0 0 C1.65 0 3.3 0 5 0 C5.33 0.99 5.66 1.98 6 3 C3.69 3 1.38 3 -1 3 C-0.67 2.01 -0.34 1.02 0 0 Z " fill="#C16B15" transform="translate(468,808)"/>
<path d="M0 0 C3.26954202 0.56371414 4.82575883 1.49962266 7 4 C6.34 4.66 5.68 5.32 5 6 C3.31237149 4.3545622 1.6459651 2.68711423 0 1 C0 0.67 0 0.34 0 0 Z " fill="#D77610" transform="translate(417,779)"/>
<path d="M0 0 C0.99 0 1.98 0 3 0 C3 1.65 3 3.3 3 5 C2.01 5.33 1.02 5.66 0 6 C-0.38218767 4.34385343 -0.71395102 2.67542976 -1 1 C-0.67 0.67 -0.34 0.34 0 0 Z " fill="#BE6811" transform="translate(342,506)"/>
<path d="M0 0 C0.66 0 1.32 0 2 0 C2.625 2.875 2.625 2.875 3 6 C2.34 6.66 1.68 7.32 1 8 C0.34 5.69 -0.32 3.38 -1 1 C-0.67 0.67 -0.34 0.34 0 0 Z " fill="#D77610" transform="translate(209,416)"/>
<path d="M0 0 C-0.33 0.66 -0.66 1.32 -1 2 C-4.3 2 -7.6 2 -11 2 C-6.98764085 -0.6749061 -4.6342454 -1.48957888 0 0 Z " fill="#9C5818" transform="translate(477,802)"/>
<path d="M0 0 C0.99 0.33 1.98 0.66 3 1 C2.34 2.32 1.68 3.64 1 5 C-0.65 4.01 -2.3 3.02 -4 2 C-3.34 1.67 -2.68 1.34 -2 1 C-1.34 1.33 -0.68 1.66 0 2 C0 1.34 0 0.68 0 0 Z " fill="#BF6A13" transform="translate(276,474)"/>
<path d="M0 0 C0.78375 0.04125 1.5675 0.0825 2.375 0.125 C2.045 1.115 1.715 2.105 1.375 3.125 C-1.595 2.63 -1.595 2.63 -4.625 2.125 C-2.625 0.125 -2.625 0.125 0 0 Z " fill="#DD790D" transform="translate(319.625,298.875)"/>
</svg>
